<?xml version="1.0" encoding="UTF-8" standalone="no"?>
<!-- This is a Stata 16.0 generated SVG file (http://www.stata.com) -->

<svg version="1.1" width="6.00in" height="7.00in" viewBox="0 0 4320 5040" xmlns="http://www.w3.org/2000/svg" xmlns:xlink="http://www.w3.org/1999/xlink">
	<desc>Stata Graph - Graph</desc>
	<rect x="0" y="0" width="4320" height="5040" style="fill:#EAF2F3;stroke:none"/>
	<rect x="0.00" y="0.16" width="4320.00" height="5039.84" style="fill:#F0F0F0"/>
	<rect x="4.32" y="4.48" width="4311.36" height="5031.20" style="fill:none;stroke:#F0F0F0;stroke-width:8.64"/>
	<rect x="0.00" y="0.16" width="4320.00" height="4879.98" style="fill:#F0F0F0"/>
	<rect x="4.32" y="4.48" width="4311.36" height="4871.34" style="fill:none;stroke:#F0F0F0;stroke-width:8.64"/>
	<rect x="0.00" y="0.16" width="4320.00" height="2439.99" style="fill:#FFFFFF"/>
	<rect x="4.32" y="4.48" width="4311.36" height="2431.35" style="fill:none;stroke:#FFFFFF;stroke-width:8.64"/>
	<rect x="1725.13" y="258.30" width="2378.93" height="1840.39" style="fill:#FFFFFF"/>
	<rect x="1729.45" y="262.62" width="2370.29" height="1831.75" style="fill:none;stroke:#FFFFFF;stroke-width:8.64"/>
	<line x1="1725.13" y1="2098.69" x2="1725.13" y2="258.30" style="stroke:#000000;stroke-opacity:0.20;stroke-width:8.64"/>
	<line x1="1835.23" y1="2098.69" x2="1835.23" y2="258.30" style="stroke:#000000;stroke-opacity:0.20;stroke-width:8.64"/>
	<line x1="1945.32" y1="2098.69" x2="1945.32" y2="258.30" style="stroke:#000000;stroke-opacity:0.20;stroke-width:8.64"/>
	<line x1="2055.42" y1="2098.69" x2="2055.42" y2="258.30" style="stroke:#000000;stroke-opacity:0.20;stroke-width:8.64"/>
	<line x1="2165.51" y1="2098.69" x2="2165.51" y2="258.30" style="stroke:#000000;stroke-opacity:0.20;stroke-width:8.64"/>
	<line x1="2275.61" y1="2098.69" x2="2275.61" y2="258.30" style="stroke:#000000;stroke-opacity:0.20;stroke-width:8.64"/>
	<line x1="2385.70" y1="2098.69" x2="2385.70" y2="258.30" style="stroke:#000000;stroke-opacity:0.20;stroke-width:8.64"/>
	<line x1="2495.80" y1="2098.69" x2="2495.80" y2="258.30" style="stroke:#000000;stroke-opacity:0.20;stroke-width:8.64"/>
	<line x1="2605.89" y1="2098.69" x2="2605.89" y2="258.30" style="stroke:#000000;stroke-opacity:0.20;stroke-width:8.64"/>
	<line x1="2715.99" y1="2098.69" x2="2715.99" y2="258.30" style="stroke:#000000;stroke-opacity:0.20;stroke-width:8.64"/>
	<line x1="2826.08" y1="2098.69" x2="2826.08" y2="258.30" style="stroke:#000000;stroke-opacity:0.20;stroke-width:8.64"/>
	<line x1="2936.18" y1="2098.69" x2="2936.18" y2="258.30" style="stroke:#000000;stroke-opacity:0.20;stroke-width:8.64"/>
	<line x1="3046.27" y1="2098.69" x2="3046.27" y2="258.30" style="stroke:#000000;stroke-opacity:0.20;stroke-width:8.64"/>
	<line x1="3156.37" y1="2098.69" x2="3156.37" y2="258.30" style="stroke:#000000;stroke-opacity:0.20;stroke-width:8.64"/>
	<line x1="3266.46" y1="2098.69" x2="3266.46" y2="258.30" style="stroke:#000000;stroke-opacity:0.20;stroke-width:8.64"/>
	<line x1="3376.56" y1="2098.69" x2="3376.56" y2="258.30" style="stroke:#000000;stroke-opacity:0.20;stroke-width:8.64"/>
	<line x1="3486.65" y1="2098.69" x2="3486.65" y2="258.30" style="stroke:#000000;stroke-opacity:0.20;stroke-width:8.64"/>
	<line x1="3596.59" y1="2098.69" x2="3596.59" y2="258.30" style="stroke:#000000;stroke-opacity:0.20;stroke-width:8.64"/>
	<line x1="3706.68" y1="2098.69" x2="3706.68" y2="258.30" style="stroke:#000000;stroke-opacity:0.20;stroke-width:8.64"/>
	<line x1="3816.78" y1="2098.69" x2="3816.78" y2="258.30" style="stroke:#000000;stroke-opacity:0.20;stroke-width:8.64"/>
	<line x1="3926.87" y1="2098.69" x2="3926.87" y2="258.30" style="stroke:#000000;stroke-opacity:0.20;stroke-width:8.64"/>
	<line x1="4036.97" y1="2098.69" x2="4036.97" y2="258.30" style="stroke:#000000;stroke-opacity:0.20;stroke-width:8.64"/>
	<rect x="1725.13" y="491.24" width="228.85" height="209.79" style="fill:#47A447;fill-opacity:0.40"/>
	<rect x="1729.45" y="495.56" width="220.21" height="201.15" style="fill:none;stroke:#198D19;stroke-opacity:0.40;stroke-width:8.64"/>
	<rect x="1725.13" y="724.34" width="447.78" height="209.63" style="fill:#47A447;fill-opacity:0.40"/>
	<rect x="1729.45" y="728.66" width="439.14" height="200.99" style="fill:none;stroke:#198D19;stroke-opacity:0.40;stroke-width:8.64"/>
	<rect x="1725.13" y="957.28" width="624.50" height="209.63" style="fill:#47A447;fill-opacity:0.40"/>
	<rect x="1729.45" y="961.60" width="615.86" height="200.99" style="fill:none;stroke:#198D19;stroke-opacity:0.40;stroke-width:8.64"/>
	<rect x="1725.13" y="1190.23" width="794.29" height="209.63" style="fill:#47A447;fill-opacity:0.40"/>
	<rect x="1729.45" y="1194.55" width="785.65" height="200.99" style="fill:none;stroke:#198D19;stroke-opacity:0.40;stroke-width:8.64"/>
	<rect x="1725.13" y="1423.17" width="947.22" height="209.63" style="fill:#47A447;fill-opacity:0.40"/>
	<rect x="1729.45" y="1427.49" width="938.58" height="200.99" style="fill:none;stroke:#198D19;stroke-opacity:0.40;stroke-width:8.64"/>
	<rect x="1725.13" y="1656.11" width="1087.25" height="209.63" style="fill:#47A447;fill-opacity:0.40"/>
	<rect x="1729.45" y="1660.43" width="1078.61" height="200.99" style="fill:none;stroke:#198D19;stroke-opacity:0.40;stroke-width:8.64"/>
	<rect x="1725.13" y="1889.05" width="1151.35" height="209.63" style="fill:#47A447;fill-opacity:0.40"/>
	<rect x="1729.45" y="1893.37" width="1142.71" height="200.99" style="fill:none;stroke:#198D19;stroke-opacity:0.40;stroke-width:8.64"/>
	<rect x="1725.13" y="258.30" width="228.85" height="209.63" style="fill:#FF3333;fill-opacity:0.60"/>
	<rect x="1729.45" y="262.62" width="220.21" height="200.99" style="fill:none;stroke:#FF0000;stroke-opacity:0.60;stroke-width:8.64"/>
	<rect x="1953.99" y="491.24" width="218.93" height="209.79" style="fill:#FF3333;fill-opacity:0.60"/>
	<rect x="1958.31" y="495.56" width="210.29" height="201.15" style="fill:none;stroke:#FF0000;stroke-opacity:0.60;stroke-width:8.64"/>
	<rect x="2172.92" y="724.34" width="176.72" height="209.63" style="fill:#FF3333;fill-opacity:0.60"/>
	<rect x="2177.24" y="728.66" width="168.08" height="200.99" style="fill:none;stroke:#FF0000;stroke-opacity:0.60;stroke-width:8.64"/>
	<rect x="2349.63" y="957.28" width="169.79" height="209.63" style="fill:#FF3333;fill-opacity:0.60"/>
	<rect x="2353.95" y="961.60" width="161.15" height="200.99" style="fill:none;stroke:#FF0000;stroke-opacity:0.60;stroke-width:8.64"/>
	<rect x="2519.42" y="1190.23" width="152.94" height="209.63" style="fill:#FF3333;fill-opacity:0.60"/>
	<rect x="2523.74" y="1194.55" width="144.30" height="200.99" style="fill:none;stroke:#FF0000;stroke-opacity:0.60;stroke-width:8.64"/>
	<rect x="2672.36" y="1423.17" width="140.02" height="209.63" style="fill:#FF3333;fill-opacity:0.60"/>
	<rect x="2676.68" y="1427.49" width="131.38" height="200.99" style="fill:none;stroke:#FF0000;stroke-opacity:0.60;stroke-width:8.64"/>
	<rect x="2812.38" y="1656.11" width="64.10" height="209.63" style="fill:#FF3333;fill-opacity:0.60"/>
	<rect x="2816.70" y="1660.43" width="55.46" height="200.99" style="fill:none;stroke:#FF0000;stroke-opacity:0.60;stroke-width:8.64"/>
	<rect x="2876.48" y="1889.05" width="47.88" height="209.63" style="fill:#FF3333;fill-opacity:0.60"/>
	<rect x="2880.80" y="1893.37" width="39.24" height="200.99" style="fill:none;stroke:#FF0000;stroke-opacity:0.60;stroke-width:8.64"/>
	<rect x="1953.99" y="258.30" width="2150.08" height="209.63" style="fill:#B8B8B8;fill-opacity:0.40"/>
	<rect x="1958.31" y="262.62" width="2141.44" height="200.99" style="fill:none;stroke:#A6A6A6;stroke-opacity:0.40;stroke-width:8.64"/>
	<rect x="2172.92" y="491.24" width="1931.15" height="209.79" style="fill:#B8B8B8;fill-opacity:0.40"/>
	<rect x="2177.24" y="495.56" width="1922.51" height="201.15" style="fill:none;stroke:#A6A6A6;stroke-opacity:0.40;stroke-width:8.64"/>
	<rect x="2349.63" y="724.34" width="1754.43" height="209.63" style="fill:#B8B8B8;fill-opacity:0.40"/>
	<rect x="2353.95" y="728.66" width="1745.79" height="200.99" style="fill:none;stroke:#A6A6A6;stroke-opacity:0.40;stroke-width:8.64"/>
	<rect x="2519.42" y="957.28" width="1584.64" height="209.63" style="fill:#B8B8B8;fill-opacity:0.40"/>
	<rect x="2523.74" y="961.60" width="1576.00" height="200.99" style="fill:none;stroke:#A6A6A6;stroke-opacity:0.40;stroke-width:8.64"/>
	<rect x="2672.36" y="1190.23" width="1431.70" height="209.63" style="fill:#B8B8B8;fill-opacity:0.40"/>
	<rect x="2676.68" y="1194.55" width="1423.06" height="200.99" style="fill:none;stroke:#A6A6A6;stroke-opacity:0.40;stroke-width:8.64"/>
	<rect x="2812.38" y="1423.17" width="1291.68" height="209.63" style="fill:#B8B8B8;fill-opacity:0.40"/>
	<rect x="2816.70" y="1427.49" width="1283.04" height="200.99" style="fill:none;stroke:#A6A6A6;stroke-opacity:0.40;stroke-width:8.64"/>
	<rect x="2876.48" y="1656.11" width="1227.58" height="209.63" style="fill:#B8B8B8;fill-opacity:0.40"/>
	<rect x="2880.80" y="1660.43" width="1218.94" height="200.99" style="fill:none;stroke:#A6A6A6;stroke-opacity:0.40;stroke-width:8.64"/>
	<rect x="2924.36" y="1889.05" width="1179.70" height="209.63" style="fill:#B8B8B8;fill-opacity:0.40"/>
	<rect x="2928.68" y="1893.37" width="1171.06" height="200.99" style="fill:none;stroke:#A6A6A6;stroke-opacity:0.40;stroke-width:8.64"/>
	<line x1="1725.13" y1="363.19" x2="1725.13" y2="363.19" style="stroke:#000000;stroke-width:8.64"/>
	<text x="1695.21" y="405.24" style="font-family:'Helvetica';font-weight:bold;font-size:120.02px;fill:#000000" text-anchor="end">Lower respiratory infections</text>
	<line x1="1725.13" y1="596.14" x2="1725.13" y2="596.14" style="stroke:#000000;stroke-width:8.64"/>
	<text x="1695.21" y="638.18" style="font-family:'Helvetica';font-size:120.02px;fill:#000000" text-anchor="end">+Tuberculosis</text>
	<line x1="1725.13" y1="829.08" x2="1725.13" y2="829.08" style="stroke:#000000;stroke-width:8.64"/>
	<text x="1695.21" y="871.12" style="font-family:'Helvetica';font-size:120.02px;fill:#000000" text-anchor="end">+HIV/AIDS</text>
	<line x1="1725.13" y1="1062.02" x2="1725.13" y2="1062.02" style="stroke:#000000;stroke-width:8.64"/>
	<text x="1695.21" y="1104.07" style="font-family:'Helvetica';font-size:120.02px;fill:#000000" text-anchor="end">+Neonatal conditions</text>
	<line x1="1725.13" y1="1294.97" x2="1725.13" y2="1294.97" style="stroke:#000000;stroke-width:8.64"/>
	<text x="1695.21" y="1337.01" style="font-family:'Helvetica';font-size:120.02px;fill:#000000" text-anchor="end">+Diarrheal diseases</text>
	<line x1="1725.13" y1="1528.07" x2="1725.13" y2="1528.07" style="stroke:#000000;stroke-width:8.64"/>
	<text x="1695.21" y="1570.11" style="font-family:'Helvetica';font-size:120.02px;fill:#000000" text-anchor="end">+Malaria</text>
	<line x1="1725.13" y1="1761.01" x2="1725.13" y2="1761.01" style="stroke:#000000;stroke-width:8.64"/>
	<text x="1695.21" y="1803.05" style="font-family:'Helvetica';font-size:120.02px;fill:#000000" text-anchor="end">+Maternal conditions</text>
	<line x1="1725.13" y1="1993.95" x2="1725.13" y2="1993.95" style="stroke:#000000;stroke-width:8.64"/>
	<text x="1695.21" y="2035.99" style="font-family:'Helvetica';font-size:120.02px;fill:#000000" text-anchor="end">+Childhood-cluster diseases</text>
	<line x1="1725.13" y1="2098.69" x2="4104.06" y2="2098.69" style="stroke:#000000;stroke-width:8.64"/>
	<line x1="1725.13" y1="2098.69" x2="1725.13" y2="2128.77" style="stroke:#000000;stroke-width:8.64"/>
	<line x1="1835.23" y1="2098.69" x2="1835.23" y2="2128.77" style="stroke:#000000;stroke-width:8.64"/>
	<line x1="1945.32" y1="2098.69" x2="1945.32" y2="2128.77" style="stroke:#000000;stroke-width:8.64"/>
	<line x1="2055.42" y1="2098.69" x2="2055.42" y2="2128.77" style="stroke:#000000;stroke-width:8.64"/>
	<line x1="2165.51" y1="2098.69" x2="2165.51" y2="2128.77" style="stroke:#000000;stroke-width:8.64"/>
	<line x1="2275.61" y1="2098.69" x2="2275.61" y2="2128.77" style="stroke:#000000;stroke-width:8.64"/>
	<line x1="2385.70" y1="2098.69" x2="2385.70" y2="2128.77" style="stroke:#000000;stroke-width:8.64"/>
	<line x1="2495.80" y1="2098.69" x2="2495.80" y2="2128.77" style="stroke:#000000;stroke-width:8.64"/>
	<line x1="2605.89" y1="2098.69" x2="2605.89" y2="2128.77" style="stroke:#000000;stroke-width:8.64"/>
	<line x1="2715.99" y1="2098.69" x2="2715.99" y2="2128.77" style="stroke:#000000;stroke-width:8.64"/>
	<line x1="2826.08" y1="2098.69" x2="2826.08" y2="2128.77" style="stroke:#000000;stroke-width:8.64"/>
	<line x1="2936.18" y1="2098.69" x2="2936.18" y2="2128.77" style="stroke:#000000;stroke-width:8.64"/>
	<line x1="3046.27" y1="2098.69" x2="3046.27" y2="2128.77" style="stroke:#000000;stroke-width:8.64"/>
	<line x1="3156.37" y1="2098.69" x2="3156.37" y2="2128.77" style="stroke:#000000;stroke-width:8.64"/>
	<line x1="3266.46" y1="2098.69" x2="3266.46" y2="2128.77" style="stroke:#000000;stroke-width:8.64"/>
	<line x1="3376.56" y1="2098.69" x2="3376.56" y2="2128.77" style="stroke:#000000;stroke-width:8.64"/>
	<line x1="3486.65" y1="2098.69" x2="3486.65" y2="2128.77" style="stroke:#000000;stroke-width:8.64"/>
	<line x1="3596.59" y1="2098.69" x2="3596.59" y2="2128.77" style="stroke:#000000;stroke-width:8.64"/>
	<line x1="3706.68" y1="2098.69" x2="3706.68" y2="2128.77" style="stroke:#000000;stroke-width:8.64"/>
	<line x1="3816.78" y1="2098.69" x2="3816.78" y2="2128.77" style="stroke:#000000;stroke-width:8.64"/>
	<line x1="3926.87" y1="2098.69" x2="3926.87" y2="2128.77" style="stroke:#000000;stroke-width:8.64"/>
	<line x1="4036.97" y1="2098.69" x2="4036.97" y2="2128.77" style="stroke:#000000;stroke-width:8.64"/>
	<line x1="1725.13" y1="2098.69" x2="1725.13" y2="2158.70" style="stroke:#000000;stroke-width:8.64"/>
	<text x="1725.13" y="2272.71" style="font-family:'Helvetica';font-size:120.02px;fill:#000000" text-anchor="middle">0</text>
	<line x1="1945.32" y1="2098.69" x2="1945.32" y2="2158.70" style="stroke:#000000;stroke-width:8.64"/>
	<text x="1945.32" y="2272.71" style="font-family:'Helvetica';font-size:120.02px;fill:#000000" text-anchor="middle">2</text>
	<line x1="2165.51" y1="2098.69" x2="2165.51" y2="2158.70" style="stroke:#000000;stroke-width:8.64"/>
	<text x="2165.51" y="2272.71" style="font-family:'Helvetica';font-size:120.02px;fill:#000000" text-anchor="middle">4</text>
	<line x1="2385.70" y1="2098.69" x2="2385.70" y2="2158.70" style="stroke:#000000;stroke-width:8.64"/>
	<text x="2385.70" y="2272.71" style="font-family:'Helvetica';font-size:120.02px;fill:#000000" text-anchor="middle">6</text>
	<line x1="2605.89" y1="2098.69" x2="2605.89" y2="2158.70" style="stroke:#000000;stroke-width:8.64"/>
	<text x="2605.89" y="2272.71" style="font-family:'Helvetica';font-size:120.02px;fill:#000000" text-anchor="middle">8</text>
	<line x1="2826.08" y1="2098.69" x2="2826.08" y2="2158.70" style="stroke:#000000;stroke-width:8.64"/>
	<text x="2826.08" y="2272.71" style="font-family:'Helvetica';font-size:120.02px;fill:#000000" text-anchor="middle">10</text>
	<line x1="3046.27" y1="2098.69" x2="3046.27" y2="2158.70" style="stroke:#000000;stroke-width:8.64"/>
	<text x="3046.27" y="2272.71" style="font-family:'Helvetica';font-size:120.02px;fill:#000000" text-anchor="middle">12</text>
	<line x1="3266.46" y1="2098.69" x2="3266.46" y2="2158.70" style="stroke:#000000;stroke-width:8.64"/>
	<text x="3266.46" y="2272.71" style="font-family:'Helvetica';font-size:120.02px;fill:#000000" text-anchor="middle">14</text>
	<line x1="3486.65" y1="2098.69" x2="3486.65" y2="2158.70" style="stroke:#000000;stroke-width:8.64"/>
	<text x="3486.65" y="2272.71" style="font-family:'Helvetica';font-size:120.02px;fill:#000000" text-anchor="middle">16</text>
	<line x1="3706.68" y1="2098.69" x2="3706.68" y2="2158.70" style="stroke:#000000;stroke-width:8.64"/>
	<text x="3706.68" y="2272.71" style="font-family:'Helvetica';font-size:120.02px;fill:#000000" text-anchor="middle">18</text>
	<line x1="3926.87" y1="2098.69" x2="3926.87" y2="2158.70" style="stroke:#000000;stroke-width:8.64"/>
	<text x="3926.87" y="2272.71" style="font-family:'Helvetica';font-size:120.02px;fill:#000000" text-anchor="middle">20</text>
	<text x="1751.12" y="196.39" style="font-family:'Helvetica';font-size:120.02px;fill:#000000">Panel A — Sub-Saharan Africa</text>
	<rect x="0.00" y="2440.15" width="4320.00" height="2439.99" style="fill:#F0F0F0"/>
	<rect x="4.32" y="2444.47" width="4311.36" height="2431.35" style="fill:none;stroke:#F0F0F0;stroke-width:8.64"/>
	<rect x="1634.25" y="2698.29" width="2469.81" height="1840.55" style="fill:#F0F0F0"/>
	<rect x="1638.57" y="2702.61" width="2461.17" height="1831.90" style="fill:none;stroke:#F0F0F0;stroke-width:8.64"/>
	<line x1="1634.25" y1="4538.84" x2="1634.25" y2="2698.29" style="stroke:#000000;stroke-opacity:0.20;stroke-width:8.64"/>
	<line x1="1848.93" y1="4538.84" x2="1848.93" y2="2698.29" style="stroke:#000000;stroke-opacity:0.20;stroke-width:8.64"/>
	<line x1="2063.77" y1="4538.84" x2="2063.77" y2="2698.29" style="stroke:#000000;stroke-opacity:0.20;stroke-width:8.64"/>
	<line x1="2278.44" y1="4538.84" x2="2278.44" y2="2698.29" style="stroke:#000000;stroke-opacity:0.20;stroke-width:8.64"/>
	<line x1="2493.28" y1="4538.84" x2="2493.28" y2="2698.29" style="stroke:#000000;stroke-opacity:0.20;stroke-width:8.64"/>
	<line x1="2707.95" y1="4538.84" x2="2707.95" y2="2698.29" style="stroke:#000000;stroke-opacity:0.20;stroke-width:8.64"/>
	<line x1="2922.79" y1="4538.84" x2="2922.79" y2="2698.29" style="stroke:#000000;stroke-opacity:0.20;stroke-width:8.64"/>
	<line x1="3137.47" y1="4538.84" x2="3137.47" y2="2698.29" style="stroke:#000000;stroke-opacity:0.20;stroke-width:8.64"/>
	<line x1="3352.30" y1="4538.84" x2="3352.30" y2="2698.29" style="stroke:#000000;stroke-opacity:0.20;stroke-width:8.64"/>
	<line x1="3567.13" y1="4538.84" x2="3567.13" y2="2698.29" style="stroke:#000000;stroke-opacity:0.20;stroke-width:8.64"/>
	<line x1="3781.81" y1="4538.84" x2="3781.81" y2="2698.29" style="stroke:#000000;stroke-opacity:0.20;stroke-width:8.64"/>
	<line x1="3996.65" y1="4538.84" x2="3996.65" y2="2698.29" style="stroke:#000000;stroke-opacity:0.20;stroke-width:8.64"/>
	<rect x="1634.25" y="2698.29" width="0.00" height="209.79" style="fill:#47A447;fill-opacity:0.40"/>
	<rect x="1638.57" y="2702.61" width="-8.64" height="201.15" style="fill:none;stroke:#198D19;stroke-opacity:0.40;stroke-width:8.64"/>
	<rect x="1634.25" y="2931.39" width="213.26" height="209.63" style="fill:#47A447;fill-opacity:0.40"/>
	<rect x="1638.57" y="2935.71" width="204.62" height="200.99" style="fill:none;stroke:#198D19;stroke-opacity:0.40;stroke-width:8.64"/>
	<rect x="1634.25" y="3164.33" width="413.92" height="209.63" style="fill:#47A447;fill-opacity:0.40"/>
	<rect x="1638.57" y="3168.65" width="405.28" height="200.99" style="fill:none;stroke:#198D19;stroke-opacity:0.40;stroke-width:8.64"/>
	<rect x="1634.25" y="3397.28" width="555.67" height="209.63" style="fill:#47A447;fill-opacity:0.40"/>
	<rect x="1638.57" y="3401.60" width="547.03" height="200.99" style="fill:none;stroke:#198D19;stroke-opacity:0.40;stroke-width:8.64"/>
	<rect x="1634.25" y="3630.22" width="673.33" height="209.63" style="fill:#47A447;fill-opacity:0.40"/>
	<rect x="1638.57" y="3634.54" width="664.69" height="200.99" style="fill:none;stroke:#198D19;stroke-opacity:0.40;stroke-width:8.64"/>
	<rect x="1634.25" y="3863.16" width="697.27" height="209.63" style="fill:#47A447;fill-opacity:0.40"/>
	<rect x="1638.57" y="3867.48" width="688.63" height="200.99" style="fill:none;stroke:#198D19;stroke-opacity:0.40;stroke-width:8.64"/>
	<rect x="1634.25" y="4096.10" width="712.70" height="209.79" style="fill:#47A447;fill-opacity:0.40"/>
	<rect x="1638.57" y="4100.42" width="704.06" height="201.15" style="fill:none;stroke:#198D19;stroke-opacity:0.40;stroke-width:8.64"/>
	<rect x="1634.25" y="4329.05" width="722.15" height="209.79" style="fill:#47A447;fill-opacity:0.40"/>
	<rect x="1638.57" y="4333.36" width="713.51" height="201.15" style="fill:none;stroke:#198D19;stroke-opacity:0.40;stroke-width:8.64"/>
	<rect x="1634.25" y="2698.29" width="213.26" height="209.79" style="fill:#FF3333;fill-opacity:0.60"/>
	<rect x="1638.57" y="2702.61" width="204.62" height="201.15" style="fill:none;stroke:#FF0000;stroke-opacity:0.60;stroke-width:8.64"/>
	<rect x="1847.51" y="2931.39" width="200.66" height="209.63" style="fill:#FF3333;fill-opacity:0.60"/>
	<rect x="1851.83" y="2935.71" width="192.02" height="200.99" style="fill:none;stroke:#FF0000;stroke-opacity:0.60;stroke-width:8.64"/>
	<rect x="2048.17" y="3164.33" width="141.75" height="209.63" style="fill:#FF3333;fill-opacity:0.60"/>
	<rect x="2052.49" y="3168.65" width="133.11" height="200.99" style="fill:none;stroke:#FF0000;stroke-opacity:0.60;stroke-width:8.64"/>
	<rect x="2189.93" y="3397.28" width="117.65" height="209.63" style="fill:#FF3333;fill-opacity:0.60"/>
	<rect x="2194.25" y="3401.60" width="109.01" height="200.99" style="fill:none;stroke:#FF0000;stroke-opacity:0.60;stroke-width:8.64"/>
	<rect x="2307.58" y="3630.22" width="23.94" height="209.63" style="fill:#FF3333;fill-opacity:0.60"/>
	<rect x="2311.90" y="3634.54" width="15.30" height="200.99" style="fill:none;stroke:#FF0000;stroke-opacity:0.60;stroke-width:8.64"/>
	<rect x="2331.52" y="3863.16" width="15.44" height="209.63" style="fill:#FF3333;fill-opacity:0.60"/>
	<rect x="2335.84" y="3867.48" width="6.80" height="200.99" style="fill:none;stroke:#FF0000;stroke-opacity:0.60;stroke-width:8.64"/>
	<rect x="2346.96" y="4096.10" width="9.45" height="209.79" style="fill:#FF3333;fill-opacity:0.60"/>
	<rect x="2351.28" y="4100.42" width="0.81" height="201.15" style="fill:none;stroke:#FF0000;stroke-opacity:0.60;stroke-width:8.64"/>
	<rect x="2356.41" y="4329.05" width="3.78" height="209.79" style="fill:#FF3333;fill-opacity:0.60"/>
	<rect x="2360.73" y="4333.36" width="-4.86" height="201.15" style="fill:none;stroke:#FF0000;stroke-opacity:0.60;stroke-width:8.64"/>
	<rect x="1847.51" y="2698.29" width="2256.55" height="209.79" style="fill:#B8B8B8;fill-opacity:0.40"/>
	<rect x="1851.83" y="2702.61" width="2247.91" height="201.15" style="fill:none;stroke:#A6A6A6;stroke-opacity:0.40;stroke-width:8.64"/>
	<rect x="2048.17" y="2931.39" width="2055.89" height="209.63" style="fill:#B8B8B8;fill-opacity:0.40"/>
	<rect x="2052.49" y="2935.71" width="2047.25" height="200.99" style="fill:none;stroke:#A6A6A6;stroke-opacity:0.40;stroke-width:8.64"/>
	<rect x="2189.93" y="3164.33" width="1914.14" height="209.63" style="fill:#B8B8B8;fill-opacity:0.40"/>
	<rect x="2194.25" y="3168.65" width="1905.50" height="200.99" style="fill:none;stroke:#A6A6A6;stroke-opacity:0.40;stroke-width:8.64"/>
	<rect x="2307.58" y="3397.28" width="1796.48" height="209.63" style="fill:#B8B8B8;fill-opacity:0.40"/>
	<rect x="2311.90" y="3401.60" width="1787.84" height="200.99" style="fill:none;stroke:#A6A6A6;stroke-opacity:0.40;stroke-width:8.64"/>
	<rect x="2331.52" y="3630.22" width="1772.54" height="209.63" style="fill:#B8B8B8;fill-opacity:0.40"/>
	<rect x="2335.84" y="3634.54" width="1763.90" height="200.99" style="fill:none;stroke:#A6A6A6;stroke-opacity:0.40;stroke-width:8.64"/>
	<rect x="2346.96" y="3863.16" width="1757.11" height="209.63" style="fill:#B8B8B8;fill-opacity:0.40"/>
	<rect x="2351.28" y="3867.48" width="1748.47" height="200.99" style="fill:none;stroke:#A6A6A6;stroke-opacity:0.40;stroke-width:8.64"/>
	<rect x="2356.41" y="4096.10" width="1747.66" height="209.79" style="fill:#B8B8B8;fill-opacity:0.40"/>
	<rect x="2360.73" y="4100.42" width="1739.02" height="201.15" style="fill:none;stroke:#A6A6A6;stroke-opacity:0.40;stroke-width:8.64"/>
	<rect x="2360.19" y="4329.05" width="1743.88" height="209.79" style="fill:#B8B8B8;fill-opacity:0.40"/>
	<rect x="2364.51" y="4333.36" width="1735.24" height="201.15" style="fill:none;stroke:#A6A6A6;stroke-opacity:0.40;stroke-width:8.64"/>
	<line x1="1634.25" y1="2803.18" x2="1634.25" y2="2803.18" style="stroke:#000000;stroke-width:8.64"/>
	<text x="1604.17" y="2845.23" style="font-family:'Helvetica';font-weight:bold;font-size:120.02px;fill:#000000" text-anchor="end">Neonatal conditions</text>
	<line x1="1634.25" y1="3036.13" x2="1634.25" y2="3036.13" style="stroke:#000000;stroke-width:8.64"/>
	<text x="1604.17" y="3078.17" style="font-family:'Helvetica';font-size:120.02px;fill:#000000" text-anchor="end">+Diarrheal diseases</text>
	<line x1="1634.25" y1="3269.07" x2="1634.25" y2="3269.07" style="stroke:#000000;stroke-width:8.64"/>
	<text x="1604.17" y="3311.11" style="font-family:'Helvetica';font-size:120.02px;fill:#000000" text-anchor="end">+Lower respiratory infections</text>
	<line x1="1634.25" y1="3502.17" x2="1634.25" y2="3502.17" style="stroke:#000000;stroke-width:8.64"/>
	<text x="1604.17" y="3544.21" style="font-family:'Helvetica';font-size:120.02px;fill:#000000" text-anchor="end">+Tuberculosis</text>
	<line x1="1634.25" y1="3735.11" x2="1634.25" y2="3735.11" style="stroke:#000000;stroke-width:8.64"/>
	<text x="1604.17" y="3777.16" style="font-family:'Helvetica';font-size:120.02px;fill:#000000" text-anchor="end">+Childhood-cluster diseases</text>
	<line x1="1634.25" y1="3968.06" x2="1634.25" y2="3968.06" style="stroke:#000000;stroke-width:8.64"/>
	<text x="1604.17" y="4010.10" style="font-family:'Helvetica';font-size:120.02px;fill:#000000" text-anchor="end">+HIV/AIDS</text>
	<line x1="1634.25" y1="4201.00" x2="1634.25" y2="4201.00" style="stroke:#000000;stroke-width:8.64"/>
	<text x="1604.17" y="4243.04" style="font-family:'Helvetica';font-size:120.02px;fill:#000000" text-anchor="end">+Maternal conditions</text>
	<line x1="1634.25" y1="4433.94" x2="1634.25" y2="4433.94" style="stroke:#000000;stroke-width:8.64"/>
	<text x="1604.17" y="4475.98" style="font-family:'Helvetica';font-size:120.02px;fill:#000000" text-anchor="end">+Malaria</text>
	<line x1="1634.25" y1="4538.84" x2="4104.06" y2="4538.84" style="stroke:#000000;stroke-width:8.64"/>
	<line x1="1634.25" y1="4538.84" x2="1634.25" y2="4568.76" style="stroke:#000000;stroke-width:8.64"/>
	<line x1="1848.93" y1="4538.84" x2="1848.93" y2="4568.76" style="stroke:#000000;stroke-width:8.64"/>
	<line x1="2063.77" y1="4538.84" x2="2063.77" y2="4568.76" style="stroke:#000000;stroke-width:8.64"/>
	<line x1="2278.44" y1="4538.84" x2="2278.44" y2="4568.76" style="stroke:#000000;stroke-width:8.64"/>
	<line x1="2493.28" y1="4538.84" x2="2493.28" y2="4568.76" style="stroke:#000000;stroke-width:8.64"/>
	<line x1="2707.95" y1="4538.84" x2="2707.95" y2="4568.76" style="stroke:#000000;stroke-width:8.64"/>
	<line x1="2922.79" y1="4538.84" x2="2922.79" y2="4568.76" style="stroke:#000000;stroke-width:8.64"/>
	<line x1="3137.47" y1="4538.84" x2="3137.47" y2="4568.76" style="stroke:#000000;stroke-width:8.64"/>
	<line x1="3352.30" y1="4538.84" x2="3352.30" y2="4568.76" style="stroke:#000000;stroke-width:8.64"/>
	<line x1="3567.13" y1="4538.84" x2="3567.13" y2="4568.76" style="stroke:#000000;stroke-width:8.64"/>
	<line x1="3781.81" y1="4538.84" x2="3781.81" y2="4568.76" style="stroke:#000000;stroke-width:8.64"/>
	<line x1="3996.65" y1="4538.84" x2="3996.65" y2="4568.76" style="stroke:#000000;stroke-width:8.64"/>
	<line x1="1634.25" y1="4538.84" x2="1634.25" y2="4598.84" style="stroke:#000000;stroke-width:8.64"/>
	<text x="1634.25" y="4712.70" style="font-family:'Helvetica';font-size:120.02px;fill:#000000" text-anchor="middle">0</text>
	<line x1="2063.77" y1="4538.84" x2="2063.77" y2="4598.84" style="stroke:#000000;stroke-width:8.64"/>
	<text x="2063.77" y="4712.70" style="font-family:'Helvetica';font-size:120.02px;fill:#000000" text-anchor="middle">2</text>
	<line x1="2493.28" y1="4538.84" x2="2493.28" y2="4598.84" style="stroke:#000000;stroke-width:8.64"/>
	<text x="2493.28" y="4712.70" style="font-family:'Helvetica';font-size:120.02px;fill:#000000" text-anchor="middle">4</text>
	<line x1="2922.79" y1="4538.84" x2="2922.79" y2="4598.84" style="stroke:#000000;stroke-width:8.64"/>
	<text x="2922.79" y="4712.70" style="font-family:'Helvetica';font-size:120.02px;fill:#000000" text-anchor="middle">6</text>
	<line x1="3352.30" y1="4538.84" x2="3352.30" y2="4598.84" style="stroke:#000000;stroke-width:8.64"/>
	<text x="3352.30" y="4712.70" style="font-family:'Helvetica';font-size:120.02px;fill:#000000" text-anchor="middle">8</text>
	<line x1="3781.81" y1="4538.84" x2="3781.81" y2="4598.84" style="stroke:#000000;stroke-width:8.64"/>
	<text x="3781.81" y="4712.70" style="font-family:'Helvetica';font-size:120.02px;fill:#000000" text-anchor="middle">10</text>
	<text x="1660.08" y="2636.38" style="font-family:'Helvetica';font-size:120.02px;fill:#000000">Panel B — India</text>
	<text x="2160.00" y="4934.77" style="font-family:'Helvetica';font-size:120.02px;fill:#000000" text-anchor="middle">                               Life expectancy gap accounted for, years</text>
</svg>
