<?xml version="1.0" encoding="UTF-8" standalone="no"?>
<!-- This is a Stata 16.0 generated SVG file (http://www.stata.com) -->

<svg version="1.1" width="6.00in" height="7.00in" viewBox="0 0 4320 5040" xmlns="http://www.w3.org/2000/svg" xmlns:xlink="http://www.w3.org/1999/xlink">
	<desc>Stata Graph - Graph</desc>
	<rect x="0" y="0" width="4320" height="5040" style="fill:#EAF2F3;stroke:none"/>
	<rect x="0.00" y="0.16" width="4320.00" height="5039.84" style="fill:#F0F0F0"/>
	<rect x="4.32" y="4.48" width="4311.36" height="5031.20" style="fill:none;stroke:#F0F0F0;stroke-width:8.64"/>
	<rect x="0.00" y="0.16" width="4320.00" height="4879.98" style="fill:#F0F0F0"/>
	<rect x="4.32" y="4.48" width="4311.36" height="4871.34" style="fill:none;stroke:#F0F0F0;stroke-width:8.64"/>
	<rect x="0.00" y="0.16" width="4320.00" height="2439.99" style="fill:#FFFFFF"/>
	<rect x="4.32" y="4.48" width="4311.36" height="2431.35" style="fill:none;stroke:#FFFFFF;stroke-width:8.64"/>
	<rect x="1392.64" y="258.30" width="2711.42" height="1840.39" style="fill:#FFFFFF"/>
	<rect x="1396.96" y="262.62" width="2702.78" height="1831.75" style="fill:none;stroke:#FFFFFF;stroke-width:8.64"/>
	<line x1="1392.64" y1="2098.69" x2="1392.64" y2="258.30" style="stroke:#000000;stroke-opacity:0.20;stroke-width:8.64"/>
	<line x1="1628.43" y1="2098.69" x2="1628.43" y2="258.30" style="stroke:#000000;stroke-opacity:0.20;stroke-width:8.64"/>
	<line x1="1864.21" y1="2098.69" x2="1864.21" y2="258.30" style="stroke:#000000;stroke-opacity:0.20;stroke-width:8.64"/>
	<line x1="2099.99" y1="2098.69" x2="2099.99" y2="258.30" style="stroke:#000000;stroke-opacity:0.20;stroke-width:8.64"/>
	<line x1="2335.77" y1="2098.69" x2="2335.77" y2="258.30" style="stroke:#000000;stroke-opacity:0.20;stroke-width:8.64"/>
	<line x1="2571.56" y1="2098.69" x2="2571.56" y2="258.30" style="stroke:#000000;stroke-opacity:0.20;stroke-width:8.64"/>
	<line x1="2807.34" y1="2098.69" x2="2807.34" y2="258.30" style="stroke:#000000;stroke-opacity:0.20;stroke-width:8.64"/>
	<line x1="3042.96" y1="2098.69" x2="3042.96" y2="258.30" style="stroke:#000000;stroke-opacity:0.20;stroke-width:8.64"/>
	<line x1="3278.75" y1="2098.69" x2="3278.75" y2="258.30" style="stroke:#000000;stroke-opacity:0.20;stroke-width:8.64"/>
	<line x1="3514.53" y1="2098.69" x2="3514.53" y2="258.30" style="stroke:#000000;stroke-opacity:0.20;stroke-width:8.64"/>
	<line x1="3750.31" y1="2098.69" x2="3750.31" y2="258.30" style="stroke:#000000;stroke-opacity:0.20;stroke-width:8.64"/>
	<line x1="3986.09" y1="2098.69" x2="3986.09" y2="258.30" style="stroke:#000000;stroke-opacity:0.20;stroke-width:8.64"/>
	<rect x="1392.64" y="258.30" width="0.00" height="240.03" style="fill:#3399FF;fill-opacity:0.40"/>
	<rect x="1396.96" y="262.62" width="-8.64" height="231.39" style="fill:none;stroke:#0080FF;stroke-opacity:0.40;stroke-width:8.64"/>
	<rect x="1392.64" y="525.10" width="493.77" height="240.03" style="fill:#3399FF;fill-opacity:0.40"/>
	<rect x="1396.96" y="529.42" width="485.13" height="231.39" style="fill:none;stroke:#0080FF;stroke-opacity:0.40;stroke-width:8.64"/>
	<rect x="1392.64" y="791.75" width="862.33" height="240.03" style="fill:#3399FF;fill-opacity:0.40"/>
	<rect x="1396.96" y="796.07" width="853.69" height="231.39" style="fill:none;stroke:#0080FF;stroke-opacity:0.40;stroke-width:8.64"/>
	<rect x="1392.64" y="1058.56" width="999.20" height="240.03" style="fill:#3399FF;fill-opacity:0.40"/>
	<rect x="1396.96" y="1062.88" width="990.56" height="231.39" style="fill:none;stroke:#0080FF;stroke-opacity:0.40;stroke-width:8.64"/>
	<rect x="1392.64" y="1325.20" width="1114.34" height="240.03" style="fill:#3399FF;fill-opacity:0.40"/>
	<rect x="1396.96" y="1329.52" width="1105.70" height="231.39" style="fill:none;stroke:#0080FF;stroke-opacity:0.40;stroke-width:8.64"/>
	<rect x="1392.64" y="1592.01" width="1228.68" height="240.03" style="fill:#3399FF;fill-opacity:0.40"/>
	<rect x="1396.96" y="1596.33" width="1220.04" height="231.39" style="fill:none;stroke:#0080FF;stroke-opacity:0.40;stroke-width:8.64"/>
	<rect x="1392.64" y="1858.66" width="1293.89" height="240.03" style="fill:#3399FF;fill-opacity:0.40"/>
	<rect x="1396.96" y="1862.98" width="1285.25" height="231.39" style="fill:none;stroke:#0080FF;stroke-opacity:0.40;stroke-width:8.64"/>
	<rect x="1392.64" y="258.30" width="493.77" height="240.03" style="fill:#FF3333;fill-opacity:0.60"/>
	<rect x="1396.96" y="262.62" width="485.13" height="231.39" style="fill:none;stroke:#FF0000;stroke-opacity:0.60;stroke-width:8.64"/>
	<rect x="1886.42" y="525.10" width="368.56" height="240.03" style="fill:#FF3333;fill-opacity:0.60"/>
	<rect x="1890.74" y="529.42" width="359.92" height="231.39" style="fill:none;stroke:#FF0000;stroke-opacity:0.60;stroke-width:8.64"/>
	<rect x="2254.97" y="791.75" width="136.87" height="240.03" style="fill:#FF3333;fill-opacity:0.60"/>
	<rect x="2259.29" y="796.07" width="128.23" height="231.39" style="fill:none;stroke:#FF0000;stroke-opacity:0.60;stroke-width:8.64"/>
	<rect x="2391.84" y="1058.56" width="115.13" height="240.03" style="fill:#FF3333;fill-opacity:0.60"/>
	<rect x="2396.16" y="1062.88" width="106.49" height="231.39" style="fill:none;stroke:#FF0000;stroke-opacity:0.60;stroke-width:8.64"/>
	<rect x="2506.98" y="1325.20" width="114.35" height="240.03" style="fill:#FF3333;fill-opacity:0.60"/>
	<rect x="2511.30" y="1329.52" width="105.71" height="231.39" style="fill:none;stroke:#FF0000;stroke-opacity:0.60;stroke-width:8.64"/>
	<rect x="2621.33" y="1592.01" width="65.21" height="240.03" style="fill:#FF3333;fill-opacity:0.60"/>
	<rect x="2625.65" y="1596.33" width="56.57" height="231.39" style="fill:none;stroke:#FF0000;stroke-opacity:0.60;stroke-width:8.64"/>
	<rect x="2686.53" y="1858.66" width="34.34" height="240.03" style="fill:#FF3333;fill-opacity:0.60"/>
	<rect x="2690.85" y="1862.98" width="25.70" height="231.39" style="fill:none;stroke:#FF0000;stroke-opacity:0.60;stroke-width:8.64"/>
	<rect x="1886.42" y="258.30" width="2217.65" height="240.03" style="fill:#B8B8B8;fill-opacity:0.40"/>
	<rect x="1890.74" y="262.62" width="2209.01" height="231.39" style="fill:none;stroke:#A6A6A6;stroke-opacity:0.40;stroke-width:8.64"/>
	<rect x="2254.97" y="525.10" width="1849.09" height="240.03" style="fill:#B8B8B8;fill-opacity:0.40"/>
	<rect x="2259.29" y="529.42" width="1840.45" height="231.39" style="fill:none;stroke:#A6A6A6;stroke-opacity:0.40;stroke-width:8.64"/>
	<rect x="2391.84" y="791.75" width="1712.22" height="240.03" style="fill:#B8B8B8;fill-opacity:0.40"/>
	<rect x="2396.16" y="796.07" width="1703.58" height="231.39" style="fill:none;stroke:#A6A6A6;stroke-opacity:0.40;stroke-width:8.64"/>
	<rect x="2506.98" y="1058.56" width="1597.08" height="240.03" style="fill:#B8B8B8;fill-opacity:0.40"/>
	<rect x="2511.30" y="1062.88" width="1588.44" height="231.39" style="fill:none;stroke:#A6A6A6;stroke-opacity:0.40;stroke-width:8.64"/>
	<rect x="2621.33" y="1325.20" width="1482.74" height="240.03" style="fill:#B8B8B8;fill-opacity:0.40"/>
	<rect x="2625.65" y="1329.52" width="1474.10" height="231.39" style="fill:none;stroke:#A6A6A6;stroke-opacity:0.40;stroke-width:8.64"/>
	<rect x="2686.53" y="1592.01" width="1417.53" height="240.03" style="fill:#B8B8B8;fill-opacity:0.40"/>
	<rect x="2690.85" y="1596.33" width="1408.89" height="231.39" style="fill:none;stroke:#A6A6A6;stroke-opacity:0.40;stroke-width:8.64"/>
	<rect x="2720.87" y="1858.66" width="1383.19" height="240.03" style="fill:#B8B8B8;fill-opacity:0.40"/>
	<rect x="2725.19" y="1862.98" width="1374.55" height="231.39" style="fill:none;stroke:#A6A6A6;stroke-opacity:0.40;stroke-width:8.64"/>
	<line x1="1392.64" y1="378.31" x2="1392.64" y2="378.31" style="stroke:#000000;stroke-width:8.64"/>
	<text x="1362.72" y="420.36" style="font-family:'Helvetica';font-weight:bold;font-size:120.02px;fill:#000000" text-anchor="end">Atherosclerotic CVDs</text>
	<line x1="1392.64" y1="645.12" x2="1392.64" y2="645.12" style="stroke:#000000;stroke-width:8.64"/>
	<text x="1362.72" y="687.16" style="font-family:'Helvetica';font-size:120.02px;fill:#000000" text-anchor="end">+Tobacco-related NCDs</text>
	<line x1="1392.64" y1="911.77" x2="1392.64" y2="911.77" style="stroke:#000000;stroke-width:8.64"/>
	<text x="1362.72" y="953.81" style="font-family:'Helvetica';font-size:120.02px;fill:#000000" text-anchor="end">+Hemorrhagic stroke</text>
	<line x1="1392.64" y1="1178.57" x2="1392.64" y2="1178.57" style="stroke:#000000;stroke-width:8.64"/>
	<text x="1362.72" y="1220.62" style="font-family:'Helvetica';font-size:120.02px;fill:#000000" text-anchor="end">+Diabetes</text>
	<line x1="1392.64" y1="1445.22" x2="1392.64" y2="1445.22" style="stroke:#000000;stroke-width:8.64"/>
	<text x="1362.72" y="1487.26" style="font-family:'Helvetica';font-size:120.02px;fill:#000000" text-anchor="end">+Infection-related NCDs</text>
	<line x1="1392.64" y1="1712.03" x2="1392.64" y2="1712.03" style="stroke:#000000;stroke-width:8.64"/>
	<text x="1362.72" y="1754.07" style="font-family:'Helvetica';font-size:120.02px;fill:#000000" text-anchor="end">+Road injury</text>
	<line x1="1392.64" y1="1978.67" x2="1392.64" y2="1978.67" style="stroke:#000000;stroke-width:8.64"/>
	<text x="1362.72" y="2020.72" style="font-family:'Helvetica';font-size:120.02px;fill:#000000" text-anchor="end">+Suicide</text>
	<line x1="1392.64" y1="2098.69" x2="4104.06" y2="2098.69" style="stroke:#000000;stroke-width:8.64"/>
	<line x1="1392.64" y1="2098.69" x2="1392.64" y2="2128.77" style="stroke:#000000;stroke-width:8.64"/>
	<line x1="1628.43" y1="2098.69" x2="1628.43" y2="2128.77" style="stroke:#000000;stroke-width:8.64"/>
	<line x1="1864.21" y1="2098.69" x2="1864.21" y2="2128.77" style="stroke:#000000;stroke-width:8.64"/>
	<line x1="2099.99" y1="2098.69" x2="2099.99" y2="2128.77" style="stroke:#000000;stroke-width:8.64"/>
	<line x1="2335.77" y1="2098.69" x2="2335.77" y2="2128.77" style="stroke:#000000;stroke-width:8.64"/>
	<line x1="2571.56" y1="2098.69" x2="2571.56" y2="2128.77" style="stroke:#000000;stroke-width:8.64"/>
	<line x1="2807.34" y1="2098.69" x2="2807.34" y2="2128.77" style="stroke:#000000;stroke-width:8.64"/>
	<line x1="3042.96" y1="2098.69" x2="3042.96" y2="2128.77" style="stroke:#000000;stroke-width:8.64"/>
	<line x1="3278.75" y1="2098.69" x2="3278.75" y2="2128.77" style="stroke:#000000;stroke-width:8.64"/>
	<line x1="3514.53" y1="2098.69" x2="3514.53" y2="2128.77" style="stroke:#000000;stroke-width:8.64"/>
	<line x1="3750.31" y1="2098.69" x2="3750.31" y2="2128.77" style="stroke:#000000;stroke-width:8.64"/>
	<line x1="3986.09" y1="2098.69" x2="3986.09" y2="2128.77" style="stroke:#000000;stroke-width:8.64"/>
	<line x1="1392.64" y1="2098.69" x2="1392.64" y2="2158.70" style="stroke:#000000;stroke-width:8.64"/>
	<text x="1392.64" y="2272.71" style="font-family:'Helvetica';font-size:120.02px;fill:#000000" text-anchor="middle">0</text>
	<line x1="1864.21" y1="2098.69" x2="1864.21" y2="2158.70" style="stroke:#000000;stroke-width:8.64"/>
	<text x="1864.21" y="2272.71" style="font-family:'Helvetica';font-size:120.02px;fill:#000000" text-anchor="middle">2</text>
	<line x1="2335.77" y1="2098.69" x2="2335.77" y2="2158.70" style="stroke:#000000;stroke-width:8.64"/>
	<text x="2335.77" y="2272.71" style="font-family:'Helvetica';font-size:120.02px;fill:#000000" text-anchor="middle">4</text>
	<line x1="2807.34" y1="2098.69" x2="2807.34" y2="2158.70" style="stroke:#000000;stroke-width:8.64"/>
	<text x="2807.34" y="2272.71" style="font-family:'Helvetica';font-size:120.02px;fill:#000000" text-anchor="middle">6</text>
	<line x1="3278.75" y1="2098.69" x2="3278.75" y2="2158.70" style="stroke:#000000;stroke-width:8.64"/>
	<text x="3278.75" y="2272.71" style="font-family:'Helvetica';font-size:120.02px;fill:#000000" text-anchor="middle">8</text>
	<line x1="3750.31" y1="2098.69" x2="3750.31" y2="2158.70" style="stroke:#000000;stroke-width:8.64"/>
	<text x="3750.31" y="2272.71" style="font-family:'Helvetica';font-size:120.02px;fill:#000000" text-anchor="middle">10</text>
	<text x="1418.63" y="196.39" style="font-family:'Helvetica';font-size:120.02px;fill:#000000">Panel A — India</text>
	<rect x="0.00" y="2440.15" width="4320.00" height="2439.99" style="fill:#F0F0F0"/>
	<rect x="4.32" y="2444.47" width="4311.36" height="2431.35" style="fill:none;stroke:#F0F0F0;stroke-width:8.64"/>
	<rect x="1392.64" y="2698.29" width="2711.42" height="1840.55" style="fill:#F0F0F0"/>
	<rect x="1396.96" y="2702.61" width="2702.78" height="1831.90" style="fill:none;stroke:#F0F0F0;stroke-width:8.64"/>
	<line x1="1392.64" y1="4538.84" x2="1392.64" y2="2698.29" style="stroke:#000000;stroke-opacity:0.20;stroke-width:8.64"/>
	<line x1="2024.39" y1="4538.84" x2="2024.39" y2="2698.29" style="stroke:#000000;stroke-opacity:0.20;stroke-width:8.64"/>
	<line x1="2655.98" y1="4538.84" x2="2655.98" y2="2698.29" style="stroke:#000000;stroke-opacity:0.20;stroke-width:8.64"/>
	<line x1="3287.57" y1="4538.84" x2="3287.57" y2="2698.29" style="stroke:#000000;stroke-opacity:0.20;stroke-width:8.64"/>
	<line x1="3919.15" y1="4538.84" x2="3919.15" y2="2698.29" style="stroke:#000000;stroke-opacity:0.20;stroke-width:8.64"/>
	<rect x="1392.64" y="2965.09" width="739.95" height="240.03" style="fill:#3399FF;fill-opacity:0.40"/>
	<rect x="1396.96" y="2969.41" width="731.31" height="231.39" style="fill:none;stroke:#0080FF;stroke-opacity:0.40;stroke-width:8.64"/>
	<rect x="1392.64" y="3231.74" width="1259.24" height="240.19" style="fill:#3399FF;fill-opacity:0.40"/>
	<rect x="1396.96" y="3236.06" width="1250.60" height="231.55" style="fill:none;stroke:#0080FF;stroke-opacity:0.40;stroke-width:8.64"/>
	<rect x="1392.64" y="3498.55" width="1715.84" height="240.03" style="fill:#3399FF;fill-opacity:0.40"/>
	<rect x="1396.96" y="3502.87" width="1707.20" height="231.39" style="fill:none;stroke:#0080FF;stroke-opacity:0.40;stroke-width:8.64"/>
	<rect x="1392.64" y="3765.19" width="2009.27" height="240.19" style="fill:#3399FF;fill-opacity:0.40"/>
	<rect x="1396.96" y="3769.51" width="2000.63" height="231.55" style="fill:none;stroke:#0080FF;stroke-opacity:0.40;stroke-width:8.64"/>
	<rect x="1392.64" y="4032.00" width="2155.59" height="240.03" style="fill:#3399FF;fill-opacity:0.40"/>
	<rect x="1396.96" y="4036.32" width="2146.95" height="231.39" style="fill:none;stroke:#0080FF;stroke-opacity:0.40;stroke-width:8.64"/>
	<rect x="1392.64" y="4298.65" width="2214.65" height="240.19" style="fill:#3399FF;fill-opacity:0.40"/>
	<rect x="1396.96" y="4302.97" width="2206.01" height="231.55" style="fill:none;stroke:#0080FF;stroke-opacity:0.40;stroke-width:8.64"/>
	<rect x="1392.64" y="2698.29" width="739.95" height="240.19" style="fill:#FF3333;fill-opacity:0.60"/>
	<rect x="1396.96" y="2702.61" width="731.31" height="231.55" style="fill:none;stroke:#FF0000;stroke-opacity:0.60;stroke-width:8.64"/>
	<rect x="2132.59" y="2965.09" width="519.29" height="240.03" style="fill:#FF3333;fill-opacity:0.60"/>
	<rect x="2136.91" y="2969.41" width="510.65" height="231.39" style="fill:none;stroke:#FF0000;stroke-opacity:0.60;stroke-width:8.64"/>
	<rect x="2651.88" y="3231.74" width="456.60" height="240.19" style="fill:#FF3333;fill-opacity:0.60"/>
	<rect x="2656.20" y="3236.06" width="447.96" height="231.55" style="fill:none;stroke:#FF0000;stroke-opacity:0.60;stroke-width:8.64"/>
	<rect x="3108.48" y="3498.55" width="293.43" height="240.03" style="fill:#FF3333;fill-opacity:0.60"/>
	<rect x="3112.80" y="3502.87" width="284.79" height="231.39" style="fill:none;stroke:#FF0000;stroke-opacity:0.60;stroke-width:8.64"/>
	<rect x="3401.91" y="3765.19" width="146.32" height="240.19" style="fill:#FF3333;fill-opacity:0.60"/>
	<rect x="3406.23" y="3769.51" width="137.68" height="231.55" style="fill:none;stroke:#FF0000;stroke-opacity:0.60;stroke-width:8.64"/>
	<rect x="3548.23" y="4032.00" width="59.06" height="240.03" style="fill:#FF3333;fill-opacity:0.60"/>
	<rect x="3552.55" y="4036.32" width="50.42" height="231.39" style="fill:none;stroke:#FF0000;stroke-opacity:0.60;stroke-width:8.64"/>
	<rect x="2132.59" y="2698.29" width="1971.47" height="240.19" style="fill:#B8B8B8;fill-opacity:0.40"/>
	<rect x="2136.91" y="2702.61" width="1962.83" height="231.55" style="fill:none;stroke:#A6A6A6;stroke-opacity:0.40;stroke-width:8.64"/>
	<rect x="2651.88" y="2965.09" width="1452.18" height="240.03" style="fill:#B8B8B8;fill-opacity:0.40"/>
	<rect x="2656.20" y="2969.41" width="1443.54" height="231.39" style="fill:none;stroke:#A6A6A6;stroke-opacity:0.40;stroke-width:8.64"/>
	<rect x="3108.48" y="3231.74" width="995.58" height="240.19" style="fill:#B8B8B8;fill-opacity:0.40"/>
	<rect x="3112.80" y="3236.06" width="986.94" height="231.55" style="fill:none;stroke:#A6A6A6;stroke-opacity:0.40;stroke-width:8.64"/>
	<rect x="3401.91" y="3498.55" width="702.15" height="240.03" style="fill:#B8B8B8;fill-opacity:0.40"/>
	<rect x="3406.23" y="3502.87" width="693.51" height="231.39" style="fill:none;stroke:#A6A6A6;stroke-opacity:0.40;stroke-width:8.64"/>
	<rect x="3548.23" y="3765.19" width="555.83" height="240.19" style="fill:#B8B8B8;fill-opacity:0.40"/>
	<rect x="3552.55" y="3769.51" width="547.19" height="231.55" style="fill:none;stroke:#A6A6A6;stroke-opacity:0.40;stroke-width:8.64"/>
	<rect x="3607.30" y="4032.00" width="496.77" height="240.03" style="fill:#B8B8B8;fill-opacity:0.40"/>
	<rect x="3611.62" y="4036.32" width="488.13" height="231.39" style="fill:none;stroke:#A6A6A6;stroke-opacity:0.40;stroke-width:8.64"/>
	<rect x="3607.30" y="4298.65" width="496.77" height="240.19" style="fill:#B8B8B8;fill-opacity:0.40"/>
	<rect x="3611.62" y="4302.97" width="488.13" height="231.55" style="fill:none;stroke:#A6A6A6;stroke-opacity:0.40;stroke-width:8.64"/>
	<line x1="1392.64" y1="2818.46" x2="1392.64" y2="2818.46" style="stroke:#000000;stroke-width:8.64"/>
	<text x="1362.72" y="2860.51" style="font-family:'Helvetica';font-weight:bold;font-size:120.02px;fill:#000000" text-anchor="end">Atherosclerotic CVDs</text>
	<line x1="1392.64" y1="3085.11" x2="1392.64" y2="3085.11" style="stroke:#000000;stroke-width:8.64"/>
	<text x="1362.72" y="3127.15" style="font-family:'Helvetica';font-size:120.02px;fill:#000000" text-anchor="end">+Hemorrhagic stroke</text>
	<line x1="1392.64" y1="3351.91" x2="1392.64" y2="3351.91" style="stroke:#000000;stroke-width:8.64"/>
	<text x="1362.72" y="3393.96" style="font-family:'Helvetica';font-size:120.02px;fill:#000000" text-anchor="end">+Tobacco-related NCDs</text>
	<line x1="1392.64" y1="3618.56" x2="1392.64" y2="3618.56" style="stroke:#000000;stroke-width:8.64"/>
	<text x="1362.72" y="3660.61" style="font-family:'Helvetica';font-size:120.02px;fill:#000000" text-anchor="end">+Infection-related NCDs</text>
	<line x1="1392.64" y1="3885.37" x2="1392.64" y2="3885.37" style="stroke:#000000;stroke-width:8.64"/>
	<text x="1362.72" y="3927.41" style="font-family:'Helvetica';font-size:120.02px;fill:#000000" text-anchor="end">+Road injury</text>
	<line x1="1392.64" y1="4152.02" x2="1392.64" y2="4152.02" style="stroke:#000000;stroke-width:8.64"/>
	<text x="1362.72" y="4194.06" style="font-family:'Helvetica';font-size:120.02px;fill:#000000" text-anchor="end">+Diabetes</text>
	<line x1="1392.64" y1="4418.82" x2="1392.64" y2="4418.82" style="stroke:#000000;stroke-width:8.64"/>
	<text x="1362.72" y="4460.86" style="font-family:'Helvetica';font-size:120.02px;fill:#000000" text-anchor="end">+Suicide</text>
	<line x1="1392.64" y1="4538.84" x2="4104.06" y2="4538.84" style="stroke:#000000;stroke-width:8.64"/>
	<line x1="1392.64" y1="4538.84" x2="1392.64" y2="4568.76" style="stroke:#000000;stroke-width:8.64"/>
	<line x1="2024.39" y1="4538.84" x2="2024.39" y2="4568.76" style="stroke:#000000;stroke-width:8.64"/>
	<line x1="2655.98" y1="4538.84" x2="2655.98" y2="4568.76" style="stroke:#000000;stroke-width:8.64"/>
	<line x1="3287.57" y1="4538.84" x2="3287.57" y2="4568.76" style="stroke:#000000;stroke-width:8.64"/>
	<line x1="3919.15" y1="4538.84" x2="3919.15" y2="4568.76" style="stroke:#000000;stroke-width:8.64"/>
	<line x1="1392.64" y1="4538.84" x2="1392.64" y2="4598.84" style="stroke:#000000;stroke-width:8.64"/>
	<text x="1392.64" y="4712.70" style="font-family:'Helvetica';font-size:120.02px;fill:#000000" text-anchor="middle">0</text>
	<line x1="2655.98" y1="4538.84" x2="2655.98" y2="4598.84" style="stroke:#000000;stroke-width:8.64"/>
	<text x="2655.98" y="4712.70" style="font-family:'Helvetica';font-size:120.02px;fill:#000000" text-anchor="middle">2</text>
	<line x1="3919.15" y1="4538.84" x2="3919.15" y2="4598.84" style="stroke:#000000;stroke-width:8.64"/>
	<text x="3919.15" y="4712.70" style="font-family:'Helvetica';font-size:120.02px;fill:#000000" text-anchor="middle">4</text>
	<text x="1418.63" y="2636.38" style="font-family:'Helvetica';font-size:120.02px;fill:#000000">Panel B — China</text>
	<text x="2160.00" y="4934.77" style="font-family:'Helvetica';font-size:120.02px;fill:#000000" text-anchor="middle">                               Life expectancy gap accounted for, years</text>
</svg>
