<?xml version="1.0" encoding="UTF-8" standalone="no"?>
<!-- This is a Stata 16.0 generated SVG file (http://www.stata.com) -->

<svg version="1.1" width="6.20in" height="4.80in" viewBox="0 0 4464 3456" xmlns="http://www.w3.org/2000/svg" xmlns:xlink="http://www.w3.org/1999/xlink">
	<desc>Stata Graph - Graph</desc>
	<rect x="0" y="0" width="4464" height="3456" style="fill:#EAF2F3;stroke:none"/>
	<rect x="0.00" y="0.00" width="4464.00" height="3456.00" style="fill:#FFFFFF"/>
	<rect x="3.46" y="3.46" width="4457.09" height="3449.09" style="fill:none;stroke:#FFFFFF;stroke-width:6.91"/>
	<rect x="1453.03" y="341.22" width="2941.78" height="2644.80" style="fill:#FFFFFF"/>
	<rect x="1456.49" y="344.68" width="2934.86" height="2637.89" style="fill:none;stroke:#FFFFFF;stroke-width:6.91"/>
	<line x1="1453.03" y1="2986.02" x2="1453.03" y2="341.22" style="stroke:#000000;stroke-opacity:0.30;stroke-width:6.91"/>
	<line x1="1547.61" y1="2986.02" x2="1547.61" y2="341.22" style="stroke:#000000;stroke-opacity:0.30;stroke-width:6.91"/>
	<line x1="1642.19" y1="2986.02" x2="1642.19" y2="341.22" style="stroke:#000000;stroke-opacity:0.30;stroke-width:6.91"/>
	<line x1="1736.78" y1="2986.02" x2="1736.78" y2="341.22" style="stroke:#000000;stroke-opacity:0.30;stroke-width:6.91"/>
	<line x1="1831.36" y1="2986.02" x2="1831.36" y2="341.22" style="stroke:#000000;stroke-opacity:0.30;stroke-width:6.91"/>
	<line x1="1925.80" y1="2986.02" x2="1925.80" y2="341.22" style="stroke:#000000;stroke-opacity:0.30;stroke-width:6.91"/>
	<line x1="2020.38" y1="2986.02" x2="2020.38" y2="341.22" style="stroke:#000000;stroke-opacity:0.30;stroke-width:6.91"/>
	<line x1="2114.96" y1="2986.02" x2="2114.96" y2="341.22" style="stroke:#000000;stroke-opacity:0.30;stroke-width:6.91"/>
	<line x1="2209.54" y1="2986.02" x2="2209.54" y2="341.22" style="stroke:#000000;stroke-opacity:0.30;stroke-width:6.91"/>
	<line x1="2304.12" y1="2986.02" x2="2304.12" y2="341.22" style="stroke:#000000;stroke-opacity:0.30;stroke-width:6.91"/>
	<line x1="2398.70" y1="2986.02" x2="2398.70" y2="341.22" style="stroke:#000000;stroke-opacity:0.30;stroke-width:6.91"/>
	<line x1="2493.28" y1="2986.02" x2="2493.28" y2="341.22" style="stroke:#000000;stroke-opacity:0.30;stroke-width:6.91"/>
	<line x1="2587.86" y1="2986.02" x2="2587.86" y2="341.22" style="stroke:#000000;stroke-opacity:0.30;stroke-width:6.91"/>
	<line x1="2682.45" y1="2986.02" x2="2682.45" y2="341.22" style="stroke:#000000;stroke-opacity:0.30;stroke-width:6.91"/>
	<line x1="2777.03" y1="2986.02" x2="2777.03" y2="341.22" style="stroke:#000000;stroke-opacity:0.30;stroke-width:6.91"/>
	<line x1="2871.61" y1="2986.02" x2="2871.61" y2="341.22" style="stroke:#000000;stroke-opacity:0.30;stroke-width:6.91"/>
	<line x1="2966.19" y1="2986.02" x2="2966.19" y2="341.22" style="stroke:#000000;stroke-opacity:0.30;stroke-width:6.91"/>
	<line x1="3060.77" y1="2986.02" x2="3060.77" y2="341.22" style="stroke:#000000;stroke-opacity:0.30;stroke-width:6.91"/>
	<line x1="3155.35" y1="2986.02" x2="3155.35" y2="341.22" style="stroke:#000000;stroke-opacity:0.30;stroke-width:6.91"/>
	<line x1="3249.93" y1="2986.02" x2="3249.93" y2="341.22" style="stroke:#000000;stroke-opacity:0.30;stroke-width:6.91"/>
	<line x1="3344.51" y1="2986.02" x2="3344.51" y2="341.22" style="stroke:#000000;stroke-opacity:0.30;stroke-width:6.91"/>
	<line x1="3439.09" y1="2986.02" x2="3439.09" y2="341.22" style="stroke:#000000;stroke-opacity:0.30;stroke-width:6.91"/>
	<line x1="3533.67" y1="2986.02" x2="3533.67" y2="341.22" style="stroke:#000000;stroke-opacity:0.30;stroke-width:6.91"/>
	<line x1="3628.12" y1="2986.02" x2="3628.12" y2="341.22" style="stroke:#000000;stroke-opacity:0.30;stroke-width:6.91"/>
	<line x1="3722.70" y1="2986.02" x2="3722.70" y2="341.22" style="stroke:#000000;stroke-opacity:0.30;stroke-width:6.91"/>
	<line x1="3817.28" y1="2986.02" x2="3817.28" y2="341.22" style="stroke:#000000;stroke-opacity:0.30;stroke-width:6.91"/>
	<line x1="3911.86" y1="2986.02" x2="3911.86" y2="341.22" style="stroke:#000000;stroke-opacity:0.30;stroke-width:6.91"/>
	<line x1="4006.44" y1="2986.02" x2="4006.44" y2="341.22" style="stroke:#000000;stroke-opacity:0.30;stroke-width:6.91"/>
	<line x1="4101.02" y1="2986.02" x2="4101.02" y2="341.22" style="stroke:#000000;stroke-opacity:0.30;stroke-width:6.91"/>
	<line x1="4195.60" y1="2986.02" x2="4195.60" y2="341.22" style="stroke:#000000;stroke-opacity:0.30;stroke-width:6.91"/>
	<line x1="4290.18" y1="2986.02" x2="4290.18" y2="341.22" style="stroke:#000000;stroke-opacity:0.30;stroke-width:6.91"/>
	<line x1="4384.76" y1="2986.02" x2="4384.76" y2="341.22" style="stroke:#000000;stroke-opacity:0.30;stroke-width:6.91"/>
	<rect x="2427.44" y="1672.90" width="344.84" height="125.27" style="fill:#9D9D9D;fill-opacity:0.40"/>
	<rect x="2430.90" y="1676.35" width="337.93" height="118.36" style="fill:none;stroke:#858585;stroke-opacity:0.40;stroke-width:6.91"/>
	<rect x="3012.36" y="607.53" width="396.46" height="125.13" style="fill:#9D9D9D;fill-opacity:0.40"/>
	<rect x="3015.82" y="610.98" width="389.55" height="118.22" style="fill:none;stroke:#858585;stroke-opacity:0.40;stroke-width:6.91"/>
	<rect x="2210.66" y="2471.96" width="184.28" height="125.27" style="fill:#9D9D9D;fill-opacity:0.40"/>
	<rect x="2214.11" y="2475.42" width="177.37" height="118.36" style="fill:none;stroke:#858585;stroke-opacity:0.40;stroke-width:6.91"/>
	<rect x="2965.35" y="873.83" width="337.17" height="125.27" style="fill:#9D9D9D;fill-opacity:0.40"/>
	<rect x="2968.81" y="877.29" width="330.26" height="118.36" style="fill:none;stroke:#858585;stroke-opacity:0.40;stroke-width:6.91"/>
	<rect x="2141.32" y="2205.65" width="394.37" height="125.27" style="fill:#9D9D9D;fill-opacity:0.40"/>
	<rect x="2144.78" y="2209.11" width="387.45" height="118.36" style="fill:none;stroke:#858585;stroke-opacity:0.40;stroke-width:6.91"/>
	<rect x="2371.78" y="1406.59" width="294.07" height="125.13" style="fill:#9D9D9D;fill-opacity:0.40"/>
	<rect x="2375.23" y="1410.05" width="287.15" height="118.22" style="fill:none;stroke:#858585;stroke-opacity:0.40;stroke-width:6.91"/>
	<rect x="3828.30" y="341.22" width="566.51" height="125.13" style="fill:#9D9D9D;fill-opacity:0.40"/>
	<rect x="3831.75" y="344.68" width="559.60" height="118.22" style="fill:none;stroke:#858585;stroke-opacity:0.40;stroke-width:6.91"/>
	<rect x="1822.43" y="2738.41" width="143.68" height="125.13" style="fill:#9D9D9D;fill-opacity:0.40"/>
	<rect x="1825.88" y="2741.86" width="136.77" height="118.22" style="fill:none;stroke:#858585;stroke-opacity:0.40;stroke-width:6.91"/>
	<rect x="2430.23" y="1939.34" width="242.17" height="125.13" style="fill:#9D9D9D;fill-opacity:0.40"/>
	<rect x="2433.69" y="1942.80" width="235.26" height="118.22" style="fill:none;stroke:#858585;stroke-opacity:0.40;stroke-width:6.91"/>
	<rect x="2672.12" y="1140.28" width="280.95" height="125.13" style="fill:#9D9D9D;fill-opacity:0.40"/>
	<rect x="2675.58" y="1143.74" width="274.04" height="118.22" style="fill:none;stroke:#858585;stroke-opacity:0.40;stroke-width:6.91"/>
	<rect x="1561.42" y="1672.90" width="866.02" height="125.27" style="fill:#71B8FF;fill-opacity:0.40"/>
	<rect x="1564.88" y="1676.35" width="859.10" height="118.36" style="fill:none;stroke:#4DA6FF;stroke-opacity:0.40;stroke-width:6.91"/>
	<rect x="2243.30" y="607.53" width="769.06" height="125.13" style="fill:#71B8FF;fill-opacity:0.40"/>
	<rect x="2246.76" y="610.98" width="762.15" height="118.22" style="fill:none;stroke:#4DA6FF;stroke-opacity:0.40;stroke-width:6.91"/>
	<rect x="1616.11" y="2471.96" width="594.55" height="125.27" style="fill:#71B8FF;fill-opacity:0.40"/>
	<rect x="1619.56" y="2475.42" width="587.64" height="118.36" style="fill:none;stroke:#4DA6FF;stroke-opacity:0.40;stroke-width:6.91"/>
	<rect x="2471.94" y="873.83" width="493.41" height="125.27" style="fill:#71B8FF;fill-opacity:0.40"/>
	<rect x="2475.40" y="877.29" width="486.50" height="118.36" style="fill:none;stroke:#4DA6FF;stroke-opacity:0.40;stroke-width:6.91"/>
	<rect x="1689.35" y="2205.65" width="451.98" height="125.27" style="fill:#71B8FF;fill-opacity:0.40"/>
	<rect x="1692.80" y="2209.11" width="445.07" height="118.36" style="fill:none;stroke:#4DA6FF;stroke-opacity:0.40;stroke-width:6.91"/>
	<rect x="1698.13" y="1406.59" width="673.65" height="125.13" style="fill:#71B8FF;fill-opacity:0.40"/>
	<rect x="1701.59" y="1410.05" width="666.73" height="118.22" style="fill:none;stroke:#4DA6FF;stroke-opacity:0.40;stroke-width:6.91"/>
	<rect x="3411.75" y="341.22" width="416.55" height="125.13" style="fill:#71B8FF;fill-opacity:0.40"/>
	<rect x="3415.21" y="344.68" width="409.64" height="118.22" style="fill:none;stroke:#4DA6FF;stroke-opacity:0.40;stroke-width:6.91"/>
	<rect x="1485.95" y="2738.41" width="336.47" height="125.13" style="fill:#71B8FF;fill-opacity:0.40"/>
	<rect x="1489.41" y="2741.86" width="329.56" height="118.22" style="fill:none;stroke:#4DA6FF;stroke-opacity:0.40;stroke-width:6.91"/>
	<rect x="1956.07" y="1939.34" width="474.16" height="125.13" style="fill:#71B8FF;fill-opacity:0.40"/>
	<rect x="1959.52" y="1942.80" width="467.25" height="118.22" style="fill:none;stroke:#4DA6FF;stroke-opacity:0.40;stroke-width:6.91"/>
	<rect x="2130.16" y="1140.28" width="541.96" height="125.13" style="fill:#71B8FF;fill-opacity:0.40"/>
	<rect x="2133.62" y="1143.74" width="535.05" height="118.22" style="fill:none;stroke:#4DA6FF;stroke-opacity:0.40;stroke-width:6.91"/>
	<rect x="1453.03" y="1672.90" width="108.39" height="125.27" style="fill:#47A447;fill-opacity:0.40"/>
	<rect x="1456.49" y="1676.35" width="101.48" height="118.36" style="fill:none;stroke:#198D19;stroke-opacity:0.40;stroke-width:6.91"/>
	<rect x="1453.03" y="607.53" width="790.27" height="125.13" style="fill:#47A447;fill-opacity:0.40"/>
	<rect x="1456.49" y="610.98" width="783.36" height="118.22" style="fill:none;stroke:#198D19;stroke-opacity:0.40;stroke-width:6.91"/>
	<rect x="1453.03" y="2471.96" width="163.08" height="125.27" style="fill:#47A447;fill-opacity:0.40"/>
	<rect x="1456.49" y="2475.42" width="156.16" height="118.36" style="fill:none;stroke:#198D19;stroke-opacity:0.40;stroke-width:6.91"/>
	<rect x="1453.03" y="873.83" width="1018.91" height="125.27" style="fill:#47A447;fill-opacity:0.40"/>
	<rect x="1456.49" y="877.29" width="1012.00" height="118.36" style="fill:none;stroke:#198D19;stroke-opacity:0.40;stroke-width:6.91"/>
	<rect x="1453.03" y="2205.65" width="236.31" height="125.27" style="fill:#47A447;fill-opacity:0.40"/>
	<rect x="1456.49" y="2209.11" width="229.40" height="118.36" style="fill:none;stroke:#198D19;stroke-opacity:0.40;stroke-width:6.91"/>
	<rect x="1453.03" y="1406.59" width="245.10" height="125.13" style="fill:#47A447;fill-opacity:0.40"/>
	<rect x="1456.49" y="1410.05" width="238.19" height="118.22" style="fill:none;stroke:#198D19;stroke-opacity:0.40;stroke-width:6.91"/>
	<rect x="1453.03" y="341.22" width="1958.72" height="125.13" style="fill:#47A447;fill-opacity:0.40"/>
	<rect x="1456.49" y="344.68" width="1951.81" height="118.22" style="fill:none;stroke:#198D19;stroke-opacity:0.40;stroke-width:6.91"/>
	<rect x="1453.03" y="2738.41" width="32.92" height="125.13" style="fill:#47A447;fill-opacity:0.40"/>
	<rect x="1456.49" y="2741.86" width="26.01" height="118.22" style="fill:none;stroke:#198D19;stroke-opacity:0.40;stroke-width:6.91"/>
	<rect x="1453.03" y="1939.34" width="503.04" height="125.13" style="fill:#47A447;fill-opacity:0.40"/>
	<rect x="1456.49" y="1942.80" width="496.13" height="118.22" style="fill:none;stroke:#198D19;stroke-opacity:0.40;stroke-width:6.91"/>
	<rect x="1453.03" y="1140.28" width="677.13" height="125.13" style="fill:#47A447;fill-opacity:0.40"/>
	<rect x="1456.49" y="1143.74" width="670.22" height="118.22" style="fill:none;stroke:#198D19;stroke-opacity:0.40;stroke-width:6.91"/>
	<rect x="1993.87" y="1795.52" width="178.28" height="125.13" style="fill:#9D9D9D;fill-opacity:0.40"/>
	<rect x="1997.33" y="1798.97" width="171.37" height="118.22" style="fill:none;stroke:#858585;stroke-opacity:0.40;stroke-width:6.91"/>
	<rect x="2523.00" y="730.01" width="316.94" height="125.27" style="fill:#9D9D9D;fill-opacity:0.40"/>
	<rect x="2526.45" y="733.47" width="310.03" height="118.36" style="fill:none;stroke:#858585;stroke-opacity:0.40;stroke-width:6.91"/>
	<rect x="1800.25" y="2594.58" width="58.73" height="125.13" style="fill:#9D9D9D;fill-opacity:0.40"/>
	<rect x="1803.70" y="2598.04" width="51.82" height="118.22" style="fill:none;stroke:#858585;stroke-opacity:0.40;stroke-width:6.91"/>
	<rect x="2305.38" y="996.46" width="235.20" height="125.13" style="fill:#9D9D9D;fill-opacity:0.40"/>
	<rect x="2308.83" y="999.91" width="228.29" height="118.22" style="fill:none;stroke:#858585;stroke-opacity:0.40;stroke-width:6.91"/>
	<rect x="1844.89" y="2328.13" width="268.68" height="125.27" style="fill:#9D9D9D;fill-opacity:0.40"/>
	<rect x="1848.34" y="2331.59" width="261.77" height="118.36" style="fill:none;stroke:#858585;stroke-opacity:0.40;stroke-width:6.91"/>
	<rect x="1982.02" y="1529.07" width="192.23" height="125.27" style="fill:#9D9D9D;fill-opacity:0.40"/>
	<rect x="1985.47" y="1532.53" width="185.32" height="118.36" style="fill:none;stroke:#858585;stroke-opacity:0.40;stroke-width:6.91"/>
	<rect x="2959.91" y="463.70" width="536.66" height="125.13" style="fill:#9D9D9D;fill-opacity:0.40"/>
	<rect x="2963.37" y="467.16" width="529.74" height="118.22" style="fill:none;stroke:#858585;stroke-opacity:0.40;stroke-width:6.91"/>
	<rect x="1602.30" y="2860.89" width="164.05" height="125.13" style="fill:#9D9D9D;fill-opacity:0.40"/>
	<rect x="1605.75" y="2864.34" width="157.14" height="118.22" style="fill:none;stroke:#858585;stroke-opacity:0.40;stroke-width:6.91"/>
	<rect x="2000.01" y="2061.83" width="151.22" height="125.13" style="fill:#9D9D9D;fill-opacity:0.40"/>
	<rect x="2003.47" y="2065.28" width="144.31" height="118.22" style="fill:none;stroke:#858585;stroke-opacity:0.40;stroke-width:6.91"/>
	<rect x="2164.34" y="1262.76" width="200.60" height="125.13" style="fill:#9D9D9D;fill-opacity:0.40"/>
	<rect x="2167.80" y="1266.22" width="193.69" height="118.22" style="fill:none;stroke:#858585;stroke-opacity:0.40;stroke-width:6.91"/>
	<rect x="1503.25" y="1795.52" width="490.62" height="125.13" style="fill:#71B8FF;fill-opacity:0.40"/>
	<rect x="1506.71" y="1798.97" width="483.71" height="118.22" style="fill:none;stroke:#4DA6FF;stroke-opacity:0.40;stroke-width:6.91"/>
	<rect x="1850.05" y="730.01" width="672.95" height="125.27" style="fill:#71B8FF;fill-opacity:0.40"/>
	<rect x="1853.50" y="733.47" width="666.04" height="118.36" style="fill:none;stroke:#4DA6FF;stroke-opacity:0.40;stroke-width:6.91"/>
	<rect x="1468.66" y="2594.58" width="331.59" height="125.13" style="fill:#71B8FF;fill-opacity:0.40"/>
	<rect x="1472.11" y="2598.04" width="324.68" height="118.22" style="fill:none;stroke:#4DA6FF;stroke-opacity:0.40;stroke-width:6.91"/>
	<rect x="1772.63" y="996.46" width="532.75" height="125.13" style="fill:#71B8FF;fill-opacity:0.40"/>
	<rect x="1776.08" y="999.91" width="525.84" height="118.22" style="fill:none;stroke:#4DA6FF;stroke-opacity:0.40;stroke-width:6.91"/>
	<rect x="1585.98" y="2328.13" width="258.91" height="125.27" style="fill:#71B8FF;fill-opacity:0.40"/>
	<rect x="1589.43" y="2331.59" width="252.00" height="118.36" style="fill:none;stroke:#4DA6FF;stroke-opacity:0.40;stroke-width:6.91"/>
	<rect x="1548.03" y="1529.07" width="433.98" height="125.27" style="fill:#71B8FF;fill-opacity:0.40"/>
	<rect x="1551.49" y="1532.53" width="427.07" height="118.36" style="fill:none;stroke:#4DA6FF;stroke-opacity:0.40;stroke-width:6.91"/>
	<rect x="2483.10" y="463.70" width="476.81" height="125.13" style="fill:#71B8FF;fill-opacity:0.40"/>
	<rect x="2486.56" y="467.16" width="469.90" height="118.22" style="fill:none;stroke:#4DA6FF;stroke-opacity:0.40;stroke-width:6.91"/>
	<rect x="1462.94" y="2860.89" width="139.36" height="125.13" style="fill:#71B8FF;fill-opacity:0.40"/>
	<rect x="1466.39" y="2864.34" width="132.45" height="118.22" style="fill:none;stroke:#4DA6FF;stroke-opacity:0.40;stroke-width:6.91"/>
	<rect x="1649.73" y="2061.83" width="350.28" height="125.13" style="fill:#71B8FF;fill-opacity:0.40"/>
	<rect x="1653.18" y="2065.28" width="343.37" height="118.22" style="fill:none;stroke:#4DA6FF;stroke-opacity:0.40;stroke-width:6.91"/>
	<rect x="1769.14" y="1262.76" width="395.20" height="125.13" style="fill:#71B8FF;fill-opacity:0.40"/>
	<rect x="1772.59" y="1266.22" width="388.29" height="118.22" style="fill:none;stroke:#4DA6FF;stroke-opacity:0.40;stroke-width:6.91"/>
	<rect x="1453.03" y="1795.52" width="50.22" height="125.13" style="fill:#47A447;fill-opacity:0.40"/>
	<rect x="1456.49" y="1798.97" width="43.31" height="118.22" style="fill:none;stroke:#198D19;stroke-opacity:0.40;stroke-width:6.91"/>
	<rect x="1453.03" y="730.01" width="397.02" height="125.27" style="fill:#47A447;fill-opacity:0.40"/>
	<rect x="1456.49" y="733.47" width="390.11" height="118.36" style="fill:none;stroke:#198D19;stroke-opacity:0.40;stroke-width:6.91"/>
	<rect x="1453.03" y="2594.58" width="15.62" height="125.13" style="fill:#47A447;fill-opacity:0.40"/>
	<rect x="1456.49" y="2598.04" width="8.71" height="118.22" style="fill:none;stroke:#198D19;stroke-opacity:0.40;stroke-width:6.91"/>
	<rect x="1453.03" y="996.46" width="319.59" height="125.13" style="fill:#47A447;fill-opacity:0.40"/>
	<rect x="1456.49" y="999.91" width="312.68" height="118.22" style="fill:none;stroke:#198D19;stroke-opacity:0.40;stroke-width:6.91"/>
	<rect x="1453.03" y="2328.13" width="132.94" height="125.27" style="fill:#47A447;fill-opacity:0.40"/>
	<rect x="1456.49" y="2331.59" width="126.03" height="118.36" style="fill:none;stroke:#198D19;stroke-opacity:0.40;stroke-width:6.91"/>
	<rect x="1453.03" y="1529.07" width="95.00" height="125.27" style="fill:#47A447;fill-opacity:0.40"/>
	<rect x="1456.49" y="1532.53" width="88.09" height="118.36" style="fill:none;stroke:#198D19;stroke-opacity:0.40;stroke-width:6.91"/>
	<rect x="1453.03" y="463.70" width="1030.07" height="125.13" style="fill:#47A447;fill-opacity:0.40"/>
	<rect x="1456.49" y="467.16" width="1023.16" height="118.22" style="fill:none;stroke:#198D19;stroke-opacity:0.40;stroke-width:6.91"/>
	<rect x="1453.03" y="2860.89" width="9.90" height="125.13" style="fill:#47A447;fill-opacity:0.40"/>
	<rect x="1456.49" y="2864.34" width="2.99" height="118.22" style="fill:none;stroke:#198D19;stroke-opacity:0.40;stroke-width:6.91"/>
	<rect x="1453.03" y="2061.83" width="196.70" height="125.13" style="fill:#47A447;fill-opacity:0.40"/>
	<rect x="1456.49" y="2065.28" width="189.78" height="118.22" style="fill:none;stroke:#198D19;stroke-opacity:0.40;stroke-width:6.91"/>
	<rect x="1453.03" y="1262.76" width="316.11" height="125.13" style="fill:#47A447;fill-opacity:0.40"/>
	<rect x="1456.49" y="1266.22" width="309.20" height="118.22" style="fill:none;stroke:#198D19;stroke-opacity:0.40;stroke-width:6.91"/>
	<rect x="1458.22" y="1800.70" width="708.75" height="114.76" style="fill:none;stroke:#FF0000;stroke-width:10.37"/>
	<rect x="1458.22" y="735.19" width="1376.54" height="114.90" style="fill:none;stroke:#FF0000;stroke-width:10.37"/>
	<rect x="1458.22" y="2599.76" width="395.58" height="114.76" style="fill:none;stroke:#FF0000;stroke-width:10.37"/>
	<rect x="1458.22" y="1001.64" width="1077.17" height="114.76" style="fill:none;stroke:#FF0000;stroke-width:10.37"/>
	<rect x="1458.22" y="2333.32" width="650.16" height="114.90" style="fill:none;stroke:#FF0000;stroke-width:10.37"/>
	<rect x="1458.22" y="1534.26" width="710.85" height="114.90" style="fill:none;stroke:#FF0000;stroke-width:10.37"/>
	<rect x="1458.22" y="468.89" width="2033.17" height="114.76" style="fill:none;stroke:#FF0000;stroke-width:10.37"/>
	<rect x="1458.22" y="2866.07" width="302.95" height="114.76" style="fill:none;stroke:#FF0000;stroke-width:10.37"/>
	<rect x="1458.22" y="2067.01" width="687.83" height="114.76" style="fill:none;stroke:#FF0000;stroke-width:10.37"/>
	<rect x="1458.22" y="1267.95" width="901.54" height="114.76" style="fill:none;stroke:#FF0000;stroke-width:10.37"/>
	<defs>
		<path id="path_AMOiKMYE" d="M2787.07 1511.22 M2787.07 1511.22 L3020.45 1511.22 L3020.45 1411.19 L2787.07 1411.19 L2787.07 1511.22 Z" stroke-linecap="round"/>
	</defs>
	<defs>
		<clipPath id="clipPath_pnBTjQkT">
			<use xlink:href="#path_AMOiKMYE"/>
		</clipPath>
	</defs>
	<use xlink:href="#path_AMOiKMYE" style="stroke:none;fill:#FFFFFF"/>
	<use xlink:href="#path_AMOiKMYE" style="fill:none;stroke:#FFFFFF;stroke-width:13.82" clip-path="url(#clipPath_pnBTjQkT)"/>
	<text x="2903.69" y="1496.32" style="font-family:'Helvetica';font-weight:bold;font-size:100.02px;fill:#000000" text-anchor="middle">2000</text>
	<defs>
		<path id="path_BfvDrFzs" d="M2787.07 1661.74 M2787.07 1661.74 L3075.70 1661.74 L3075.70 1537.58 L2787.07 1537.58 L2787.07 1661.74 Z" stroke-linecap="round"/>
	</defs>
	<defs>
		<clipPath id="clipPath_eWaNHOPG">
			<use xlink:href="#path_BfvDrFzs"/>
		</clipPath>
	</defs>
	<use xlink:href="#path_BfvDrFzs" style="stroke:none;fill:#FFFFFF"/>
	<use xlink:href="#path_BfvDrFzs" style="fill:none;stroke:#FF0000;stroke-width:20.74" clip-path="url(#clipPath_eWaNHOPG)"/>
	<text x="2934.80" y="1629.54" style="font-family:'Helvetica';font-weight:bold;font-size:100.02px;fill:#000000" text-anchor="middle">2019</text>
	<line x1="1453.03" y1="2862.28" x2="1453.03" y2="2862.28" style="stroke:#000000;stroke-width:6.91"/>
	<text x="1429.04" y="2770.92" style="font-family:'Helvetica';font-size:114.11px;fill:#000000" text-anchor="end"> </text>
	<text x="1429.04" y="2885.04" style="font-family:'Helvetica';font-size:114.11px;fill:#000000" text-anchor="end">United States</text>
	<text x="1429.04" y="2999.15" style="font-family:'Helvetica';font-size:114.11px;fill:#000000" text-anchor="end"> </text>
	<line x1="1453.03" y1="2595.84" x2="1453.03" y2="2595.84" style="stroke:#000000;stroke-width:6.91"/>
	<text x="1429.04" y="2504.48" style="font-family:'Helvetica';font-size:114.11px;fill:#000000" text-anchor="end"> </text>
	<text x="1429.04" y="2618.59" style="font-family:'Helvetica';font-size:114.11px;fill:#000000" text-anchor="end">China</text>
	<text x="1429.04" y="2732.70" style="font-family:'Helvetica';font-size:114.11px;fill:#000000" text-anchor="end"> </text>
	<line x1="1453.03" y1="2329.53" x2="1453.03" y2="2329.53" style="stroke:#000000;stroke-width:6.91"/>
	<text x="1429.04" y="2238.17" style="font-family:'Helvetica';font-size:114.11px;fill:#000000" text-anchor="end"> </text>
	<text x="1429.04" y="2352.28" style="font-family:'Helvetica';font-size:114.11px;fill:#000000" text-anchor="end">Latin America &amp; Caribbean</text>
	<text x="1429.04" y="2466.39" style="font-family:'Helvetica';font-size:114.11px;fill:#000000" text-anchor="end"> </text>
	<line x1="1453.03" y1="2063.22" x2="1453.03" y2="2063.22" style="stroke:#000000;stroke-width:6.91"/>
	<text x="1429.04" y="2028.92" style="font-family:'Helvetica';font-size:114.11px;fill:#000000" text-anchor="end">Western Pacific &amp;</text>
	<text x="1429.04" y="2143.03" style="font-family:'Helvetica';font-size:114.11px;fill:#000000" text-anchor="end">Southeast Asia</text>
	<line x1="1453.03" y1="1796.77" x2="1453.03" y2="1796.77" style="stroke:#000000;stroke-width:6.91"/>
	<text x="1429.04" y="1705.41" style="font-family:'Helvetica';font-size:114.11px;fill:#000000" text-anchor="end"> </text>
	<text x="1429.04" y="1819.53" style="font-family:'Helvetica';font-size:114.11px;fill:#000000" text-anchor="end">Central &amp; Eastern Europe</text>
	<text x="1429.04" y="1933.64" style="font-family:'Helvetica';font-size:114.11px;fill:#000000" text-anchor="end"> </text>
	<line x1="1453.03" y1="1530.47" x2="1453.03" y2="1530.47" style="stroke:#000000;stroke-width:6.91"/>
	<text x="1429.04" y="1439.11" style="font-family:'Helvetica';font-size:114.11px;fill:#000000" text-anchor="end"> </text>
	<text x="1429.04" y="1553.22" style="font-family:'Helvetica';font-size:114.11px;fill:#000000" text-anchor="end">Middle East &amp; North Africa</text>
	<text x="1429.04" y="1667.33" style="font-family:'Helvetica';font-size:114.11px;fill:#000000" text-anchor="end"> </text>
	<line x1="1453.03" y1="1264.16" x2="1453.03" y2="1264.16" style="stroke:#000000;stroke-width:6.91"/>
	<text x="1429.04" y="1172.80" style="font-family:'Helvetica';font-size:114.11px;fill:#000000" text-anchor="end"> </text>
	<text x="1429.04" y="1286.91" style="font-family:'Helvetica';font-size:114.11px;fill:#000000" text-anchor="end">World</text>
	<text x="1429.04" y="1401.02" style="font-family:'Helvetica';font-size:114.11px;fill:#000000" text-anchor="end"> </text>
	<line x1="1453.03" y1="997.71" x2="1453.03" y2="997.71" style="stroke:#000000;stroke-width:6.91"/>
	<text x="1429.04" y="906.35" style="font-family:'Helvetica';font-size:114.11px;fill:#000000" text-anchor="end"> </text>
	<text x="1429.04" y="1020.46" style="font-family:'Helvetica';font-size:114.11px;fill:#000000" text-anchor="end">India</text>
	<text x="1429.04" y="1134.58" style="font-family:'Helvetica';font-size:114.11px;fill:#000000" text-anchor="end"> </text>
	<line x1="1453.03" y1="731.40" x2="1453.03" y2="731.40" style="stroke:#000000;stroke-width:6.91"/>
	<text x="1429.04" y="640.04" style="font-family:'Helvetica';font-size:114.11px;fill:#000000" text-anchor="end"> </text>
	<text x="1429.04" y="754.16" style="font-family:'Helvetica';font-size:114.11px;fill:#000000" text-anchor="end">Central Asia</text>
	<text x="1429.04" y="868.27" style="font-family:'Helvetica';font-size:114.11px;fill:#000000" text-anchor="end"> </text>
	<line x1="1453.03" y1="465.10" x2="1453.03" y2="465.10" style="stroke:#000000;stroke-width:6.91"/>
	<text x="1429.04" y="373.74" style="font-family:'Helvetica';font-size:114.11px;fill:#000000" text-anchor="end"> </text>
	<text x="1429.04" y="487.85" style="font-family:'Helvetica';font-size:114.11px;fill:#000000" text-anchor="end">Sub-Saharan Africa</text>
	<text x="1429.04" y="601.96" style="font-family:'Helvetica';font-size:114.11px;fill:#000000" text-anchor="end"> </text>
	<line x1="1453.03" y1="2986.02" x2="4394.81" y2="2986.02" style="stroke:#000000;stroke-width:6.91"/>
	<line x1="1453.03" y1="2986.02" x2="1453.03" y2="3010.15" style="stroke:#000000;stroke-width:6.91"/>
	<line x1="1547.61" y1="2986.02" x2="1547.61" y2="3010.15" style="stroke:#000000;stroke-width:6.91"/>
	<line x1="1642.19" y1="2986.02" x2="1642.19" y2="3010.15" style="stroke:#000000;stroke-width:6.91"/>
	<line x1="1736.78" y1="2986.02" x2="1736.78" y2="3010.15" style="stroke:#000000;stroke-width:6.91"/>
	<line x1="1831.36" y1="2986.02" x2="1831.36" y2="3010.15" style="stroke:#000000;stroke-width:6.91"/>
	<line x1="1925.80" y1="2986.02" x2="1925.80" y2="3010.15" style="stroke:#000000;stroke-width:6.91"/>
	<line x1="2020.38" y1="2986.02" x2="2020.38" y2="3010.15" style="stroke:#000000;stroke-width:6.91"/>
	<line x1="2114.96" y1="2986.02" x2="2114.96" y2="3010.15" style="stroke:#000000;stroke-width:6.91"/>
	<line x1="2209.54" y1="2986.02" x2="2209.54" y2="3010.15" style="stroke:#000000;stroke-width:6.91"/>
	<line x1="2304.12" y1="2986.02" x2="2304.12" y2="3010.15" style="stroke:#000000;stroke-width:6.91"/>
	<line x1="2398.70" y1="2986.02" x2="2398.70" y2="3010.15" style="stroke:#000000;stroke-width:6.91"/>
	<line x1="2493.28" y1="2986.02" x2="2493.28" y2="3010.15" style="stroke:#000000;stroke-width:6.91"/>
	<line x1="2587.86" y1="2986.02" x2="2587.86" y2="3010.15" style="stroke:#000000;stroke-width:6.91"/>
	<line x1="2682.45" y1="2986.02" x2="2682.45" y2="3010.15" style="stroke:#000000;stroke-width:6.91"/>
	<line x1="2777.03" y1="2986.02" x2="2777.03" y2="3010.15" style="stroke:#000000;stroke-width:6.91"/>
	<line x1="2871.61" y1="2986.02" x2="2871.61" y2="3010.15" style="stroke:#000000;stroke-width:6.91"/>
	<line x1="2966.19" y1="2986.02" x2="2966.19" y2="3010.15" style="stroke:#000000;stroke-width:6.91"/>
	<line x1="3060.77" y1="2986.02" x2="3060.77" y2="3010.15" style="stroke:#000000;stroke-width:6.91"/>
	<line x1="3155.35" y1="2986.02" x2="3155.35" y2="3010.15" style="stroke:#000000;stroke-width:6.91"/>
	<line x1="3249.93" y1="2986.02" x2="3249.93" y2="3010.15" style="stroke:#000000;stroke-width:6.91"/>
	<line x1="3344.51" y1="2986.02" x2="3344.51" y2="3010.15" style="stroke:#000000;stroke-width:6.91"/>
	<line x1="3439.09" y1="2986.02" x2="3439.09" y2="3010.15" style="stroke:#000000;stroke-width:6.91"/>
	<line x1="3533.67" y1="2986.02" x2="3533.67" y2="3010.15" style="stroke:#000000;stroke-width:6.91"/>
	<line x1="3628.12" y1="2986.02" x2="3628.12" y2="3010.15" style="stroke:#000000;stroke-width:6.91"/>
	<line x1="3722.70" y1="2986.02" x2="3722.70" y2="3010.15" style="stroke:#000000;stroke-width:6.91"/>
	<line x1="3817.28" y1="2986.02" x2="3817.28" y2="3010.15" style="stroke:#000000;stroke-width:6.91"/>
	<line x1="3911.86" y1="2986.02" x2="3911.86" y2="3010.15" style="stroke:#000000;stroke-width:6.91"/>
	<line x1="4006.44" y1="2986.02" x2="4006.44" y2="3010.15" style="stroke:#000000;stroke-width:6.91"/>
	<line x1="4101.02" y1="2986.02" x2="4101.02" y2="3010.15" style="stroke:#000000;stroke-width:6.91"/>
	<line x1="4195.60" y1="2986.02" x2="4195.60" y2="3010.15" style="stroke:#000000;stroke-width:6.91"/>
	<line x1="4290.18" y1="2986.02" x2="4290.18" y2="3010.15" style="stroke:#000000;stroke-width:6.91"/>
	<line x1="4384.76" y1="2986.02" x2="4384.76" y2="3010.15" style="stroke:#000000;stroke-width:6.91"/>
	<line x1="1453.03" y1="2986.02" x2="1453.03" y2="3034.15" style="stroke:#000000;stroke-width:6.91"/>
	<text x="1453.03" y="3142.05" style="font-family:'Helvetica';font-size:119.97px;fill:#000000" text-anchor="middle">0</text>
	<line x1="1642.19" y1="2986.02" x2="1642.19" y2="3034.15" style="stroke:#000000;stroke-width:6.91"/>
	<text x="1642.19" y="3142.05" style="font-family:'Helvetica';font-size:119.97px;fill:#000000" text-anchor="middle">2</text>
	<line x1="1831.36" y1="2986.02" x2="1831.36" y2="3034.15" style="stroke:#000000;stroke-width:6.91"/>
	<text x="1831.36" y="3142.05" style="font-family:'Helvetica';font-size:119.97px;fill:#000000" text-anchor="middle">4</text>
	<line x1="2020.38" y1="2986.02" x2="2020.38" y2="3034.15" style="stroke:#000000;stroke-width:6.91"/>
	<text x="2020.38" y="3142.05" style="font-family:'Helvetica';font-size:119.97px;fill:#000000" text-anchor="middle">6</text>
	<line x1="2209.54" y1="2986.02" x2="2209.54" y2="3034.15" style="stroke:#000000;stroke-width:6.91"/>
	<text x="2209.54" y="3142.05" style="font-family:'Helvetica';font-size:119.97px;fill:#000000" text-anchor="middle">8</text>
	<line x1="2398.70" y1="2986.02" x2="2398.70" y2="3034.15" style="stroke:#000000;stroke-width:6.91"/>
	<text x="2398.70" y="3142.05" style="font-family:'Helvetica';font-size:119.97px;fill:#000000" text-anchor="middle">10</text>
	<line x1="2587.86" y1="2986.02" x2="2587.86" y2="3034.15" style="stroke:#000000;stroke-width:6.91"/>
	<text x="2587.86" y="3142.05" style="font-family:'Helvetica';font-size:119.97px;fill:#000000" text-anchor="middle">12</text>
	<line x1="2777.03" y1="2986.02" x2="2777.03" y2="3034.15" style="stroke:#000000;stroke-width:6.91"/>
	<text x="2777.03" y="3142.05" style="font-family:'Helvetica';font-size:119.97px;fill:#000000" text-anchor="middle">14</text>
	<line x1="2966.19" y1="2986.02" x2="2966.19" y2="3034.15" style="stroke:#000000;stroke-width:6.91"/>
	<text x="2966.19" y="3142.05" style="font-family:'Helvetica';font-size:119.97px;fill:#000000" text-anchor="middle">16</text>
	<line x1="3155.35" y1="2986.02" x2="3155.35" y2="3034.15" style="stroke:#000000;stroke-width:6.91"/>
	<text x="3155.35" y="3142.05" style="font-family:'Helvetica';font-size:119.97px;fill:#000000" text-anchor="middle">18</text>
	<line x1="3344.51" y1="2986.02" x2="3344.51" y2="3034.15" style="stroke:#000000;stroke-width:6.91"/>
	<text x="3344.51" y="3142.05" style="font-family:'Helvetica';font-size:119.97px;fill:#000000" text-anchor="middle">20</text>
	<line x1="3533.67" y1="2986.02" x2="3533.67" y2="3034.15" style="stroke:#000000;stroke-width:6.91"/>
	<text x="3533.67" y="3142.05" style="font-family:'Helvetica';font-size:119.97px;fill:#000000" text-anchor="middle">22</text>
	<line x1="3722.70" y1="2986.02" x2="3722.70" y2="3034.15" style="stroke:#000000;stroke-width:6.91"/>
	<text x="3722.70" y="3142.05" style="font-family:'Helvetica';font-size:119.97px;fill:#000000" text-anchor="middle">24</text>
	<line x1="3911.86" y1="2986.02" x2="3911.86" y2="3034.15" style="stroke:#000000;stroke-width:6.91"/>
	<text x="3911.86" y="3142.05" style="font-family:'Helvetica';font-size:119.97px;fill:#000000" text-anchor="middle">26</text>
	<line x1="4101.02" y1="2986.02" x2="4101.02" y2="3034.15" style="stroke:#000000;stroke-width:6.91"/>
	<text x="4101.02" y="3142.05" style="font-family:'Helvetica';font-size:119.97px;fill:#000000" text-anchor="middle">28</text>
	<line x1="4290.18" y1="2986.02" x2="4290.18" y2="3034.15" style="stroke:#000000;stroke-width:6.91"/>
	<text x="4290.18" y="3142.05" style="font-family:'Helvetica';font-size:119.97px;fill:#000000" text-anchor="middle">30</text>
	<text x="2923.92" y="3361.35" style="font-family:'Helvetica';font-size:119.97px;fill:#000000" text-anchor="middle">Life expectancy gap accounted for, years</text>
	<rect x="1494.46" y="76.03" width="2858.91" height="223.62" style="fill:#FFFFFF"/>
	<rect x="1495.96" y="77.53" width="2855.91" height="220.62" style="fill:none;stroke:#FFFFFF;stroke-width:3.00"/>
	<rect x="1546.36" y="127.92" width="398.13" height="119.97" style="fill:#47A447;fill-opacity:0.40"/>
	<rect x="1549.81" y="131.38" width="391.22" height="113.06" style="fill:none;stroke:#198D19;stroke-opacity:0.40;stroke-width:6.91"/>
	<rect x="2196.71" y="127.92" width="398.13" height="119.97" style="fill:#71B8FF;fill-opacity:0.40"/>
	<rect x="2200.16" y="131.38" width="391.22" height="113.06" style="fill:none;stroke:#4DA6FF;stroke-opacity:0.40;stroke-width:6.91"/>
	<rect x="3061.05" y="127.92" width="398.13" height="119.97" style="fill:#9D9D9D;fill-opacity:0.40"/>
	<rect x="3064.50" y="131.38" width="391.22" height="113.06" style="fill:none;stroke:#858585;stroke-opacity:0.40;stroke-width:6.91"/>
	<text x="2008.24" y="229.93" style="font-family:'Helvetica';font-size:119.97px;fill:#000000">I-8</text>
	<text x="2658.59" y="229.93" style="font-family:'Helvetica';font-size:119.97px;fill:#000000">NCD-7</text>
	<text x="3523.07" y="229.93" style="font-family:'Helvetica';font-size:119.97px;fill:#000000">All other causes</text>
</svg>
