<?xml version="1.0" encoding="UTF-8" standalone="no"?>
<!-- This is a Stata 16.0 generated SVG file (http://www.stata.com) -->

<svg version="1.1" width="6.20in" height="5.00in" viewBox="0 0 4464 3600" xmlns="http://www.w3.org/2000/svg" xmlns:xlink="http://www.w3.org/1999/xlink">
	<desc>Stata Graph - Graph</desc>
	<rect x="0" y="0" width="4464" height="3600" style="fill:#EAF2F3;stroke:none"/>
	<rect x="0.00" y="0.00" width="4463.86" height="3600.00" style="fill:#FFFFFF"/>
	<rect x="3.60" y="3.60" width="4456.66" height="3592.80" style="fill:none;stroke:#FFFFFF;stroke-width:7.20"/>
	<rect x="517.13" y="215.95" width="3766.78" height="3089.56" style="fill:#FFFFFF"/>
	<rect x="520.73" y="219.55" width="3759.58" height="3082.36" style="fill:none;stroke:#FFFFFF;stroke-width:7.20"/>
	<line x1="517.13" y1="3305.51" x2="4283.91" y2="3305.51" style="stroke:#000000;stroke-opacity:0.20;stroke-width:5.40"/>
	<line x1="517.13" y1="3151.08" x2="4283.91" y2="3151.08" style="stroke:#000000;stroke-opacity:0.20;stroke-width:5.40"/>
	<line x1="517.13" y1="2996.51" x2="4283.91" y2="2996.51" style="stroke:#000000;stroke-opacity:0.20;stroke-width:5.40"/>
	<line x1="517.13" y1="2842.08" x2="4283.91" y2="2842.08" style="stroke:#000000;stroke-opacity:0.20;stroke-width:5.40"/>
	<line x1="517.13" y1="2687.65" x2="4283.91" y2="2687.65" style="stroke:#000000;stroke-opacity:0.20;stroke-width:5.40"/>
	<line x1="517.13" y1="2533.09" x2="4283.91" y2="2533.09" style="stroke:#000000;stroke-opacity:0.20;stroke-width:5.40"/>
	<line x1="517.13" y1="2378.66" x2="4283.91" y2="2378.66" style="stroke:#000000;stroke-opacity:0.20;stroke-width:5.40"/>
	<line x1="517.13" y1="2224.23" x2="4283.91" y2="2224.23" style="stroke:#000000;stroke-opacity:0.20;stroke-width:5.40"/>
	<line x1="517.13" y1="2069.66" x2="4283.91" y2="2069.66" style="stroke:#000000;stroke-opacity:0.20;stroke-width:5.40"/>
	<line x1="517.13" y1="1915.23" x2="4283.91" y2="1915.23" style="stroke:#000000;stroke-opacity:0.20;stroke-width:5.40"/>
	<line x1="517.13" y1="1760.80" x2="4283.91" y2="1760.80" style="stroke:#000000;stroke-opacity:0.20;stroke-width:5.40"/>
	<line x1="517.13" y1="1606.23" x2="4283.91" y2="1606.23" style="stroke:#000000;stroke-opacity:0.20;stroke-width:5.40"/>
	<line x1="517.13" y1="1451.80" x2="4283.91" y2="1451.80" style="stroke:#000000;stroke-opacity:0.20;stroke-width:5.40"/>
	<line x1="517.13" y1="1297.37" x2="4283.91" y2="1297.37" style="stroke:#000000;stroke-opacity:0.20;stroke-width:5.40"/>
	<line x1="517.13" y1="1142.80" x2="4283.91" y2="1142.80" style="stroke:#000000;stroke-opacity:0.20;stroke-width:5.40"/>
	<line x1="517.13" y1="988.37" x2="4283.91" y2="988.37" style="stroke:#000000;stroke-opacity:0.20;stroke-width:5.40"/>
	<line x1="517.13" y1="833.95" x2="4283.91" y2="833.95" style="stroke:#000000;stroke-opacity:0.20;stroke-width:5.40"/>
	<line x1="517.13" y1="679.38" x2="4283.91" y2="679.38" style="stroke:#000000;stroke-opacity:0.20;stroke-width:5.40"/>
	<line x1="517.13" y1="524.95" x2="4283.91" y2="524.95" style="stroke:#000000;stroke-opacity:0.20;stroke-width:5.40"/>
	<line x1="517.13" y1="370.52" x2="4283.91" y2="370.52" style="stroke:#000000;stroke-opacity:0.20;stroke-width:5.40"/>
	<line x1="517.13" y1="215.95" x2="4283.91" y2="215.95" style="stroke:#000000;stroke-opacity:0.20;stroke-width:5.40"/>
	<line x1="517.13" y1="3305.51" x2="4283.91" y2="3305.51" style="stroke:#EAF2F3;stroke-width:10.80"/>
	<line x1="517.13" y1="2996.51" x2="4283.91" y2="2996.51" style="stroke:#EAF2F3;stroke-width:10.80"/>
	<line x1="517.13" y1="2687.65" x2="4283.91" y2="2687.65" style="stroke:#EAF2F3;stroke-width:10.80"/>
	<line x1="517.13" y1="2378.66" x2="4283.91" y2="2378.66" style="stroke:#EAF2F3;stroke-width:10.80"/>
	<line x1="517.13" y1="2069.66" x2="4283.91" y2="2069.66" style="stroke:#EAF2F3;stroke-width:10.80"/>
	<line x1="517.13" y1="1760.80" x2="4283.91" y2="1760.80" style="stroke:#EAF2F3;stroke-width:10.80"/>
	<line x1="517.13" y1="1451.80" x2="4283.91" y2="1451.80" style="stroke:#EAF2F3;stroke-width:10.80"/>
	<line x1="517.13" y1="1142.80" x2="4283.91" y2="1142.80" style="stroke:#EAF2F3;stroke-width:10.80"/>
	<line x1="517.13" y1="833.95" x2="4283.91" y2="833.95" style="stroke:#EAF2F3;stroke-width:10.80"/>
	<line x1="517.13" y1="524.95" x2="4283.91" y2="524.95" style="stroke:#EAF2F3;stroke-width:10.80"/>
	<line x1="517.13" y1="215.95" x2="4283.91" y2="215.95" style="stroke:#EAF2F3;stroke-width:10.80"/>
	<line x1="517.13" y1="3305.51" x2="517.13" y2="215.95" style="stroke:#000000;stroke-opacity:0.20;stroke-width:5.40"/>
	<line x1="782.32" y1="3305.51" x2="782.32" y2="215.95" style="stroke:#000000;stroke-opacity:0.20;stroke-width:5.40"/>
	<line x1="1047.64" y1="3305.51" x2="1047.64" y2="215.95" style="stroke:#000000;stroke-opacity:0.20;stroke-width:5.40"/>
	<line x1="1312.83" y1="3305.51" x2="1312.83" y2="215.95" style="stroke:#000000;stroke-opacity:0.20;stroke-width:5.40"/>
	<line x1="1578.16" y1="3305.51" x2="1578.16" y2="215.95" style="stroke:#000000;stroke-opacity:0.20;stroke-width:5.40"/>
	<line x1="1843.49" y1="3305.51" x2="1843.49" y2="215.95" style="stroke:#000000;stroke-opacity:0.20;stroke-width:5.40"/>
	<line x1="2108.68" y1="3305.51" x2="2108.68" y2="215.95" style="stroke:#000000;stroke-opacity:0.20;stroke-width:5.40"/>
	<line x1="2374.01" y1="3305.51" x2="2374.01" y2="215.95" style="stroke:#000000;stroke-opacity:0.20;stroke-width:5.40"/>
	<line x1="2639.20" y1="3305.51" x2="2639.20" y2="215.95" style="stroke:#000000;stroke-opacity:0.20;stroke-width:5.40"/>
	<line x1="2904.53" y1="3305.51" x2="2904.53" y2="215.95" style="stroke:#000000;stroke-opacity:0.20;stroke-width:5.40"/>
	<line x1="3169.72" y1="3305.51" x2="3169.72" y2="215.95" style="stroke:#000000;stroke-opacity:0.20;stroke-width:5.40"/>
	<line x1="3435.05" y1="3305.51" x2="3435.05" y2="215.95" style="stroke:#000000;stroke-opacity:0.20;stroke-width:5.40"/>
	<line x1="3700.38" y1="3305.51" x2="3700.38" y2="215.95" style="stroke:#000000;stroke-opacity:0.20;stroke-width:5.40"/>
	<line x1="3965.57" y1="3305.51" x2="3965.57" y2="215.95" style="stroke:#000000;stroke-opacity:0.20;stroke-width:5.40"/>
	<line x1="4230.90" y1="3305.51" x2="4230.90" y2="215.95" style="stroke:#000000;stroke-opacity:0.20;stroke-width:5.40"/>
	<path d=" M516.99 1246.45 L570.00 1262.50 L623.15 1294.72 L676.16 1316.62 L729.17 1351.50 L782.32 1371.03 L835.33 1390.00 L888.34 1396.42 L941.49 1423.48 L994.50 1423.48 L1047.51 1423.48 L1100.65 1423.48 L1153.66 1481.93 L1206.67 1496.72 L1259.82 1516.53 L1312.83 1516.53 L1365.84 1529.92 L1418.85 1551.55 L1472.00 1568.70 L1525.01 1581.12 L1578.02 1595.49 L1631.17 1601.91 L1684.18 1640.41 L1737.19 1663.99 L1790.34 1683.24 L1843.35 1705.28 L1896.36 1719.79 L1949.51 1747.69 L2002.52 1764.01 L2055.53 1783.96 L2108.68 1797.77 L2161.69 1816.04 L2214.70 1833.62 L2267.85 1847.15 L2320.86 1862.92 L2373.87 1878.12 L2427.02 1898.77 L2480.03 1915.51 L2533.04 1926.25 L2586.05 1939.64 L2639.20 1945.64 L2692.21 1955.82 L2745.22 1966.84 L2798.37 1972.70 L2851.38 1980.10 L2904.39 1992.23 L2957.54 2008.28 L3010.55 2025.02 L3063.56 2037.01 L3116.71 2047.90 L3169.72 2064.36 L3222.73 2078.31 L3275.88 2092.54 L3328.89 2106.49 L3381.90 2118.90 L3435.05 2136.20 L3488.06 2154.48 L3541.07 2171.77 L3594.22 2181.68 L3647.23 2200.37 L3700.24 2214.74 L3753.25 2228.97 L3806.40 2243.48 L3859.41 2256.03 L3912.42 2266.78 L3965.57 2276.54 L4018.58 2286.17 L4071.59 2295.79 L4124.74 2309.04 L4177.75 2319.79" stroke-linejoin="round" style="fill:none;stroke:#000000;stroke-width:10.80"/>
	<polygon points="1773.78,1709.88 1843.35,1640.31 1912.93,1709.88 1843.35,1779.46" style="fill:#000000"/>
	<polygon points="1781.41,1709.88 1843.35,1647.94 1905.29,1709.88 1843.35,1771.82" style="fill:none;stroke:#000000;stroke-width:10.80"/>
	<circle cx="3169.72" cy="2073.70" r="49.20" style="fill:#FF3333"/>
	<circle cx="3169.72" cy="2073.70" r="43.80" style="fill:none;stroke:#FF3333;stroke-width:10.80"/>
	<rect x="3438.86" y="2115.87" width="98.41" height="98.41" style="fill:#FF7F00"/>
	<rect x="3444.26" y="2121.27" width="87.61" height="87.61" style="fill:none;stroke:#FF7F00;stroke-width:10.80"/>
	<line x1="517.13" y1="3305.51" x2="492.02" y2="3305.51" style="stroke:#000000;stroke-width:7.20"/>
	<line x1="517.13" y1="3151.08" x2="492.02" y2="3151.08" style="stroke:#000000;stroke-width:7.20"/>
	<line x1="517.13" y1="2996.51" x2="492.02" y2="2996.51" style="stroke:#000000;stroke-width:7.20"/>
	<line x1="517.13" y1="2842.08" x2="492.02" y2="2842.08" style="stroke:#000000;stroke-width:7.20"/>
	<line x1="517.13" y1="2687.65" x2="492.02" y2="2687.65" style="stroke:#000000;stroke-width:7.20"/>
	<line x1="517.13" y1="2533.09" x2="492.02" y2="2533.09" style="stroke:#000000;stroke-width:7.20"/>
	<line x1="517.13" y1="2378.66" x2="492.02" y2="2378.66" style="stroke:#000000;stroke-width:7.20"/>
	<line x1="517.13" y1="2224.23" x2="492.02" y2="2224.23" style="stroke:#000000;stroke-width:7.20"/>
	<line x1="517.13" y1="2069.66" x2="492.02" y2="2069.66" style="stroke:#000000;stroke-width:7.20"/>
	<line x1="517.13" y1="1915.23" x2="492.02" y2="1915.23" style="stroke:#000000;stroke-width:7.20"/>
	<line x1="517.13" y1="1760.80" x2="492.02" y2="1760.80" style="stroke:#000000;stroke-width:7.20"/>
	<line x1="517.13" y1="1606.23" x2="492.02" y2="1606.23" style="stroke:#000000;stroke-width:7.20"/>
	<line x1="517.13" y1="1451.80" x2="492.02" y2="1451.80" style="stroke:#000000;stroke-width:7.20"/>
	<line x1="517.13" y1="1297.37" x2="492.02" y2="1297.37" style="stroke:#000000;stroke-width:7.20"/>
	<line x1="517.13" y1="1142.80" x2="492.02" y2="1142.80" style="stroke:#000000;stroke-width:7.20"/>
	<line x1="517.13" y1="988.37" x2="492.02" y2="988.37" style="stroke:#000000;stroke-width:7.20"/>
	<line x1="517.13" y1="833.95" x2="492.02" y2="833.95" style="stroke:#000000;stroke-width:7.20"/>
	<line x1="517.13" y1="679.38" x2="492.02" y2="679.38" style="stroke:#000000;stroke-width:7.20"/>
	<line x1="517.13" y1="524.95" x2="492.02" y2="524.95" style="stroke:#000000;stroke-width:7.20"/>
	<line x1="517.13" y1="370.52" x2="492.02" y2="370.52" style="stroke:#000000;stroke-width:7.20"/>
	<line x1="517.13" y1="215.95" x2="492.02" y2="215.95" style="stroke:#000000;stroke-width:7.20"/>
	<line x1="517.13" y1="3305.51" x2="467.05" y2="3305.51" style="stroke:#000000;stroke-width:7.20"/>
	<text x="442.08" y="3344.07" style="font-family:'Helvetica';font-size:110.07px;fill:#000000" text-anchor="end">0</text>
	<line x1="517.13" y1="2996.51" x2="467.05" y2="2996.51" style="stroke:#000000;stroke-width:7.20"/>
	<text x="442.08" y="3035.07" style="font-family:'Helvetica';font-size:110.07px;fill:#000000" text-anchor="end">10</text>
	<line x1="517.13" y1="2687.65" x2="467.05" y2="2687.65" style="stroke:#000000;stroke-width:7.20"/>
	<text x="442.08" y="2726.21" style="font-family:'Helvetica';font-size:110.07px;fill:#000000" text-anchor="end">20</text>
	<line x1="517.13" y1="2378.66" x2="467.05" y2="2378.66" style="stroke:#000000;stroke-width:7.20"/>
	<text x="442.08" y="2417.21" style="font-family:'Helvetica';font-size:110.07px;fill:#000000" text-anchor="end">30</text>
	<line x1="517.13" y1="2069.66" x2="467.05" y2="2069.66" style="stroke:#000000;stroke-width:7.20"/>
	<text x="442.08" y="2108.22" style="font-family:'Helvetica';font-size:110.07px;fill:#000000" text-anchor="end">40</text>
	<line x1="517.13" y1="1760.80" x2="467.05" y2="1760.80" style="stroke:#000000;stroke-width:7.20"/>
	<text x="442.08" y="1799.36" style="font-family:'Helvetica';font-size:110.07px;fill:#000000" text-anchor="end">50</text>
	<line x1="517.13" y1="1451.80" x2="467.05" y2="1451.80" style="stroke:#000000;stroke-width:7.20"/>
	<text x="442.08" y="1490.36" style="font-family:'Helvetica';font-size:110.07px;fill:#000000" text-anchor="end">60</text>
	<line x1="517.13" y1="1142.80" x2="467.05" y2="1142.80" style="stroke:#000000;stroke-width:7.20"/>
	<text x="442.08" y="1181.36" style="font-family:'Helvetica';font-size:110.07px;fill:#000000" text-anchor="end">70</text>
	<line x1="517.13" y1="833.95" x2="467.05" y2="833.95" style="stroke:#000000;stroke-width:7.20"/>
	<text x="442.08" y="872.50" style="font-family:'Helvetica';font-size:110.07px;fill:#000000" text-anchor="end">80</text>
	<line x1="517.13" y1="524.95" x2="467.05" y2="524.95" style="stroke:#000000;stroke-width:7.20"/>
	<text x="442.08" y="563.51" style="font-family:'Helvetica';font-size:110.07px;fill:#000000" text-anchor="end">90</text>
	<line x1="517.13" y1="215.95" x2="467.05" y2="215.95" style="stroke:#000000;stroke-width:7.20"/>
	<text x="442.08" y="254.51" style="font-family:'Helvetica';font-size:110.07px;fill:#000000" text-anchor="end">100</text>
	<line x1="517.13" y1="3305.51" x2="517.13" y2="215.95" style="stroke:#000000;stroke-width:10.80"/>
	<text x="173.93" y="1760.80" style="font-family:'Helvetica';font-size:110.07px;fill:#000000" transform="rotate(-90 173.93,1760.80)" text-anchor="middle">PPD, %</text>
	<line x1="517.13" y1="3305.51" x2="517.13" y2="3330.48" style="stroke:#000000;stroke-width:7.20"/>
	<line x1="782.32" y1="3305.51" x2="782.32" y2="3330.48" style="stroke:#000000;stroke-width:7.20"/>
	<line x1="1047.64" y1="3305.51" x2="1047.64" y2="3330.48" style="stroke:#000000;stroke-width:7.20"/>
	<line x1="1312.83" y1="3305.51" x2="1312.83" y2="3330.48" style="stroke:#000000;stroke-width:7.20"/>
	<line x1="1578.16" y1="3305.51" x2="1578.16" y2="3330.48" style="stroke:#000000;stroke-width:7.20"/>
	<line x1="1843.49" y1="3305.51" x2="1843.49" y2="3330.48" style="stroke:#000000;stroke-width:7.20"/>
	<line x1="2108.68" y1="3305.51" x2="2108.68" y2="3330.48" style="stroke:#000000;stroke-width:7.20"/>
	<line x1="2374.01" y1="3305.51" x2="2374.01" y2="3330.48" style="stroke:#000000;stroke-width:7.20"/>
	<line x1="2639.20" y1="3305.51" x2="2639.20" y2="3330.48" style="stroke:#000000;stroke-width:7.20"/>
	<line x1="2904.53" y1="3305.51" x2="2904.53" y2="3330.48" style="stroke:#000000;stroke-width:7.20"/>
	<line x1="3169.72" y1="3305.51" x2="3169.72" y2="3330.48" style="stroke:#000000;stroke-width:7.20"/>
	<line x1="3435.05" y1="3305.51" x2="3435.05" y2="3330.48" style="stroke:#000000;stroke-width:7.20"/>
	<line x1="3700.38" y1="3305.51" x2="3700.38" y2="3330.48" style="stroke:#000000;stroke-width:7.20"/>
	<line x1="3965.57" y1="3305.51" x2="3965.57" y2="3330.48" style="stroke:#000000;stroke-width:7.20"/>
	<line x1="4230.90" y1="3305.51" x2="4230.90" y2="3330.48" style="stroke:#000000;stroke-width:7.20"/>
	<line x1="517.13" y1="3305.51" x2="517.13" y2="3355.45" style="stroke:#000000;stroke-width:7.20"/>
	<text x="517.13" y="3457.54" style="font-family:'Helvetica';font-size:110.07px;fill:#000000" text-anchor="middle">1950</text>
	<line x1="1047.64" y1="3305.51" x2="1047.64" y2="3355.45" style="stroke:#000000;stroke-width:7.20"/>
	<text x="1047.64" y="3457.54" style="font-family:'Helvetica';font-size:110.07px;fill:#000000" text-anchor="middle">1960</text>
	<line x1="1578.16" y1="3305.51" x2="1578.16" y2="3355.45" style="stroke:#000000;stroke-width:7.20"/>
	<text x="1578.16" y="3457.54" style="font-family:'Helvetica';font-size:110.07px;fill:#000000" text-anchor="middle">1970</text>
	<line x1="2108.68" y1="3305.51" x2="2108.68" y2="3355.45" style="stroke:#000000;stroke-width:7.20"/>
	<text x="2108.68" y="3457.54" style="font-family:'Helvetica';font-size:110.07px;fill:#000000" text-anchor="middle">1980</text>
	<line x1="2639.20" y1="3305.51" x2="2639.20" y2="3355.45" style="stroke:#000000;stroke-width:7.20"/>
	<text x="2639.20" y="3457.54" style="font-family:'Helvetica';font-size:110.07px;fill:#000000" text-anchor="middle">1990</text>
	<line x1="3169.72" y1="3305.51" x2="3169.72" y2="3355.45" style="stroke:#000000;stroke-width:7.20"/>
	<text x="3169.72" y="3457.54" style="font-family:'Helvetica';font-size:110.07px;fill:#000000" text-anchor="middle">2000</text>
	<line x1="3700.38" y1="3305.51" x2="3700.38" y2="3355.45" style="stroke:#000000;stroke-width:7.20"/>
	<text x="3700.38" y="3457.54" style="font-family:'Helvetica';font-size:110.07px;fill:#000000" text-anchor="middle">2010</text>
	<line x1="4230.90" y1="3305.51" x2="4230.90" y2="3355.45" style="stroke:#000000;stroke-width:7.20"/>
	<text x="4230.90" y="3457.54" style="font-family:'Helvetica';font-size:110.07px;fill:#000000" text-anchor="middle">2020</text>
	<line x1="517.13" y1="3305.51" x2="4230.90" y2="3305.51" style="stroke:#000000;stroke-width:10.80"/>
	<rect x="3086.44" y="259.20" width="1154.22" height="523.27" style="fill:#FFFFFF"/>
	<rect x="3090.04" y="262.80" width="1147.02" height="516.07" style="fill:none;stroke:#FFFFFF;stroke-width:7.20"/>
	<polygon points="3107.40,356.01 3176.97,286.44 3246.55,356.01 3176.97,425.58" style="fill:#000000"/>
	<polygon points="3115.03,356.01 3176.97,294.07 3238.91,356.01 3176.97,417.95" style="fill:none;stroke:#000000;stroke-width:10.80"/>
	<circle cx="3176.97" cy="520.76" r="49.20" style="fill:#FF3333"/>
	<circle cx="3176.97" cy="520.76" r="43.80" style="fill:none;stroke:#FF3333;stroke-width:10.80"/>
	<rect x="3127.77" y="636.45" width="98.41" height="98.41" style="fill:#FF7F00"/>
	<rect x="3133.17" y="641.85" width="87.61" height="87.61" style="fill:none;stroke:#FF7F00;stroke-width:10.80"/>
	<text x="4193.93" y="391.05" style="font-family:'Helvetica';font-size:100.02px;fill:#000000" text-anchor="end">Sub-Saharan Africa</text>
	<text x="3852.71" y="555.81" style="font-family:'Helvetica';font-size:100.02px;fill:#000000" text-anchor="end">Central Asia</text>
	<text x="3511.49" y="720.70" style="font-family:'Helvetica';font-size:100.02px;fill:#000000" text-anchor="end">India</text>
</svg>
