<?xml version="1.0" encoding="UTF-8" standalone="no"?>
<!-- This is a Stata 16.0 generated SVG file (http://www.stata.com) -->

<svg version="1.1" width="6.20in" height="7.00in" viewBox="0 0 4464 5040" xmlns="http://www.w3.org/2000/svg" xmlns:xlink="http://www.w3.org/1999/xlink">
	<desc>Stata Graph - Graph</desc>
	<rect x="0" y="0" width="4464" height="5040" style="fill:#EAF2F3;stroke:none"/>
	<rect x="0.00" y="0.16" width="4464.00" height="5039.84" style="fill:#FFFFFF"/>
	<rect x="4.46" y="4.62" width="4455.07" height="5030.91" style="fill:none;stroke:#FFFFFF;stroke-width:8.93"/>
	<rect x="567.80" y="89.46" width="3315.95" height="3182.60" style="fill:#FFFFFF"/>
	<rect x="572.27" y="93.92" width="3307.02" height="3173.67" style="fill:none;stroke:#FFFFFF;stroke-width:8.93"/>
	<line x1="567.80" y1="3272.06" x2="3883.75" y2="3272.06" style="stroke:#000000;stroke-opacity:0.20;stroke-width:6.70"/>
	<line x1="567.80" y1="3072.51" x2="3883.75" y2="3072.51" style="stroke:#000000;stroke-opacity:0.20;stroke-width:6.70"/>
	<line x1="567.80" y1="2872.80" x2="3883.75" y2="2872.80" style="stroke:#000000;stroke-opacity:0.20;stroke-width:6.70"/>
	<line x1="567.80" y1="2673.25" x2="3883.75" y2="2673.25" style="stroke:#000000;stroke-opacity:0.20;stroke-width:6.70"/>
	<line x1="567.80" y1="2473.70" x2="3883.75" y2="2473.70" style="stroke:#000000;stroke-opacity:0.20;stroke-width:6.70"/>
	<line x1="567.80" y1="2273.99" x2="3883.75" y2="2273.99" style="stroke:#000000;stroke-opacity:0.20;stroke-width:6.70"/>
	<line x1="567.80" y1="2074.43" x2="3883.75" y2="2074.43" style="stroke:#000000;stroke-opacity:0.20;stroke-width:6.70"/>
	<line x1="567.80" y1="1874.88" x2="3883.75" y2="1874.88" style="stroke:#000000;stroke-opacity:0.20;stroke-width:6.70"/>
	<line x1="567.80" y1="1675.17" x2="3883.75" y2="1675.17" style="stroke:#000000;stroke-opacity:0.20;stroke-width:6.70"/>
	<line x1="567.80" y1="1475.62" x2="3883.75" y2="1475.62" style="stroke:#000000;stroke-opacity:0.20;stroke-width:6.70"/>
	<line x1="567.80" y1="1276.07" x2="3883.75" y2="1276.07" style="stroke:#000000;stroke-opacity:0.20;stroke-width:6.70"/>
	<line x1="567.80" y1="1076.36" x2="3883.75" y2="1076.36" style="stroke:#000000;stroke-opacity:0.20;stroke-width:6.70"/>
	<line x1="567.80" y1="876.80" x2="3883.75" y2="876.80" style="stroke:#000000;stroke-opacity:0.20;stroke-width:6.70"/>
	<line x1="567.80" y1="677.25" x2="3883.75" y2="677.25" style="stroke:#000000;stroke-opacity:0.20;stroke-width:6.70"/>
	<line x1="567.80" y1="477.54" x2="3883.75" y2="477.54" style="stroke:#000000;stroke-opacity:0.20;stroke-width:6.70"/>
	<line x1="567.80" y1="277.99" x2="3883.75" y2="277.99" style="stroke:#000000;stroke-opacity:0.20;stroke-width:6.70"/>
	<line x1="567.80" y1="3272.06" x2="3883.75" y2="3272.06" style="stroke:#EAF2F3;stroke-width:13.39"/>
	<line x1="567.80" y1="2872.80" x2="3883.75" y2="2872.80" style="stroke:#EAF2F3;stroke-width:13.39"/>
	<line x1="567.80" y1="2473.70" x2="3883.75" y2="2473.70" style="stroke:#EAF2F3;stroke-width:13.39"/>
	<line x1="567.80" y1="2074.43" x2="3883.75" y2="2074.43" style="stroke:#EAF2F3;stroke-width:13.39"/>
	<line x1="567.80" y1="1675.17" x2="3883.75" y2="1675.17" style="stroke:#EAF2F3;stroke-width:13.39"/>
	<line x1="567.80" y1="1276.07" x2="3883.75" y2="1276.07" style="stroke:#EAF2F3;stroke-width:13.39"/>
	<line x1="567.80" y1="876.80" x2="3883.75" y2="876.80" style="stroke:#EAF2F3;stroke-width:13.39"/>
	<line x1="567.80" y1="477.54" x2="3883.75" y2="477.54" style="stroke:#EAF2F3;stroke-width:13.39"/>
	<line x1="567.80" y1="3272.06" x2="567.80" y2="89.46" style="stroke:#000000;stroke-opacity:0.20;stroke-width:6.70"/>
	<line x1="837.61" y1="3272.06" x2="837.61" y2="89.46" style="stroke:#000000;stroke-opacity:0.20;stroke-width:6.70"/>
	<line x1="1107.42" y1="3272.06" x2="1107.42" y2="89.46" style="stroke:#000000;stroke-opacity:0.20;stroke-width:6.70"/>
	<line x1="1377.22" y1="3272.06" x2="1377.22" y2="89.46" style="stroke:#000000;stroke-opacity:0.20;stroke-width:6.70"/>
	<line x1="1647.03" y1="3272.06" x2="1647.03" y2="89.46" style="stroke:#000000;stroke-opacity:0.20;stroke-width:6.70"/>
	<line x1="1916.83" y1="3272.06" x2="1916.83" y2="89.46" style="stroke:#000000;stroke-opacity:0.20;stroke-width:6.70"/>
	<line x1="2186.64" y1="3272.06" x2="2186.64" y2="89.46" style="stroke:#000000;stroke-opacity:0.20;stroke-width:6.70"/>
	<line x1="2456.44" y1="3272.06" x2="2456.44" y2="89.46" style="stroke:#000000;stroke-opacity:0.20;stroke-width:6.70"/>
	<line x1="2726.25" y1="3272.06" x2="2726.25" y2="89.46" style="stroke:#000000;stroke-opacity:0.20;stroke-width:6.70"/>
	<line x1="2996.06" y1="3272.06" x2="2996.06" y2="89.46" style="stroke:#000000;stroke-opacity:0.20;stroke-width:6.70"/>
	<line x1="3265.86" y1="3272.06" x2="3265.86" y2="89.46" style="stroke:#000000;stroke-opacity:0.20;stroke-width:6.70"/>
	<line x1="3535.82" y1="3272.06" x2="3535.82" y2="89.46" style="stroke:#000000;stroke-opacity:0.20;stroke-width:6.70"/>
	<line x1="3805.63" y1="3272.06" x2="3805.63" y2="89.46" style="stroke:#000000;stroke-opacity:0.20;stroke-width:6.70"/>
	<path d=" M1294.69 613.46 L1302.25 619.29 L1309.65 625.27 L1317.05 631.10 L1324.46 636.93 L1331.86 642.91 L1339.26 648.74 L1346.67 654.73 L1354.07 660.56 L1361.47 666.38 L1368.87 672.37 L1376.28 678.19 L1383.84 684.02 L1391.24 690.01 L1398.64 695.84 L1406.05 701.82 L1413.45 707.65 L1420.85 713.48 L1428.25 719.46 L1435.66 725.29 L1443.06 731.11 L1450.46 737.10 L1458.02 742.93 L1465.42 748.91 L1472.83 754.74 L1480.23 760.57 L1487.63 766.55 L1495.04 772.38 L1502.44 778.21 L1509.84 784.19 L1517.24 790.02 L1524.65 796.01 L1532.21 801.83 L1539.61 807.66 L1547.01 813.65 L1554.41 819.47 L1561.82 825.30 L1569.22 831.28 L1576.62 837.11 L1584.03 843.10 L1591.43 848.93 L1598.83 854.75 L1606.23 860.74 L1613.79 866.56 L1621.20 872.55 L1628.60 878.38 L1636.00 884.20 L1643.40 890.19 L1650.81 896.02 L1658.21 901.85 L1665.61 907.83 L1673.02 913.66 L1680.42 919.64 L1687.98 925.47 L1695.38 931.30 L1702.78 937.28 L1710.19 943.11 L1717.59 948.94 L1724.99 954.92 L1732.39 960.75 L1739.80 966.74 L1747.20 972.56 L1754.60 978.39 L1762.01 984.38 L1769.57 990.20 L1776.97 996.03 L1784.37 1002.01 L1791.77 1007.84 L1799.18 1013.83 L1806.58 1019.66 L1813.98 1025.48 L1821.39 1031.47 L1828.79 1037.30 L1836.19 1043.12 L1843.75 1049.11 L1851.15 1054.93 L1858.56 1060.92 L1865.96 1066.75 L1873.36 1072.57 L1880.76 1078.56 L1888.17 1084.39 L1895.57 1090.22 L1902.97 1096.20 L1910.38 1102.03 L1917.94 1108.01 L1925.34 1113.84 L1932.74 1119.67 L1940.14 1125.65 L1947.55 1131.48 L1954.95 1137.31 L1962.35 1143.29 L1969.75 1149.12 L1977.16 1155.11 L1984.56 1160.93 L1991.96 1166.76 L1999.52 1172.74 L2006.93 1178.57 L2014.33 1184.40 L2021.73 1190.39 L2029.13 1196.21 L2036.54 1202.20 L2043.94 1208.03 L2051.34 1213.85 L2058.74 1219.84 L2066.15 1225.66 L2073.71 1231.65 L2081.11 1237.48 L2088.51 1243.30 L2095.92 1249.29 L2103.32 1255.12 L2110.72 1260.95 L2118.12 1266.93 L2125.53 1272.76 L2132.93 1278.74 L2140.33 1284.57 L2147.89 1290.40 L2155.30 1296.38 L2162.70 1302.21 L2170.10 1308.04 L2177.50 1314.02 L2184.91 1319.85 L2192.31 1325.84 L2199.71 1331.66 L2207.11 1337.49 L2214.52 1343.47 L2221.92 1349.30 L2229.48 1355.13 L2236.88 1361.11 L2244.29 1366.94 L2251.69 1372.93 L2259.09 1378.76 L2266.49 1384.58 L2273.90 1390.57 L2281.30 1396.39 L2288.70 1402.22 L2296.10 1408.21 L2303.66 1414.03 L2311.07 1420.02 L2318.47 1425.85 L2325.87 1431.68 L2333.28 1437.66 L2340.68 1443.49 L2348.08 1449.32 L2355.48 1455.30 L2362.89 1461.13 L2370.29 1467.11 L2377.69 1472.94 L2385.25 1478.77 L2392.65 1484.75 L2400.06 1490.58 L2407.46 1496.41 L2414.86 1502.39 L2422.27 1508.22 L2429.67 1514.20 L2437.07 1520.03 L2444.47 1525.86 L2451.88 1531.84 L2459.44 1537.67 L2466.84 1543.66 L2474.24 1549.49 L2481.65 1555.31 L2489.05 1561.30 L2496.45 1567.13 L2503.85 1572.95 L2511.26 1578.94 L2518.66 1584.76 L2526.06 1590.75 L2533.62 1596.58 L2541.02 1602.41 L2548.43 1608.39 L2555.83 1614.22 L2563.23 1620.05 L2570.64 1626.03 L2578.04 1631.86 L2585.44 1637.84 L2592.84 1643.67 L2600.25 1649.50 L2607.65 1655.48 L2615.21 1661.31 L2622.61 1667.14 L2630.01 1673.12 L2637.42 1678.95 L2644.82 1684.93 L2652.22 1690.76 L2659.63 1696.59 L2667.03 1702.57 L2674.43 1708.40 L2681.83 1714.23 L2689.39 1720.22 L2696.80 1726.04 L2704.20 1732.03 L2711.60 1737.86 L2719.00 1743.68 L2726.41 1749.67 L2733.81 1755.49 L2741.21 1761.32 L2748.62 1767.31 L2756.02 1773.14 L2763.42 1779.12 L2770.98 1784.95 L2778.38 1790.78 L2785.79 1796.76 L2793.19 1802.59 L2800.59 1808.41 L2807.99 1814.40 L2815.40 1820.23 L2822.80 1826.21 L2830.20 1832.04 L2837.61 1837.87 L2845.17 1843.85 L2852.57 1849.68 L2859.97 1855.66 L2867.37 1861.49 L2874.78 1867.32 L2882.18 1873.30 L2889.58 1879.13 L2896.99 1884.96 L2904.39 1890.95 L2911.79 1896.77 L2919.35 1902.76 L2926.75 1908.59 L2934.16 1914.41 L2941.56 1920.40 L2948.96 1926.22 L2956.36 1932.05 L2963.77 1938.04 L2971.17 1943.86 L2978.57 1949.85 L2985.98 1955.68 L2993.38 1961.51 L3000.94 1967.49 L3008.34 1973.32 L3015.74 1979.14 L3023.15 1985.13 L3030.55 1990.96 L3037.95 1996.94 L3045.35 2002.77 L3052.76 2008.60 L3060.16 2014.58 L3067.56 2020.41 L3075.12 2026.24 L3082.53 2032.22 L3089.93 2038.05 L3097.33 2044.03 L3104.73 2049.86 L3112.14 2055.69 L3119.54 2061.68 L3126.94 2067.50 L3134.34 2073.33 L3141.75 2079.32 L3149.31 2085.14 L3156.71 2091.13 L3164.11 2096.95 L3171.52 2102.78 L3178.92 2108.77 L3186.32 2114.59 L3193.72 2120.42 L3201.13 2126.41 L3208.53 2132.24 L3215.93 2138.22 L3223.33 2144.05 L3230.90 2149.88 L3238.30 2155.86 L3245.70 2161.69 L3253.10 2167.67 L3260.51 2173.50 L3267.91 2179.33 L3275.31 2185.31 L3282.71 2191.14 L3290.12 2196.97 L3297.52 2202.95 L3305.08 2208.78 L3312.48 2214.76 L3319.89 2220.59 L3327.29 2226.42 L3334.69 2232.41 L3342.09 2238.23 L3349.50 2244.06 L3356.90 2250.05 L3364.30 2255.87 L3371.70 2261.86 L3379.11 2267.68 L3386.67 2273.51 L3394.07 2279.50 L3401.47 2285.32 L3408.88 2291.15 L3416.28 2297.14 L3423.68 2302.97 L3431.08 2308.95 L3438.49 2314.78 L3445.89 2320.61 L3453.29 2326.59 L3460.85 2332.42 L3468.25 2338.24 L3475.66 2344.23 L3483.06 2350.06 L3490.46 2356.04 L3497.87 2361.87 L3505.27 2367.70 L3512.67 2373.68 L3520.07 2379.51 L3527.48 2385.34 L3535.04 2391.32 L3542.44 2397.15 L3549.84 2403.14 L3557.25 2408.96 L3564.65 2414.79 L3572.05 2420.78 L3579.45 2426.60 L3586.86 2432.43 L3594.26 2438.41 L3601.66 2444.24 L3609.06 2450.23 L3616.62 2456.05 L3624.03 2461.88 L3631.43 2467.87 L3638.83 2473.70 L3646.24 2479.68 L3653.64 2485.51 L3661.04 2491.34 L3668.44 2497.32 L3675.85 2503.15 L3683.25 2508.97 L3690.81 2514.96 L3698.21 2520.79 L3705.61 2526.77 L3713.02 2532.60 L3720.42 2538.43 L3727.82 2544.41" stroke-linejoin="round" style="fill:none;stroke:#999999;stroke-width:13.39"/>
	<line x1="634.59" y1="89.46" x2="641.99" y2="95.44" style="stroke:#999999;stroke-width:13.39"/>
	<line x1="641.99" y1="95.44" x2="649.39" y2="101.27" style="stroke:#999999;stroke-width:13.39"/>
	<line x1="649.39" y1="101.27" x2="656.79" y2="107.10" style="stroke:#999999;stroke-width:13.39"/>
	<line x1="656.79" y1="107.10" x2="662.62" y2="111.67" style="stroke:#999999;stroke-width:13.39"/>
	<line x1="687.04" y1="131.04" x2="693.97" y2="136.55" style="stroke:#999999;stroke-width:13.39"/>
	<line x1="693.97" y1="136.55" x2="701.37" y2="142.54" style="stroke:#999999;stroke-width:13.39"/>
	<line x1="701.37" y1="142.54" x2="708.77" y2="148.36" style="stroke:#999999;stroke-width:13.39"/>
	<line x1="708.77" y1="148.36" x2="715.07" y2="153.25" style="stroke:#999999;stroke-width:13.39"/>
	<line x1="739.48" y1="172.78" x2="745.79" y2="177.82" style="stroke:#999999;stroke-width:13.39"/>
	<line x1="745.79" y1="177.82" x2="753.19" y2="183.65" style="stroke:#999999;stroke-width:13.39"/>
	<line x1="753.19" y1="183.65" x2="760.59" y2="189.63" style="stroke:#999999;stroke-width:13.39"/>
	<line x1="760.59" y1="189.63" x2="767.36" y2="194.98" style="stroke:#999999;stroke-width:13.39"/>
	<line x1="791.93" y1="214.36" x2="797.76" y2="219.08" style="stroke:#999999;stroke-width:13.39"/>
	<line x1="797.76" y1="219.08" x2="805.16" y2="224.91" style="stroke:#999999;stroke-width:13.39"/>
	<line x1="805.16" y1="224.91" x2="812.57" y2="230.74" style="stroke:#999999;stroke-width:13.39"/>
	<line x1="812.57" y1="230.74" x2="819.81" y2="236.72" style="stroke:#999999;stroke-width:13.39"/>
	<line x1="844.38" y1="255.94" x2="849.74" y2="260.19" style="stroke:#999999;stroke-width:13.39"/>
	<line x1="849.74" y1="260.19" x2="857.14" y2="266.18" style="stroke:#999999;stroke-width:13.39"/>
	<line x1="857.14" y1="266.18" x2="864.54" y2="272.00" style="stroke:#999999;stroke-width:13.39"/>
	<line x1="864.54" y1="272.00" x2="871.95" y2="277.83" style="stroke:#999999;stroke-width:13.39"/>
	<line x1="871.95" y1="277.83" x2="872.42" y2="278.15" style="stroke:#999999;stroke-width:13.39"/>
	<line x1="896.83" y1="297.68" x2="901.56" y2="301.45" style="stroke:#999999;stroke-width:13.39"/>
	<line x1="901.56" y1="301.45" x2="908.96" y2="307.28" style="stroke:#999999;stroke-width:13.39"/>
	<line x1="908.96" y1="307.28" x2="916.52" y2="313.27" style="stroke:#999999;stroke-width:13.39"/>
	<line x1="916.52" y1="313.27" x2="923.92" y2="319.10" style="stroke:#999999;stroke-width:13.39"/>
	<line x1="923.92" y1="319.10" x2="924.87" y2="319.88" style="stroke:#999999;stroke-width:13.39"/>
	<line x1="949.28" y1="339.26" x2="953.53" y2="342.72" style="stroke:#999999;stroke-width:13.39"/>
	<line x1="953.53" y1="342.72" x2="960.94" y2="348.55" style="stroke:#999999;stroke-width:13.39"/>
	<line x1="960.94" y1="348.55" x2="968.34" y2="354.38" style="stroke:#999999;stroke-width:13.39"/>
	<line x1="968.34" y1="354.38" x2="975.74" y2="360.36" style="stroke:#999999;stroke-width:13.39"/>
	<line x1="975.74" y1="360.36" x2="977.32" y2="361.62" style="stroke:#999999;stroke-width:13.39"/>
	<line x1="1001.73" y1="380.84" x2="1005.51" y2="383.83" style="stroke:#999999;stroke-width:13.39"/>
	<line x1="1005.51" y1="383.83" x2="1012.91" y2="389.81" style="stroke:#999999;stroke-width:13.39"/>
	<line x1="1012.91" y1="389.81" x2="1020.32" y2="395.64" style="stroke:#999999;stroke-width:13.39"/>
	<line x1="1020.32" y1="395.64" x2="1027.72" y2="401.47" style="stroke:#999999;stroke-width:13.39"/>
	<line x1="1027.72" y1="401.47" x2="1029.77" y2="403.20" style="stroke:#999999;stroke-width:13.39"/>
	<line x1="1054.18" y1="422.57" x2="1057.33" y2="425.09" style="stroke:#999999;stroke-width:13.39"/>
	<line x1="1057.33" y1="425.09" x2="1064.73" y2="430.92" style="stroke:#999999;stroke-width:13.39"/>
	<line x1="1064.73" y1="430.92" x2="1072.29" y2="436.90" style="stroke:#999999;stroke-width:13.39"/>
	<line x1="1072.29" y1="436.90" x2="1079.70" y2="442.73" style="stroke:#999999;stroke-width:13.39"/>
	<line x1="1079.70" y1="442.73" x2="1082.22" y2="444.62" style="stroke:#999999;stroke-width:13.39"/>
	<line x1="1106.63" y1="463.99" x2="1109.31" y2="466.20" style="stroke:#999999;stroke-width:13.39"/>
	<line x1="1109.31" y1="466.20" x2="1116.71" y2="472.19" style="stroke:#999999;stroke-width:13.39"/>
	<line x1="1116.71" y1="472.19" x2="1124.11" y2="478.01" style="stroke:#999999;stroke-width:13.39"/>
	<line x1="1124.11" y1="478.01" x2="1131.51" y2="484.00" style="stroke:#999999;stroke-width:13.39"/>
	<line x1="1131.51" y1="484.00" x2="1134.51" y2="486.36" style="stroke:#999999;stroke-width:13.39"/>
	<line x1="1159.08" y1="505.73" x2="1161.28" y2="507.47" style="stroke:#999999;stroke-width:13.39"/>
	<line x1="1161.28" y1="507.47" x2="1168.69" y2="513.29" style="stroke:#999999;stroke-width:13.39"/>
	<line x1="1168.69" y1="513.29" x2="1176.09" y2="519.28" style="stroke:#999999;stroke-width:13.39"/>
	<line x1="1176.09" y1="519.28" x2="1183.49" y2="525.10" style="stroke:#999999;stroke-width:13.39"/>
	<line x1="1183.49" y1="525.10" x2="1187.11" y2="527.94" style="stroke:#999999;stroke-width:13.39"/>
	<line x1="1211.53" y1="547.47" x2="1213.10" y2="548.73" style="stroke:#999999;stroke-width:13.39"/>
	<line x1="1213.10" y1="548.73" x2="1220.50" y2="554.56" style="stroke:#999999;stroke-width:13.39"/>
	<line x1="1220.50" y1="554.56" x2="1228.06" y2="560.54" style="stroke:#999999;stroke-width:13.39"/>
	<line x1="1228.06" y1="560.54" x2="1235.47" y2="566.37" style="stroke:#999999;stroke-width:13.39"/>
	<line x1="1235.47" y1="566.37" x2="1239.72" y2="569.52" style="stroke:#999999;stroke-width:13.39"/>
	<line x1="1264.13" y1="589.05" x2="1265.08" y2="589.84" style="stroke:#999999;stroke-width:13.39"/>
	<line x1="1265.08" y1="589.84" x2="1272.48" y2="595.82" style="stroke:#999999;stroke-width:13.39"/>
	<line x1="1272.48" y1="595.82" x2="1279.88" y2="601.65" style="stroke:#999999;stroke-width:13.39"/>
	<line x1="1279.88" y1="601.65" x2="1287.29" y2="607.64" style="stroke:#999999;stroke-width:13.39"/>
	<line x1="1287.29" y1="607.64" x2="1292.01" y2="611.41" style="stroke:#999999;stroke-width:13.39"/>
	<line x1="1316.42" y1="630.79" x2="1344.46" y2="653.15" style="stroke:#999999;stroke-width:13.39"/>
	<line x1="1369.03" y1="672.52" x2="1396.91" y2="694.89" style="stroke:#999999;stroke-width:13.39"/>
	<line x1="1421.48" y1="714.26" x2="1449.52" y2="736.47" style="stroke:#999999;stroke-width:13.39"/>
	<line x1="1473.93" y1="756.00" x2="1501.97" y2="778.21" style="stroke:#999999;stroke-width:13.39"/>
	<line x1="1526.54" y1="797.58" x2="1554.41" y2="819.94" style="stroke:#999999;stroke-width:13.39"/>
	<line x1="1578.99" y1="839.32" x2="1607.02" y2="861.52" style="stroke:#999999;stroke-width:13.39"/>
	<line x1="1631.43" y1="880.90" x2="1659.47" y2="903.10" style="stroke:#999999;stroke-width:13.39"/>
	<line x1="1683.88" y1="922.48" x2="1711.92" y2="944.84" style="stroke:#999999;stroke-width:13.39"/>
	<line x1="1736.49" y1="964.22" x2="1764.37" y2="986.42" style="stroke:#999999;stroke-width:13.39"/>
	<line x1="1788.94" y1="1005.80" x2="1816.97" y2="1028.16" style="stroke:#999999;stroke-width:13.39"/>
	<line x1="1841.39" y1="1047.53" x2="1869.42" y2="1069.74" style="stroke:#999999;stroke-width:13.39"/>
	<line x1="1893.99" y1="1089.11" x2="1921.87" y2="1111.48" style="stroke:#999999;stroke-width:13.39"/>
	<line x1="1946.44" y1="1130.85" x2="1974.48" y2="1153.06" style="stroke:#999999;stroke-width:13.39"/>
	<line x1="1998.89" y1="1172.43" x2="2026.93" y2="1194.64" style="stroke:#999999;stroke-width:13.39"/>
	<line x1="2051.34" y1="1214.17" x2="2079.38" y2="1236.38" style="stroke:#999999;stroke-width:13.39"/>
	<line x1="2103.95" y1="1255.75" x2="2131.98" y2="1278.11" style="stroke:#999999;stroke-width:13.39"/>
	<line x1="2156.40" y1="1297.49" x2="2184.43" y2="1319.69" style="stroke:#999999;stroke-width:13.39"/>
	<line x1="2208.85" y1="1339.22" x2="2236.88" y2="1361.43" style="stroke:#999999;stroke-width:13.39"/>
	<line x1="2261.45" y1="1380.80" x2="2289.33" y2="1403.01" style="stroke:#999999;stroke-width:13.39"/>
	<line x1="2313.90" y1="1422.38" x2="2341.94" y2="1444.75" style="stroke:#999999;stroke-width:13.39"/>
	<line x1="2366.35" y1="1464.12" x2="2394.39" y2="1486.33" style="stroke:#999999;stroke-width:13.39"/>
	<line x1="2418.96" y1="1505.86" x2="2446.84" y2="1528.07" style="stroke:#999999;stroke-width:13.39"/>
	<line x1="2471.41" y1="1547.44" x2="2499.44" y2="1569.64" style="stroke:#999999;stroke-width:13.39"/>
	<line x1="2523.86" y1="1589.02" x2="2551.89" y2="1611.38" style="stroke:#999999;stroke-width:13.39"/>
	<line x1="2576.31" y1="1630.76" x2="2604.34" y2="1652.96" style="stroke:#999999;stroke-width:13.39"/>
	<line x1="2628.91" y1="1672.34" x2="2656.79" y2="1694.54" style="stroke:#999999;stroke-width:13.39"/>
	<line x1="2681.36" y1="1713.91" x2="2709.40" y2="1736.28" style="stroke:#999999;stroke-width:13.39"/>
	<line x1="2733.81" y1="1755.65" x2="2761.85" y2="1777.86" style="stroke:#999999;stroke-width:13.39"/>
	<line x1="2786.42" y1="1797.39" x2="2814.30" y2="1819.60" style="stroke:#999999;stroke-width:13.39"/>
	<line x1="2838.87" y1="1838.97" x2="2866.90" y2="1861.18" style="stroke:#999999;stroke-width:13.39"/>
	<line x1="2891.31" y1="1880.55" x2="2919.35" y2="1902.91" style="stroke:#999999;stroke-width:13.39"/>
	<line x1="2943.76" y1="1922.29" x2="2971.80" y2="1944.49" style="stroke:#999999;stroke-width:13.39"/>
	<line x1="2996.37" y1="1963.87" x2="3024.25" y2="1986.07" style="stroke:#999999;stroke-width:13.39"/>
	<line x1="3048.82" y1="2005.61" x2="3076.86" y2="2027.81" style="stroke:#999999;stroke-width:13.39"/>
	<line x1="3101.27" y1="2047.18" x2="3129.30" y2="2069.39" style="stroke:#999999;stroke-width:13.39"/>
	<line x1="3153.88" y1="2088.92" x2="3181.75" y2="2111.13" style="stroke:#999999;stroke-width:13.39"/>
	<line x1="3206.32" y1="2130.50" x2="3234.36" y2="2152.71" style="stroke:#999999;stroke-width:13.39"/>
	<line x1="3258.77" y1="2172.24" x2="3286.81" y2="2194.45" style="stroke:#999999;stroke-width:13.39"/>
	<line x1="3311.38" y1="2213.82" x2="3339.26" y2="2236.03" style="stroke:#999999;stroke-width:13.39"/>
	<line x1="3363.83" y1="2255.56" x2="3391.87" y2="2277.76" style="stroke:#999999;stroke-width:13.39"/>
	<line x1="3416.28" y1="2297.14" x2="3444.31" y2="2319.34" style="stroke:#999999;stroke-width:13.39"/>
	<line x1="3468.73" y1="2338.72" x2="3496.76" y2="2361.08" style="stroke:#999999;stroke-width:13.39"/>
	<line x1="3521.33" y1="2380.45" x2="3549.21" y2="2402.82" style="stroke:#999999;stroke-width:13.39"/>
	<line x1="3573.78" y1="2422.19" x2="3601.82" y2="2444.40" style="stroke:#999999;stroke-width:13.39"/>
	<line x1="3626.23" y1="2463.77" x2="3654.27" y2="2485.98" style="stroke:#999999;stroke-width:13.39"/>
	<line x1="3678.84" y1="2505.51" x2="3706.72" y2="2527.72" style="stroke:#999999;stroke-width:13.39"/>
	<line x1="3731.29" y1="2547.09" x2="3735.23" y2="2550.24" style="stroke:#999999;stroke-width:13.39"/>
	<line x1="3735.23" y1="2550.24" x2="3742.63" y2="2556.07" style="stroke:#999999;stroke-width:13.39"/>
	<line x1="3742.63" y1="2556.07" x2="3750.03" y2="2562.05" style="stroke:#999999;stroke-width:13.39"/>
	<line x1="3750.03" y1="2562.05" x2="3757.43" y2="2567.88" style="stroke:#999999;stroke-width:13.39"/>
	<line x1="3757.43" y1="2567.88" x2="3759.32" y2="2569.30" style="stroke:#999999;stroke-width:13.39"/>
	<line x1="3783.74" y1="2588.67" x2="3787.20" y2="2591.51" style="stroke:#999999;stroke-width:13.39"/>
	<line x1="3787.20" y1="2591.51" x2="3794.60" y2="2597.33" style="stroke:#999999;stroke-width:13.39"/>
	<line x1="3794.60" y1="2597.33" x2="3802.01" y2="2603.16" style="stroke:#999999;stroke-width:13.39"/>
	<line x1="3802.01" y1="2603.16" x2="3809.41" y2="2609.14" style="stroke:#999999;stroke-width:13.39"/>
	<line x1="3809.41" y1="2609.14" x2="3811.62" y2="2610.88" style="stroke:#999999;stroke-width:13.39"/>
	<line x1="3836.19" y1="2630.41" x2="3839.02" y2="2632.61" style="stroke:#999999;stroke-width:13.39"/>
	<line x1="3839.02" y1="2632.61" x2="3846.58" y2="2638.60" style="stroke:#999999;stroke-width:13.39"/>
	<line x1="3846.58" y1="2638.60" x2="3853.98" y2="2644.43" style="stroke:#999999;stroke-width:13.39"/>
	<line x1="3853.98" y1="2644.43" x2="3861.39" y2="2650.25" style="stroke:#999999;stroke-width:13.39"/>
	<line x1="3861.39" y1="2650.25" x2="3864.22" y2="2652.46" style="stroke:#999999;stroke-width:13.39"/>
	<path d="" stroke-linejoin="round" style="fill:none;stroke:#999999;stroke-width:13.39"/>
	<path d=" M1309.65 920.11 L1317.05 925.94 L1324.46 931.77 L1331.86 937.76 L1339.26 943.58 L1346.67 949.57 L1354.07 955.39 L1361.47 961.22 L1368.87 967.21 L1376.28 973.03 L1383.84 979.02 L1391.24 984.85 L1398.64 990.68 L1406.05 996.66 L1413.45 1002.49 L1420.85 1008.32 L1428.25 1014.30 L1435.66 1020.13 L1443.06 1026.11 L1450.46 1031.94 L1458.02 1037.77 L1465.42 1043.75 L1472.83 1049.58 L1480.23 1055.41 L1487.63 1061.39 L1495.04 1067.22 L1502.44 1073.20 L1509.84 1079.03 L1517.24 1084.86 L1524.65 1090.84 L1532.21 1096.67 L1539.61 1102.50 L1547.01 1108.49 L1554.41 1114.31 L1561.82 1120.30 L1569.22 1126.13 L1576.62 1131.95 L1584.03 1137.94 L1591.43 1143.76 L1598.83 1149.59 L1606.23 1155.58 L1613.79 1161.41 L1621.20 1167.39 L1628.60 1173.22 L1636.00 1179.05 L1643.40 1185.03 L1650.81 1190.86 L1658.21 1196.68 L1665.61 1202.67 L1673.02 1208.50 L1680.42 1214.48 L1687.98 1220.31 L1695.38 1226.14 L1702.78 1232.12 L1710.19 1237.95 L1717.59 1243.78 L1724.99 1249.76 L1732.39 1255.59 L1739.80 1261.57 L1747.20 1267.40 L1754.60 1273.23 L1762.01 1279.22 L1769.57 1285.04 L1776.97 1291.03 L1784.37 1296.86 L1791.77 1302.68 L1799.18 1308.67 L1806.58 1314.49 L1813.98 1320.32 L1821.39 1326.31 L1828.79 1332.14 L1836.19 1338.12 L1843.75 1343.95 L1851.15 1349.78 L1858.56 1355.76 L1865.96 1361.59 L1873.36 1367.41 L1880.76 1373.40 L1888.17 1379.23 L1895.57 1385.21 L1902.97 1391.04 L1910.38 1396.87 L1917.94 1402.85 L1925.34 1408.68 L1932.74 1414.51 L1940.14 1420.49 L1947.55 1426.32 L1954.95 1432.30 L1962.35 1438.13 L1969.75 1443.96 L1977.16 1449.95 L1984.56 1455.77 L1991.96 1461.60 L1999.52 1467.59 L2006.93 1473.41 L2014.33 1479.40 L2021.73 1485.22 L2029.13 1491.05 L2036.54 1497.04 L2043.94 1502.86 L2051.34 1508.69 L2058.74 1514.68 L2066.15 1520.51 L2073.71 1526.49 L2081.11 1532.32 L2088.51 1538.14 L2095.92 1544.13 L2103.32 1549.96 L2110.72 1555.78 L2118.12 1561.77 L2125.53 1567.60 L2132.93 1573.58 L2140.33 1579.41 L2147.89 1585.24 L2155.30 1591.22 L2162.70 1597.05 L2170.10 1603.03 L2177.50 1608.86 L2184.91 1614.69 L2192.31 1620.68 L2199.71 1626.50 L2207.11 1632.33 L2214.52 1638.32 L2221.92 1644.14 L2229.48 1650.13 L2236.88 1655.95 L2244.29 1661.78 L2251.69 1667.77 L2259.09 1673.59 L2266.49 1679.42 L2273.90 1685.41 L2281.30 1691.24 L2288.70 1697.22 L2296.10 1703.05 L2303.66 1708.88 L2311.07 1714.86 L2318.47 1720.69 L2325.87 1726.51 L2333.28 1732.50 L2340.68 1738.33 L2348.08 1744.31 L2355.48 1750.14 L2362.89 1755.97 L2370.29 1761.95 L2377.69 1767.78 L2385.25 1773.61 L2392.65 1779.59 L2400.06 1785.42 L2407.46 1791.41 L2414.86 1797.23 L2422.27 1803.06 L2429.67 1809.05 L2437.07 1814.87 L2444.47 1820.70 L2451.88 1826.68 L2459.44 1832.51 L2466.84 1838.50 L2474.24 1844.32 L2481.65 1850.15 L2489.05 1856.14 L2496.45 1861.97 L2503.85 1867.79 L2511.26 1873.78 L2518.66 1879.61 L2526.06 1885.59 L2533.62 1891.42 L2541.02 1897.24 L2548.43 1903.23 L2555.83 1909.06 L2563.23 1915.04 L2570.64 1920.87 L2578.04 1926.70 L2585.44 1932.68 L2592.84 1938.51 L2600.25 1944.34 L2607.65 1950.32 L2615.21 1956.15 L2622.61 1962.14 L2630.01 1967.96 L2637.42 1973.79 L2644.82 1979.78 L2652.22 1985.60 L2659.63 1991.43 L2667.03 1997.41 L2674.43 2003.24 L2681.83 2009.23 L2689.39 2015.05 L2696.80 2020.88 L2704.20 2026.87 L2711.60 2032.70 L2719.00 2038.52 L2726.41 2044.51 L2733.81 2050.34 L2741.21 2056.32 L2748.62 2062.15 L2756.02 2067.97 L2763.42 2073.96 L2770.98 2079.79 L2778.38 2085.61 L2785.79 2091.60 L2793.19 2097.43 L2800.59 2103.41 L2807.99 2109.24 L2815.40 2115.07 L2822.80 2121.05 L2830.20 2126.88 L2837.61 2132.71 L2845.17 2138.69 L2852.57 2144.52 L2859.97 2150.51 L2867.37 2156.33 L2874.78 2162.16 L2882.18 2168.14 L2889.58 2173.97 L2896.99 2179.80 L2904.39 2185.78 L2911.79 2191.61 L2919.35 2197.60 L2926.75 2203.43 L2934.16 2209.25 L2941.56 2215.24 L2948.96 2221.07 L2956.36 2227.05 L2963.77 2232.88 L2971.17 2238.70 L2978.57 2244.69 L2985.98 2250.52 L2993.38 2256.34 L3000.94 2262.33 L3008.34 2268.16 L3015.74 2274.14 L3023.15 2279.97 L3030.55 2285.80 L3037.95 2291.78 L3045.35 2297.61 L3052.76 2303.44 L3060.16 2309.42 L3067.56 2315.25 L3075.12 2321.24 L3082.53 2327.06 L3089.93 2332.89 L3097.33 2338.88 L3104.73 2344.70 L3112.14 2350.53 L3119.54 2356.51 L3126.94 2362.34 L3134.34 2368.33 L3141.75 2374.16 L3149.31 2379.98 L3156.71 2385.97 L3164.11 2391.80 L3171.52 2397.62 L3178.92 2403.61 L3186.32 2409.43 L3193.72 2415.42 L3201.13 2421.25 L3208.53 2427.07 L3215.93 2433.06 L3223.33 2438.89 L3230.90 2444.72 L3238.30 2450.70 L3245.70 2456.53 L3253.10 2462.51 L3260.51 2468.34 L3267.91 2474.17 L3275.31 2480.15 L3282.71 2485.98 L3290.12 2491.81 L3297.52 2497.79 L3305.08 2503.62 L3312.48 2509.61 L3319.89 2515.43 L3327.29 2521.26 L3334.69 2527.24 L3342.09 2533.07 L3349.50 2539.06 L3356.90 2544.89 L3364.30 2550.71 L3371.70 2556.70 L3379.11 2562.53 L3386.67 2568.35 L3394.07 2574.34 L3401.47 2580.16 L3408.88 2586.15 L3416.28 2591.98 L3423.68 2597.80 L3431.08 2603.79 L3438.49 2609.62 L3445.89 2615.45 L3453.29 2621.43 L3460.85 2627.26 L3468.25 2633.24 L3475.66 2639.07 L3483.06 2644.90 L3490.46 2650.88 L3497.87 2656.71 L3505.27 2662.54 L3512.67 2668.52 L3520.07 2674.35 L3527.48 2680.34 L3535.04 2686.16 L3542.44 2691.99 L3549.84 2697.97 L3557.25 2703.80 L3564.65 2709.63 L3572.05 2715.61 L3579.45 2721.44 L3586.86 2727.43 L3594.26 2733.26 L3601.66 2739.08 L3609.06 2745.07 L3616.62 2750.89 L3624.03 2756.72 L3631.43 2762.71 L3638.83 2768.53 L3646.24 2774.52 L3653.64 2780.35 L3661.04 2786.18" stroke-linejoin="round" style="fill:none;stroke:#333333;stroke-width:13.39"/>
	<line x1="634.59" y1="384.30" x2="641.99" y2="390.28" style="stroke:#333333;stroke-width:13.39"/>
	<line x1="641.99" y1="390.28" x2="649.39" y2="396.11" style="stroke:#333333;stroke-width:13.39"/>
	<line x1="649.39" y1="396.11" x2="656.79" y2="402.10" style="stroke:#333333;stroke-width:13.39"/>
	<line x1="656.79" y1="402.10" x2="662.62" y2="406.66" style="stroke:#333333;stroke-width:13.39"/>
	<line x1="687.04" y1="426.04" x2="693.97" y2="431.39" style="stroke:#333333;stroke-width:13.39"/>
	<line x1="693.97" y1="431.39" x2="701.37" y2="437.38" style="stroke:#333333;stroke-width:13.39"/>
	<line x1="701.37" y1="437.38" x2="708.77" y2="443.20" style="stroke:#333333;stroke-width:13.39"/>
	<line x1="708.77" y1="443.20" x2="715.07" y2="448.40" style="stroke:#333333;stroke-width:13.39"/>
	<line x1="739.48" y1="467.77" x2="745.79" y2="472.66" style="stroke:#333333;stroke-width:13.39"/>
	<line x1="745.79" y1="472.66" x2="753.19" y2="478.48" style="stroke:#333333;stroke-width:13.39"/>
	<line x1="753.19" y1="478.48" x2="760.59" y2="484.47" style="stroke:#333333;stroke-width:13.39"/>
	<line x1="760.59" y1="484.47" x2="767.52" y2="489.82" style="stroke:#333333;stroke-width:13.39"/>
	<line x1="791.93" y1="509.20" x2="797.76" y2="513.92" style="stroke:#333333;stroke-width:13.39"/>
	<line x1="797.76" y1="513.92" x2="805.16" y2="519.75" style="stroke:#333333;stroke-width:13.39"/>
	<line x1="805.16" y1="519.75" x2="812.57" y2="525.58" style="stroke:#333333;stroke-width:13.39"/>
	<line x1="812.57" y1="525.58" x2="819.97" y2="531.56" style="stroke:#333333;stroke-width:13.39"/>
	<line x1="844.54" y1="550.94" x2="849.74" y2="555.03" style="stroke:#333333;stroke-width:13.39"/>
	<line x1="849.74" y1="555.03" x2="857.14" y2="561.02" style="stroke:#333333;stroke-width:13.39"/>
	<line x1="857.14" y1="561.02" x2="864.54" y2="566.84" style="stroke:#333333;stroke-width:13.39"/>
	<line x1="864.54" y1="566.84" x2="871.95" y2="572.67" style="stroke:#333333;stroke-width:13.39"/>
	<line x1="871.95" y1="572.67" x2="872.42" y2="573.14" style="stroke:#333333;stroke-width:13.39"/>
	<line x1="896.99" y1="592.67" x2="901.56" y2="596.30" style="stroke:#333333;stroke-width:13.39"/>
	<line x1="901.56" y1="596.30" x2="908.96" y2="602.12" style="stroke:#333333;stroke-width:13.39"/>
	<line x1="908.96" y1="602.12" x2="916.52" y2="608.11" style="stroke:#333333;stroke-width:13.39"/>
	<line x1="916.52" y1="608.11" x2="923.92" y2="613.94" style="stroke:#333333;stroke-width:13.39"/>
	<line x1="923.92" y1="613.94" x2="925.03" y2="614.88" style="stroke:#333333;stroke-width:13.39"/>
	<line x1="949.44" y1="634.25" x2="953.53" y2="637.56" style="stroke:#333333;stroke-width:13.39"/>
	<line x1="953.53" y1="637.56" x2="960.94" y2="643.39" style="stroke:#333333;stroke-width:13.39"/>
	<line x1="960.94" y1="643.39" x2="968.34" y2="649.22" style="stroke:#333333;stroke-width:13.39"/>
	<line x1="968.34" y1="649.22" x2="975.74" y2="655.20" style="stroke:#333333;stroke-width:13.39"/>
	<line x1="975.74" y1="655.20" x2="977.47" y2="656.46" style="stroke:#333333;stroke-width:13.39"/>
	<line x1="1002.05" y1="675.83" x2="1005.51" y2="678.67" style="stroke:#333333;stroke-width:13.39"/>
	<line x1="1005.51" y1="678.67" x2="1012.91" y2="684.65" style="stroke:#333333;stroke-width:13.39"/>
	<line x1="1012.91" y1="684.65" x2="1020.32" y2="690.48" style="stroke:#333333;stroke-width:13.39"/>
	<line x1="1020.32" y1="690.48" x2="1027.72" y2="696.31" style="stroke:#333333;stroke-width:13.39"/>
	<line x1="1027.72" y1="696.31" x2="1030.08" y2="698.20" style="stroke:#333333;stroke-width:13.39"/>
	<line x1="1054.34" y1="717.57" x2="1057.33" y2="719.93" style="stroke:#333333;stroke-width:13.39"/>
	<line x1="1057.33" y1="719.93" x2="1064.73" y2="725.76" style="stroke:#333333;stroke-width:13.39"/>
	<line x1="1064.73" y1="725.76" x2="1072.29" y2="731.74" style="stroke:#333333;stroke-width:13.39"/>
	<line x1="1072.29" y1="731.74" x2="1079.70" y2="737.57" style="stroke:#333333;stroke-width:13.39"/>
	<line x1="1079.70" y1="737.57" x2="1082.53" y2="739.78" style="stroke:#333333;stroke-width:13.39"/>
	<line x1="1106.94" y1="759.31" x2="1109.31" y2="761.20" style="stroke:#333333;stroke-width:13.39"/>
	<line x1="1109.31" y1="761.20" x2="1116.71" y2="767.02" style="stroke:#333333;stroke-width:13.39"/>
	<line x1="1116.71" y1="767.02" x2="1124.11" y2="772.85" style="stroke:#333333;stroke-width:13.39"/>
	<line x1="1124.11" y1="772.85" x2="1131.51" y2="778.84" style="stroke:#333333;stroke-width:13.39"/>
	<line x1="1131.51" y1="778.84" x2="1134.82" y2="781.36" style="stroke:#333333;stroke-width:13.39"/>
	<line x1="1159.24" y1="800.73" x2="1161.28" y2="802.31" style="stroke:#333333;stroke-width:13.39"/>
	<line x1="1161.28" y1="802.31" x2="1168.69" y2="808.29" style="stroke:#333333;stroke-width:13.39"/>
	<line x1="1168.69" y1="808.29" x2="1176.09" y2="814.12" style="stroke:#333333;stroke-width:13.39"/>
	<line x1="1176.09" y1="814.12" x2="1183.49" y2="819.94" style="stroke:#333333;stroke-width:13.39"/>
	<line x1="1183.49" y1="819.94" x2="1187.27" y2="822.94" style="stroke:#333333;stroke-width:13.39"/>
	<line x1="1211.68" y1="842.47" x2="1213.10" y2="843.57" style="stroke:#333333;stroke-width:13.39"/>
	<line x1="1213.10" y1="843.57" x2="1220.50" y2="849.40" style="stroke:#333333;stroke-width:13.39"/>
	<line x1="1220.50" y1="849.40" x2="1228.06" y2="855.38" style="stroke:#333333;stroke-width:13.39"/>
	<line x1="1228.06" y1="855.38" x2="1235.47" y2="861.21" style="stroke:#333333;stroke-width:13.39"/>
	<line x1="1235.47" y1="861.21" x2="1239.72" y2="864.52" style="stroke:#333333;stroke-width:13.39"/>
	<line x1="1264.13" y1="884.05" x2="1265.08" y2="884.68" style="stroke:#333333;stroke-width:13.39"/>
	<line x1="1265.08" y1="884.68" x2="1272.48" y2="890.66" style="stroke:#333333;stroke-width:13.39"/>
	<line x1="1272.48" y1="890.66" x2="1279.88" y2="896.49" style="stroke:#333333;stroke-width:13.39"/>
	<line x1="1279.88" y1="896.49" x2="1287.29" y2="902.48" style="stroke:#333333;stroke-width:13.39"/>
	<line x1="1287.29" y1="902.48" x2="1292.17" y2="906.26" style="stroke:#333333;stroke-width:13.39"/>
	<line x1="1316.58" y1="925.63" x2="1344.62" y2="947.84" style="stroke:#333333;stroke-width:13.39"/>
	<line x1="1369.19" y1="967.36" x2="1397.07" y2="989.57" style="stroke:#333333;stroke-width:13.39"/>
	<line x1="1421.64" y1="1008.95" x2="1449.67" y2="1031.31" style="stroke:#333333;stroke-width:13.39"/>
	<line x1="1474.09" y1="1050.68" x2="1502.12" y2="1073.05" style="stroke:#333333;stroke-width:13.39"/>
	<line x1="1526.69" y1="1092.42" x2="1554.57" y2="1114.63" style="stroke:#333333;stroke-width:13.39"/>
	<line x1="1579.14" y1="1134.16" x2="1607.18" y2="1156.36" style="stroke:#333333;stroke-width:13.39"/>
	<line x1="1631.59" y1="1175.89" x2="1659.63" y2="1198.10" style="stroke:#333333;stroke-width:13.39"/>
	<line x1="1684.04" y1="1217.63" x2="1712.08" y2="1239.84" style="stroke:#333333;stroke-width:13.39"/>
	<line x1="1736.65" y1="1259.21" x2="1764.53" y2="1281.42" style="stroke:#333333;stroke-width:13.39"/>
	<line x1="1789.10" y1="1300.79" x2="1817.13" y2="1323.16" style="stroke:#333333;stroke-width:13.39"/>
	<line x1="1841.55" y1="1342.53" x2="1869.58" y2="1364.74" style="stroke:#333333;stroke-width:13.39"/>
	<line x1="1894.15" y1="1384.27" x2="1922.03" y2="1406.47" style="stroke:#333333;stroke-width:13.39"/>
	<line x1="1946.60" y1="1425.85" x2="1974.64" y2="1448.05" style="stroke:#333333;stroke-width:13.39"/>
	<line x1="1999.05" y1="1467.43" x2="2027.09" y2="1489.79" style="stroke:#333333;stroke-width:13.39"/>
	<line x1="2051.50" y1="1509.16" x2="2079.54" y2="1531.37" style="stroke:#333333;stroke-width:13.39"/>
	<line x1="2104.11" y1="1550.74" x2="2131.98" y2="1572.95" style="stroke:#333333;stroke-width:13.39"/>
	<line x1="2156.56" y1="1592.48" x2="2184.59" y2="1614.69" style="stroke:#333333;stroke-width:13.39"/>
	<line x1="2209.00" y1="1634.06" x2="2237.04" y2="1656.43" style="stroke:#333333;stroke-width:13.39"/>
	<line x1="2261.61" y1="1675.80" x2="2289.49" y2="1698.01" style="stroke:#333333;stroke-width:13.39"/>
	<line x1="2314.06" y1="1717.54" x2="2342.10" y2="1739.74" style="stroke:#333333;stroke-width:13.39"/>
	<line x1="2366.51" y1="1759.12" x2="2394.54" y2="1781.32" style="stroke:#333333;stroke-width:13.39"/>
	<line x1="2419.12" y1="1800.70" x2="2446.99" y2="1823.06" style="stroke:#333333;stroke-width:13.39"/>
	<line x1="2471.56" y1="1842.43" x2="2499.60" y2="1864.80" style="stroke:#333333;stroke-width:13.39"/>
	<line x1="2524.01" y1="1884.17" x2="2552.05" y2="1906.38" style="stroke:#333333;stroke-width:13.39"/>
	<line x1="2576.46" y1="1925.75" x2="2604.50" y2="1947.96" style="stroke:#333333;stroke-width:13.39"/>
	<line x1="2629.07" y1="1967.33" x2="2656.95" y2="1989.70" style="stroke:#333333;stroke-width:13.39"/>
	<line x1="2681.52" y1="2009.07" x2="2709.55" y2="2031.28" style="stroke:#333333;stroke-width:13.39"/>
	<line x1="2733.97" y1="2050.65" x2="2762.00" y2="2072.86" style="stroke:#333333;stroke-width:13.39"/>
	<line x1="2786.57" y1="2092.39" x2="2814.45" y2="2114.59" style="stroke:#333333;stroke-width:13.39"/>
	<line x1="2839.02" y1="2133.97" x2="2867.06" y2="2156.33" style="stroke:#333333;stroke-width:13.39"/>
	<line x1="2891.47" y1="2175.70" x2="2919.51" y2="2197.91" style="stroke:#333333;stroke-width:13.39"/>
	<line x1="2943.92" y1="2217.28" x2="2971.96" y2="2239.49" style="stroke:#333333;stroke-width:13.39"/>
	<line x1="2996.53" y1="2258.86" x2="3024.41" y2="2281.23" style="stroke:#333333;stroke-width:13.39"/>
	<line x1="3048.98" y1="2300.60" x2="3077.01" y2="2322.81" style="stroke:#333333;stroke-width:13.39"/>
	<line x1="3101.43" y1="2342.18" x2="3129.46" y2="2364.39" style="stroke:#333333;stroke-width:13.39"/>
	<line x1="3154.03" y1="2383.92" x2="3181.91" y2="2406.13" style="stroke:#333333;stroke-width:13.39"/>
	<line x1="3206.48" y1="2425.50" x2="3234.52" y2="2447.86" style="stroke:#333333;stroke-width:13.39"/>
	<line x1="3258.93" y1="2467.24" x2="3286.97" y2="2489.45" style="stroke:#333333;stroke-width:13.39"/>
	<line x1="3311.38" y1="2508.82" x2="3339.42" y2="2531.03" style="stroke:#333333;stroke-width:13.39"/>
	<line x1="3363.99" y1="2550.40" x2="3392.02" y2="2572.76" style="stroke:#333333;stroke-width:13.39"/>
	<line x1="3416.44" y1="2592.14" x2="3444.47" y2="2614.50" style="stroke:#333333;stroke-width:13.39"/>
	<line x1="3468.88" y1="2633.87" x2="3496.92" y2="2656.08" style="stroke:#333333;stroke-width:13.39"/>
	<line x1="3521.49" y1="2675.45" x2="3549.37" y2="2697.66" style="stroke:#333333;stroke-width:13.39"/>
	<line x1="3573.94" y1="2717.03" x2="3601.98" y2="2739.40" style="stroke:#333333;stroke-width:13.39"/>
	<line x1="3626.39" y1="2758.77" x2="3654.43" y2="2780.98" style="stroke:#333333;stroke-width:13.39"/>
	<line x1="3679.00" y1="2800.35" x2="3683.25" y2="2803.82" style="stroke:#333333;stroke-width:13.39"/>
	<line x1="3683.25" y1="2803.82" x2="3690.81" y2="2809.80" style="stroke:#333333;stroke-width:13.39"/>
	<line x1="3690.81" y1="2809.80" x2="3698.21" y2="2815.63" style="stroke:#333333;stroke-width:13.39"/>
	<line x1="3698.21" y1="2815.63" x2="3705.61" y2="2821.61" style="stroke:#333333;stroke-width:13.39"/>
	<line x1="3705.61" y1="2821.61" x2="3706.87" y2="2822.72" style="stroke:#333333;stroke-width:13.39"/>
	<line x1="3731.45" y1="2842.09" x2="3735.23" y2="2845.08" style="stroke:#333333;stroke-width:13.39"/>
	<line x1="3735.23" y1="2845.08" x2="3742.63" y2="2851.07" style="stroke:#333333;stroke-width:13.39"/>
	<line x1="3742.63" y1="2851.07" x2="3750.03" y2="2856.89" style="stroke:#333333;stroke-width:13.39"/>
	<line x1="3750.03" y1="2856.89" x2="3757.43" y2="2862.72" style="stroke:#333333;stroke-width:13.39"/>
	<line x1="3757.43" y1="2862.72" x2="3759.48" y2="2864.30" style="stroke:#333333;stroke-width:13.39"/>
	<line x1="3783.89" y1="2883.67" x2="3787.20" y2="2886.34" style="stroke:#333333;stroke-width:13.39"/>
	<line x1="3787.20" y1="2886.34" x2="3794.60" y2="2892.17" style="stroke:#333333;stroke-width:13.39"/>
	<line x1="3794.60" y1="2892.17" x2="3802.01" y2="2898.16" style="stroke:#333333;stroke-width:13.39"/>
	<line x1="3802.01" y1="2898.16" x2="3809.41" y2="2903.99" style="stroke:#333333;stroke-width:13.39"/>
	<line x1="3809.41" y1="2903.99" x2="3811.77" y2="2905.88" style="stroke:#333333;stroke-width:13.39"/>
	<line x1="3836.34" y1="2925.25" x2="3839.02" y2="2927.45" style="stroke:#333333;stroke-width:13.39"/>
	<line x1="3839.02" y1="2927.45" x2="3846.58" y2="2933.44" style="stroke:#333333;stroke-width:13.39"/>
	<line x1="3846.58" y1="2933.44" x2="3853.98" y2="2939.26" style="stroke:#333333;stroke-width:13.39"/>
	<line x1="3853.98" y1="2939.26" x2="3861.39" y2="2945.25" style="stroke:#333333;stroke-width:13.39"/>
	<line x1="3861.39" y1="2945.25" x2="3864.38" y2="2947.61" style="stroke:#333333;stroke-width:13.39"/>
	<path d="" stroke-linejoin="round" style="fill:none;stroke:#333333;stroke-width:13.39"/>
	<path d=" M1124.11 969.57 L1131.51 975.55 L1138.92 981.38 L1146.48 987.21 L1153.88 993.20 L1161.28 999.02 L1168.69 1004.85 L1176.09 1010.84 L1183.49 1016.66 L1190.89 1022.65 L1198.30 1028.47 L1205.70 1034.30 L1213.10 1040.29 L1220.50 1046.11 L1228.06 1052.10 L1235.47 1057.93 L1242.87 1063.76 L1250.27 1069.74 L1257.68 1075.57 L1265.08 1081.39 L1272.48 1087.38 L1279.88 1093.21 L1287.29 1099.19 L1294.69 1105.02 L1302.25 1110.85 L1309.65 1116.83 L1317.05 1122.66 L1324.46 1128.49 L1331.86 1134.47 L1339.26 1140.30 L1346.67 1146.28 L1354.07 1152.11 L1361.47 1157.94 L1368.87 1163.93 L1376.28 1169.75 L1383.84 1175.58 L1391.24 1181.57 L1398.64 1187.39 L1406.05 1193.38 L1413.45 1199.20 L1420.85 1205.03 L1428.25 1211.02 L1435.66 1216.84 L1443.06 1222.67 L1450.46 1228.66 L1458.02 1234.49 L1465.42 1240.47 L1472.83 1246.30 L1480.23 1252.13 L1487.63 1258.11 L1495.04 1263.94 L1502.44 1269.76 L1509.84 1275.75 L1517.24 1281.58 L1524.65 1287.56 L1532.21 1293.39 L1539.61 1299.22 L1547.01 1305.20 L1554.41 1311.03 L1561.82 1316.86 L1569.22 1322.84 L1576.62 1328.67 L1584.03 1334.66 L1591.43 1340.48 L1598.83 1346.31 L1606.23 1352.30 L1613.79 1358.12 L1621.20 1364.11 L1628.60 1369.93 L1636.00 1375.76 L1643.40 1381.75 L1650.81 1387.57 L1658.21 1393.40 L1665.61 1399.39 L1673.02 1405.22 L1680.42 1411.20 L1687.98 1417.03 L1695.38 1422.86 L1702.78 1428.84 L1710.19 1434.67 L1717.59 1440.49 L1724.99 1446.48 L1732.39 1452.31 L1739.80 1458.29 L1747.20 1464.12 L1754.60 1469.95 L1762.01 1475.93 L1769.57 1481.76 L1776.97 1487.59 L1784.37 1493.57 L1791.77 1499.40 L1799.18 1505.39 L1806.58 1511.21 L1813.98 1517.04 L1821.39 1523.03 L1828.79 1528.85 L1836.19 1534.68 L1843.75 1540.66 L1851.15 1546.49 L1858.56 1552.48 L1865.96 1558.30 L1873.36 1564.13 L1880.76 1570.12 L1888.17 1575.95 L1895.57 1581.77 L1902.97 1587.76 L1910.38 1593.59 L1917.94 1599.57 L1925.34 1605.40 L1932.74 1611.22 L1940.14 1617.21 L1947.55 1623.04 L1954.95 1628.86 L1962.35 1634.85 L1969.75 1640.68 L1977.16 1646.66 L1984.56 1652.49 L1991.96 1658.32 L1999.52 1664.30 L2006.93 1670.13 L2014.33 1676.11 L2021.73 1681.94 L2029.13 1687.77 L2036.54 1693.76 L2043.94 1699.58 L2051.34 1705.41 L2058.74 1711.39 L2066.15 1717.22 L2073.71 1723.21 L2081.11 1729.03 L2088.51 1734.86 L2095.92 1740.85 L2103.32 1746.68 L2110.72 1752.50 L2118.12 1758.49 L2125.53 1764.32 L2132.93 1770.30 L2140.33 1776.13 L2147.89 1781.95 L2155.30 1787.94 L2162.70 1793.77 L2170.10 1799.59 L2177.50 1805.58 L2184.91 1811.41 L2192.31 1817.39 L2199.71 1823.22 L2207.11 1829.05 L2214.52 1835.03 L2221.92 1840.86 L2229.48 1846.69 L2236.88 1852.67 L2244.29 1858.50 L2251.69 1864.49 L2259.09 1870.31 L2266.49 1876.14 L2273.90 1882.13 L2281.30 1887.95 L2288.70 1893.78 L2296.10 1899.76 L2303.66 1905.59 L2311.07 1911.58 L2318.47 1917.41 L2325.87 1923.23 L2333.28 1929.22 L2340.68 1935.05 L2348.08 1940.87 L2355.48 1946.86 L2362.89 1952.68 L2370.29 1958.67 L2377.69 1964.50 L2385.25 1970.32 L2392.65 1976.31 L2400.06 1982.14 L2407.46 1988.12 L2414.86 1993.95 L2422.27 1999.78 L2429.67 2005.76 L2437.07 2011.59 L2444.47 2017.42 L2451.88 2023.40 L2459.44 2029.23 L2466.84 2035.22 L2474.24 2041.04 L2481.65 2046.87 L2489.05 2052.86 L2496.45 2058.68 L2503.85 2064.51 L2511.26 2070.49 L2518.66 2076.32 L2526.06 2082.31 L2533.62 2088.14 L2541.02 2093.96 L2548.43 2099.95 L2555.83 2105.78 L2563.23 2111.60 L2570.64 2117.59 L2578.04 2123.41 L2585.44 2129.40 L2592.84 2135.23 L2600.25 2141.05 L2607.65 2147.04 L2615.21 2152.87 L2622.61 2158.70 L2630.01 2164.68 L2637.42 2170.51 L2644.82 2176.49 L2652.22 2182.32 L2659.63 2188.15 L2667.03 2194.13 L2674.43 2199.96 L2681.83 2205.79 L2689.39 2211.77 L2696.80 2217.60 L2704.20 2223.59 L2711.60 2229.41 L2719.00 2235.24 L2726.41 2241.22 L2733.81 2247.05 L2741.21 2252.88 L2748.62 2258.86 L2756.02 2264.69 L2763.42 2270.68 L2770.98 2276.51 L2778.38 2282.33 L2785.79 2288.32 L2793.19 2294.14 L2800.59 2300.13 L2807.99 2305.96 L2815.40 2311.78 L2822.80 2317.77 L2830.20 2323.60 L2837.61 2329.43 L2845.17 2335.41 L2852.57 2341.24 L2859.97 2347.22 L2867.37 2353.05 L2874.78 2358.88 L2882.18 2364.86 L2889.58 2370.69 L2896.99 2376.52 L2904.39 2382.50 L2911.79 2388.33 L2919.35 2394.32 L2926.75 2400.14 L2934.16 2405.97 L2941.56 2411.95 L2948.96 2417.78 L2956.36 2423.61 L2963.77 2429.59 L2971.17 2435.42 L2978.57 2441.41 L2985.98 2447.24 L2993.38 2453.06 L3000.94 2459.05 L3008.34 2464.88 L3015.74 2470.70 L3023.15 2476.69 L3030.55 2482.51 L3037.95 2488.50 L3045.35 2494.33 L3052.76 2500.16 L3060.16 2506.14 L3067.56 2511.97 L3075.12 2517.80 L3082.53 2523.78 L3089.93 2529.61 L3097.33 2535.59 L3104.73 2541.42 L3112.14 2547.25 L3119.54 2553.23 L3126.94 2559.06 L3134.34 2564.89 L3141.75 2570.87 L3149.31 2576.70 L3156.71 2582.68 L3164.11 2588.51 L3171.52 2594.34 L3178.92 2600.32 L3186.32 2606.15 L3193.72 2612.14 L3201.13 2617.97 L3208.53 2623.79 L3215.93 2629.78 L3223.33 2635.61 L3230.90 2641.43 L3238.30 2647.42 L3245.70 2653.24 L3253.10 2659.23 L3260.51 2665.06 L3267.91 2670.89 L3275.31 2676.87 L3282.71 2682.70 L3290.12 2688.53 L3297.52 2694.51 L3305.08 2700.34 L3312.48 2706.32 L3319.89 2712.15 L3327.29 2717.98 L3334.69 2723.96 L3342.09 2729.79 L3349.50 2735.62 L3356.90 2741.60 L3364.30 2747.43 L3371.70 2753.41 L3379.11 2759.24 L3386.67 2765.07 L3394.07 2771.05 L3401.47 2776.88 L3408.88 2782.71 L3416.28 2788.70 L3423.68 2794.52 L3431.08 2800.51 L3438.49 2806.34 L3445.89 2812.16 L3453.29 2818.15 L3460.85 2823.97 L3468.25 2829.80 L3475.66 2835.79 L3483.06 2841.61 L3490.46 2847.60 L3497.87 2853.43 L3505.27 2859.26 L3512.67 2865.24 L3520.07 2871.07 L3527.48 2876.89 L3535.04 2882.88 L3542.44 2888.71 L3549.84 2894.69 L3557.25 2900.52 L3564.65 2906.35 L3572.05 2912.33 L3579.45 2918.16 L3586.86 2924.14 L3594.26 2929.97 L3601.66 2935.80 L3609.06 2941.78 L3616.62 2947.61 L3624.03 2953.44 L3631.43 2959.43 L3638.83 2965.25 L3646.24 2971.24 L3653.64 2977.07 L3661.04 2982.89 L3668.44 2988.88 L3675.85 2994.70 L3683.25 3000.53 L3690.81 3006.52 L3698.21 3012.35 L3705.61 3018.33 L3713.02 3024.16 L3720.42 3029.98 L3727.82 3035.97 L3735.23 3041.80 L3742.63 3047.63 L3750.03 3053.61" stroke-linejoin="round" style="fill:none;stroke:#000000;stroke-width:13.39"/>
	<line x1="634.59" y1="581.02" x2="641.99" y2="587.00" style="stroke:#000000;stroke-width:13.39"/>
	<line x1="641.99" y1="587.00" x2="649.39" y2="592.83" style="stroke:#000000;stroke-width:13.39"/>
	<line x1="649.39" y1="592.83" x2="656.79" y2="598.66" style="stroke:#000000;stroke-width:13.39"/>
	<line x1="656.79" y1="598.66" x2="662.62" y2="603.38" style="stroke:#000000;stroke-width:13.39"/>
	<line x1="687.04" y1="622.76" x2="693.97" y2="628.11" style="stroke:#000000;stroke-width:13.39"/>
	<line x1="693.97" y1="628.11" x2="701.37" y2="634.10" style="stroke:#000000;stroke-width:13.39"/>
	<line x1="701.37" y1="634.10" x2="708.77" y2="639.92" style="stroke:#000000;stroke-width:13.39"/>
	<line x1="708.77" y1="639.92" x2="715.23" y2="644.96" style="stroke:#000000;stroke-width:13.39"/>
	<line x1="739.48" y1="664.49" x2="745.79" y2="669.38" style="stroke:#000000;stroke-width:13.39"/>
	<line x1="745.79" y1="669.38" x2="753.19" y2="675.20" style="stroke:#000000;stroke-width:13.39"/>
	<line x1="753.19" y1="675.20" x2="760.59" y2="681.19" style="stroke:#000000;stroke-width:13.39"/>
	<line x1="760.59" y1="681.19" x2="767.52" y2="686.54" style="stroke:#000000;stroke-width:13.39"/>
	<line x1="791.93" y1="705.91" x2="797.76" y2="710.64" style="stroke:#000000;stroke-width:13.39"/>
	<line x1="797.76" y1="710.64" x2="805.16" y2="716.47" style="stroke:#000000;stroke-width:13.39"/>
	<line x1="805.16" y1="716.47" x2="812.57" y2="722.30" style="stroke:#000000;stroke-width:13.39"/>
	<line x1="812.57" y1="722.30" x2="819.97" y2="728.28" style="stroke:#000000;stroke-width:13.39"/>
	<line x1="844.54" y1="747.65" x2="849.74" y2="751.75" style="stroke:#000000;stroke-width:13.39"/>
	<line x1="849.74" y1="751.75" x2="857.14" y2="757.73" style="stroke:#000000;stroke-width:13.39"/>
	<line x1="857.14" y1="757.73" x2="864.54" y2="763.56" style="stroke:#000000;stroke-width:13.39"/>
	<line x1="864.54" y1="763.56" x2="871.95" y2="769.39" style="stroke:#000000;stroke-width:13.39"/>
	<line x1="871.95" y1="769.39" x2="872.42" y2="769.86" style="stroke:#000000;stroke-width:13.39"/>
	<line x1="896.99" y1="789.39" x2="901.56" y2="793.01" style="stroke:#000000;stroke-width:13.39"/>
	<line x1="901.56" y1="793.01" x2="908.96" y2="798.84" style="stroke:#000000;stroke-width:13.39"/>
	<line x1="908.96" y1="798.84" x2="916.52" y2="804.82" style="stroke:#000000;stroke-width:13.39"/>
	<line x1="916.52" y1="804.82" x2="923.92" y2="810.65" style="stroke:#000000;stroke-width:13.39"/>
	<line x1="923.92" y1="810.65" x2="925.03" y2="811.44" style="stroke:#000000;stroke-width:13.39"/>
	<line x1="949.44" y1="830.97" x2="953.53" y2="834.28" style="stroke:#000000;stroke-width:13.39"/>
	<line x1="953.53" y1="834.28" x2="960.94" y2="840.10" style="stroke:#000000;stroke-width:13.39"/>
	<line x1="960.94" y1="840.10" x2="968.34" y2="845.93" style="stroke:#000000;stroke-width:13.39"/>
	<line x1="968.34" y1="845.93" x2="975.74" y2="851.92" style="stroke:#000000;stroke-width:13.39"/>
	<line x1="975.74" y1="851.92" x2="977.47" y2="853.18" style="stroke:#000000;stroke-width:13.39"/>
	<line x1="1002.05" y1="872.55" x2="1005.51" y2="875.39" style="stroke:#000000;stroke-width:13.39"/>
	<line x1="1005.51" y1="875.39" x2="1012.91" y2="881.37" style="stroke:#000000;stroke-width:13.39"/>
	<line x1="1012.91" y1="881.37" x2="1020.32" y2="887.20" style="stroke:#000000;stroke-width:13.39"/>
	<line x1="1020.32" y1="887.20" x2="1027.72" y2="893.02" style="stroke:#000000;stroke-width:13.39"/>
	<line x1="1027.72" y1="893.02" x2="1030.08" y2="894.91" style="stroke:#000000;stroke-width:13.39"/>
	<line x1="1054.49" y1="914.44" x2="1057.33" y2="916.65" style="stroke:#000000;stroke-width:13.39"/>
	<line x1="1057.33" y1="916.65" x2="1064.73" y2="922.48" style="stroke:#000000;stroke-width:13.39"/>
	<line x1="1064.73" y1="922.48" x2="1072.29" y2="928.46" style="stroke:#000000;stroke-width:13.39"/>
	<line x1="1072.29" y1="928.46" x2="1079.70" y2="934.29" style="stroke:#000000;stroke-width:13.39"/>
	<line x1="1079.70" y1="934.29" x2="1082.53" y2="936.49" style="stroke:#000000;stroke-width:13.39"/>
	<line x1="1107.10" y1="956.03" x2="1109.31" y2="957.76" style="stroke:#000000;stroke-width:13.39"/>
	<line x1="1109.31" y1="957.76" x2="1116.71" y2="963.74" style="stroke:#000000;stroke-width:13.39"/>
	<line x1="1116.71" y1="963.74" x2="1134.98" y2="978.23" style="stroke:#000000;stroke-width:13.39"/>
	<line x1="1159.55" y1="997.76" x2="1187.59" y2="1019.97" style="stroke:#000000;stroke-width:13.39"/>
	<line x1="1212.00" y1="1039.34" x2="1240.04" y2="1061.71" style="stroke:#000000;stroke-width:13.39"/>
	<line x1="1264.61" y1="1081.08" x2="1292.48" y2="1103.45" style="stroke:#000000;stroke-width:13.39"/>
	<line x1="1317.05" y1="1122.82" x2="1345.09" y2="1145.03" style="stroke:#000000;stroke-width:13.39"/>
	<line x1="1369.50" y1="1164.55" x2="1397.54" y2="1186.76" style="stroke:#000000;stroke-width:13.39"/>
	<line x1="1421.95" y1="1206.29" x2="1449.99" y2="1228.50" style="stroke:#000000;stroke-width:13.39"/>
	<line x1="1474.56" y1="1248.03" x2="1502.44" y2="1270.24" style="stroke:#000000;stroke-width:13.39"/>
	<line x1="1527.01" y1="1289.61" x2="1555.04" y2="1311.82" style="stroke:#000000;stroke-width:13.39"/>
	<line x1="1579.46" y1="1331.19" x2="1607.49" y2="1353.55" style="stroke:#000000;stroke-width:13.39"/>
	<line x1="1632.06" y1="1372.93" x2="1659.94" y2="1395.14" style="stroke:#000000;stroke-width:13.39"/>
	<line x1="1684.51" y1="1414.51" x2="1712.55" y2="1436.72" style="stroke:#000000;stroke-width:13.39"/>
	<line x1="1736.96" y1="1456.24" x2="1765.00" y2="1478.45" style="stroke:#000000;stroke-width:13.39"/>
	<line x1="1789.41" y1="1497.82" x2="1817.45" y2="1520.19" style="stroke:#000000;stroke-width:13.39"/>
	<line x1="1842.02" y1="1539.56" x2="1869.90" y2="1561.77" style="stroke:#000000;stroke-width:13.39"/>
	<line x1="1894.47" y1="1581.14" x2="1922.50" y2="1603.35" style="stroke:#000000;stroke-width:13.39"/>
	<line x1="1946.92" y1="1622.88" x2="1974.95" y2="1645.09" style="stroke:#000000;stroke-width:13.39"/>
	<line x1="1999.52" y1="1664.46" x2="2027.40" y2="1686.67" style="stroke:#000000;stroke-width:13.39"/>
	<line x1="2051.97" y1="1706.04" x2="2080.01" y2="1728.41" style="stroke:#000000;stroke-width:13.39"/>
	<line x1="2104.42" y1="1747.78" x2="2132.46" y2="1769.99" style="stroke:#000000;stroke-width:13.39"/>
	<line x1="2157.03" y1="1789.36" x2="2184.91" y2="1811.72" style="stroke:#000000;stroke-width:13.39"/>
	<line x1="2209.48" y1="1831.09" x2="2237.51" y2="1853.30" style="stroke:#000000;stroke-width:13.39"/>
	<line x1="2261.93" y1="1872.68" x2="2289.96" y2="1895.04" style="stroke:#000000;stroke-width:13.39"/>
	<line x1="2314.37" y1="1914.41" x2="2342.41" y2="1936.62" style="stroke:#000000;stroke-width:13.39"/>
	<line x1="2366.98" y1="1955.99" x2="2394.86" y2="1978.36" style="stroke:#000000;stroke-width:13.39"/>
	<line x1="2419.43" y1="1997.73" x2="2447.47" y2="2019.94" style="stroke:#000000;stroke-width:13.39"/>
	<line x1="2471.88" y1="2039.31" x2="2499.92" y2="2061.52" style="stroke:#000000;stroke-width:13.39"/>
	<line x1="2524.49" y1="2081.05" x2="2552.36" y2="2103.26" style="stroke:#000000;stroke-width:13.39"/>
	<line x1="2576.94" y1="2122.63" x2="2604.97" y2="2144.99" style="stroke:#000000;stroke-width:13.39"/>
	<line x1="2629.38" y1="2164.36" x2="2657.42" y2="2186.57" style="stroke:#000000;stroke-width:13.39"/>
	<line x1="2681.83" y1="2205.95" x2="2709.87" y2="2228.15" style="stroke:#000000;stroke-width:13.39"/>
	<line x1="2734.44" y1="2247.68" x2="2762.32" y2="2269.89" style="stroke:#000000;stroke-width:13.39"/>
	<line x1="2786.89" y1="2289.26" x2="2814.93" y2="2311.63" style="stroke:#000000;stroke-width:13.39"/>
	<line x1="2839.34" y1="2331.00" x2="2867.37" y2="2353.21" style="stroke:#000000;stroke-width:13.39"/>
	<line x1="2891.94" y1="2372.58" x2="2919.82" y2="2394.79" style="stroke:#000000;stroke-width:13.39"/>
	<line x1="2944.39" y1="2414.16" x2="2972.43" y2="2436.53" style="stroke:#000000;stroke-width:13.39"/>
	<line x1="2996.84" y1="2455.90" x2="3024.88" y2="2478.11" style="stroke:#000000;stroke-width:13.39"/>
	<line x1="3049.29" y1="2497.64" x2="3077.33" y2="2519.84" style="stroke:#000000;stroke-width:13.39"/>
	<line x1="3101.90" y1="2539.22" x2="3129.93" y2="2561.42" style="stroke:#000000;stroke-width:13.39"/>
	<line x1="3154.35" y1="2580.80" x2="3182.38" y2="2603.16" style="stroke:#000000;stroke-width:13.39"/>
	<line x1="3206.80" y1="2622.53" x2="3234.83" y2="2644.74" style="stroke:#000000;stroke-width:13.39"/>
	<line x1="3259.40" y1="2664.11" x2="3287.28" y2="2686.32" style="stroke:#000000;stroke-width:13.39"/>
	<line x1="3311.85" y1="2705.85" x2="3339.89" y2="2728.06" style="stroke:#000000;stroke-width:13.39"/>
	<line x1="3364.30" y1="2747.43" x2="3392.34" y2="2769.64" style="stroke:#000000;stroke-width:13.39"/>
	<line x1="3416.91" y1="2789.17" x2="3444.79" y2="2811.38" style="stroke:#000000;stroke-width:13.39"/>
	<line x1="3469.36" y1="2830.75" x2="3497.39" y2="2852.95" style="stroke:#000000;stroke-width:13.39"/>
	<line x1="3521.81" y1="2872.49" x2="3549.84" y2="2894.69" style="stroke:#000000;stroke-width:13.39"/>
	<line x1="3574.26" y1="2914.07" x2="3602.29" y2="2936.27" style="stroke:#000000;stroke-width:13.39"/>
	<line x1="3626.86" y1="2955.64" x2="3654.74" y2="2978.01" style="stroke:#000000;stroke-width:13.39"/>
	<line x1="3679.31" y1="2997.38" x2="3707.35" y2="3019.59" style="stroke:#000000;stroke-width:13.39"/>
	<line x1="3731.76" y1="3039.12" x2="3757.43" y2="3059.44" style="stroke:#000000;stroke-width:13.39"/>
	<line x1="3757.43" y1="3059.44" x2="3759.80" y2="3061.33" style="stroke:#000000;stroke-width:13.39"/>
	<line x1="3784.37" y1="3080.70" x2="3787.20" y2="3083.06" style="stroke:#000000;stroke-width:13.39"/>
	<line x1="3787.20" y1="3083.06" x2="3794.60" y2="3088.89" style="stroke:#000000;stroke-width:13.39"/>
	<line x1="3794.60" y1="3088.89" x2="3802.01" y2="3094.72" style="stroke:#000000;stroke-width:13.39"/>
	<line x1="3802.01" y1="3094.72" x2="3809.41" y2="3100.70" style="stroke:#000000;stroke-width:13.39"/>
	<line x1="3809.41" y1="3100.70" x2="3812.25" y2="3102.91" style="stroke:#000000;stroke-width:13.39"/>
	<line x1="3836.66" y1="3122.44" x2="3839.02" y2="3124.17" style="stroke:#000000;stroke-width:13.39"/>
	<line x1="3839.02" y1="3124.17" x2="3846.58" y2="3130.15" style="stroke:#000000;stroke-width:13.39"/>
	<line x1="3846.58" y1="3130.15" x2="3853.98" y2="3135.98" style="stroke:#000000;stroke-width:13.39"/>
	<line x1="3853.98" y1="3135.98" x2="3861.39" y2="3141.81" style="stroke:#000000;stroke-width:13.39"/>
	<line x1="3861.39" y1="3141.81" x2="3864.69" y2="3144.49" style="stroke:#000000;stroke-width:13.39"/>
	<path d="" stroke-linejoin="round" style="fill:none;stroke:#000000;stroke-width:13.39"/>
	<path d=" M1346.67 1192.43 L1354.07 1198.42 L1361.47 1204.24 L1368.87 1210.07 L1376.28 1216.06 L1383.84 1221.89 L1391.24 1227.71 L1398.64 1233.70 L1406.05 1239.53 L1413.45 1245.51 L1420.85 1251.34 L1428.25 1257.16 L1435.66 1263.15 L1443.06 1268.98 L1450.46 1274.80 L1458.02 1280.79 L1465.42 1286.62 L1472.83 1292.60 L1480.23 1298.43 L1487.63 1304.26 L1495.04 1310.24 L1502.44 1316.07 L1509.84 1321.90 L1517.24 1327.88 L1524.65 1333.71 L1532.21 1339.70 L1539.61 1345.52 L1547.01 1351.35 L1554.41 1357.34 L1561.82 1363.16 L1569.22 1369.15 L1576.62 1374.97 L1584.03 1380.80 L1591.43 1386.79 L1598.83 1392.61 L1606.23 1398.44 L1613.79 1404.43 L1621.20 1410.26 L1628.60 1416.24 L1636.00 1422.07 L1643.40 1427.89 L1650.81 1433.88 L1658.21 1439.71 L1665.61 1445.53 L1673.02 1451.52 L1680.42 1457.35 L1687.98 1463.33 L1695.38 1469.16 L1702.78 1474.99 L1710.19 1480.97 L1717.59 1486.80 L1724.99 1492.63 L1732.39 1498.61 L1739.80 1504.44 L1747.20 1510.43 L1754.60 1516.25 L1762.01 1522.08 L1769.57 1528.07 L1776.97 1533.89 L1784.37 1539.72 L1791.77 1545.70 L1799.18 1551.53 L1806.58 1557.52 L1813.98 1563.34 L1821.39 1569.17 L1828.79 1575.16 L1836.19 1580.99 L1843.75 1586.81 L1851.15 1592.80 L1858.56 1598.63 L1865.96 1604.61 L1873.36 1610.44 L1880.76 1616.26 L1888.17 1622.25 L1895.57 1628.08 L1902.97 1633.91 L1910.38 1639.89 L1917.94 1645.72 L1925.34 1651.70 L1932.74 1657.53 L1940.14 1663.36 L1947.55 1669.34 L1954.95 1675.17 L1962.35 1681.16 L1969.75 1686.98 L1977.16 1692.81 L1984.56 1698.80 L1991.96 1704.62 L1999.52 1710.45 L2006.93 1716.43 L2014.33 1722.26 L2021.73 1728.25 L2029.13 1734.07 L2036.54 1739.90 L2043.94 1745.89 L2051.34 1751.72 L2058.74 1757.54 L2066.15 1763.53 L2073.71 1769.36 L2081.11 1775.34 L2088.51 1781.17 L2095.92 1786.99 L2103.32 1792.98 L2110.72 1798.81 L2118.12 1804.64 L2125.53 1810.62 L2132.93 1816.45 L2140.33 1822.43 L2147.89 1828.26 L2155.30 1834.09 L2162.70 1840.07 L2170.10 1845.90 L2177.50 1851.73 L2184.91 1857.71 L2192.31 1863.54 L2199.71 1869.53 L2207.11 1875.35 L2214.52 1881.18 L2221.92 1887.16 L2229.48 1892.99 L2236.88 1898.82 L2244.29 1904.80 L2251.69 1910.63 L2259.09 1916.62 L2266.49 1922.45 L2273.90 1928.27 L2281.30 1934.26 L2288.70 1940.09 L2296.10 1945.91 L2303.66 1951.90 L2311.07 1957.72 L2318.47 1963.71 L2325.87 1969.54 L2333.28 1975.36 L2340.68 1981.35 L2348.08 1987.18 L2355.48 1993.16 L2362.89 1998.99 L2370.29 2004.82 L2377.69 2010.80 L2385.25 2016.63 L2392.65 2022.46 L2400.06 2028.44 L2407.46 2034.27 L2414.86 2040.26 L2422.27 2046.08 L2429.67 2051.91 L2437.07 2057.89 L2444.47 2063.72 L2451.88 2069.55 L2459.44 2075.53 L2466.84 2081.36 L2474.24 2087.35 L2481.65 2093.18 L2489.05 2099.00 L2496.45 2104.99 L2503.85 2110.82 L2511.26 2116.64 L2518.66 2122.63 L2526.06 2128.45 L2533.62 2134.44 L2541.02 2140.27 L2548.43 2146.09 L2555.83 2152.08 L2563.23 2157.91 L2570.64 2163.74 L2578.04 2169.72 L2585.44 2175.55 L2592.84 2181.53 L2600.25 2187.36 L2607.65 2193.19 L2615.21 2199.17 L2622.61 2205.00 L2630.01 2210.83 L2637.42 2216.81 L2644.82 2222.64 L2652.22 2228.63 L2659.63 2234.45 L2667.03 2240.28 L2674.43 2246.26 L2681.83 2252.09 L2689.39 2257.92 L2696.80 2263.91 L2704.20 2269.73 L2711.60 2275.72 L2719.00 2281.55 L2726.41 2287.37 L2733.81 2293.36 L2741.21 2299.18 L2748.62 2305.17 L2756.02 2311.00 L2763.42 2316.82 L2770.98 2322.81 L2778.38 2328.64 L2785.79 2334.47 L2793.19 2340.45 L2800.59 2346.28 L2807.99 2352.26 L2815.40 2358.09 L2822.80 2363.92 L2830.20 2369.90 L2837.61 2375.73 L2845.17 2381.56 L2852.57 2387.54 L2859.97 2393.37 L2867.37 2399.36 L2874.78 2405.18 L2882.18 2411.01 L2889.58 2416.99 L2896.99 2422.82 L2904.39 2428.65 L2911.79 2434.64 L2919.35 2440.46 L2926.75 2446.45 L2934.16 2452.28 L2941.56 2458.10 L2948.96 2464.09 L2956.36 2469.91 L2963.77 2475.74 L2971.17 2481.73 L2978.57 2487.55 L2985.98 2493.54 L2993.38 2499.37 L3000.94 2505.20 L3008.34 2511.18 L3015.74 2517.01 L3023.15 2522.84 L3030.55 2528.82 L3037.95 2534.65 L3045.35 2540.63 L3052.76 2546.46 L3060.16 2552.29 L3067.56 2558.27 L3075.12 2564.10 L3082.53 2569.93 L3089.93 2575.91 L3097.33 2581.74 L3104.73 2587.72 L3112.14 2593.55 L3119.54 2599.38 L3126.94 2605.36 L3134.34 2611.19 L3141.75 2617.18 L3149.31 2623.01 L3156.71 2628.83 L3164.11 2634.82 L3171.52 2640.64 L3178.92 2646.47 L3186.32 2652.46 L3193.72 2658.28 L3201.13 2664.27 L3208.53 2670.10 L3215.93 2675.93 L3223.33 2681.91 L3230.90 2687.74 L3238.30 2693.57 L3245.70 2699.55 L3253.10 2705.38 L3260.51 2711.36 L3267.91 2717.19 L3275.31 2723.02 L3282.71 2729.00 L3290.12 2734.83 L3297.52 2740.66 L3305.08 2746.64 L3312.48 2752.47 L3319.89 2758.45 L3327.29 2764.28 L3334.69 2770.11 L3342.09 2776.09 L3349.50 2781.92 L3356.90 2787.75 L3364.30 2793.74 L3371.70 2799.56 L3379.11 2805.55 L3386.67 2811.38 L3394.07 2817.20 L3401.47 2823.19 L3408.88 2829.01 L3416.28 2834.84 L3423.68 2840.83 L3431.08 2846.66 L3438.49 2852.64 L3445.89 2858.47 L3453.29 2864.30 L3460.85 2870.28 L3468.25 2876.11 L3475.66 2881.93 L3483.06 2887.92 L3490.46 2893.75 L3497.87 2899.73 L3505.27 2905.56 L3512.67 2911.39 L3520.07 2917.37 L3527.48 2923.20 L3535.04 2929.18 L3542.44 2935.01 L3549.84 2940.84 L3557.25 2946.82 L3564.65 2952.65 L3572.05 2958.48 L3579.45 2964.47 L3586.86 2970.29 L3594.26 2976.28 L3601.66 2982.11 L3609.06 2987.93 L3616.62 2993.92 L3624.03 2999.74 L3631.43 3005.57 L3638.83 3011.56 L3646.24 3017.39 L3653.64 3023.37 L3661.04 3029.20 L3668.44 3035.03 L3675.85 3041.01 L3683.25 3046.84 L3690.81 3052.66 L3698.21 3058.65 L3705.61 3064.48 L3713.02 3070.46 L3720.42 3076.29 L3727.82 3082.12 L3735.23 3088.10 L3742.63 3093.93 L3750.03 3099.76 L3757.43 3105.74 L3764.84 3111.57 L3772.40 3117.56 L3779.80 3123.38 L3787.20 3129.21 L3794.60 3135.19 L3802.01 3141.02 L3809.41 3146.85 L3816.81 3152.84 L3824.22 3158.66 L3831.62 3164.65 L3839.02 3170.47 L3846.58 3176.30 L3853.98 3182.29 L3861.39 3188.11 L3868.79 3193.94 L3876.19 3199.93 L3883.59 3205.76" stroke-linejoin="round" style="fill:none;stroke:#FF0000;stroke-width:35.71"/>
	<line x1="634.59" y1="627.32" x2="641.99" y2="633.15" style="stroke:#FF0000;stroke-width:35.71"/>
	<line x1="641.99" y1="633.15" x2="649.39" y2="639.14" style="stroke:#FF0000;stroke-width:35.71"/>
	<line x1="649.39" y1="639.14" x2="656.79" y2="644.96" style="stroke:#FF0000;stroke-width:35.71"/>
	<line x1="656.79" y1="644.96" x2="662.62" y2="649.53" style="stroke:#FF0000;stroke-width:35.71"/>
	<line x1="687.04" y1="669.06" x2="693.97" y2="674.41" style="stroke:#FF0000;stroke-width:35.71"/>
	<line x1="693.97" y1="674.41" x2="701.37" y2="680.24" style="stroke:#FF0000;stroke-width:35.71"/>
	<line x1="701.37" y1="680.24" x2="708.77" y2="686.23" style="stroke:#FF0000;stroke-width:35.71"/>
	<line x1="708.77" y1="686.23" x2="715.07" y2="691.11" style="stroke:#FF0000;stroke-width:35.71"/>
	<line x1="739.48" y1="710.64" x2="745.79" y2="715.68" style="stroke:#FF0000;stroke-width:35.71"/>
	<line x1="745.79" y1="715.68" x2="753.19" y2="721.51" style="stroke:#FF0000;stroke-width:35.71"/>
	<line x1="753.19" y1="721.51" x2="760.59" y2="727.34" style="stroke:#FF0000;stroke-width:35.71"/>
	<line x1="760.59" y1="727.34" x2="767.52" y2="732.85" style="stroke:#FF0000;stroke-width:35.71"/>
	<line x1="791.93" y1="752.22" x2="797.76" y2="756.79" style="stroke:#FF0000;stroke-width:35.71"/>
	<line x1="797.76" y1="756.79" x2="805.16" y2="762.77" style="stroke:#FF0000;stroke-width:35.71"/>
	<line x1="805.16" y1="762.77" x2="812.57" y2="768.60" style="stroke:#FF0000;stroke-width:35.71"/>
	<line x1="812.57" y1="768.60" x2="819.97" y2="774.43" style="stroke:#FF0000;stroke-width:35.71"/>
	<line x1="819.97" y1="774.43" x2="820.13" y2="774.59" style="stroke:#FF0000;stroke-width:35.71"/>
	<line x1="844.54" y1="793.96" x2="849.74" y2="798.05" style="stroke:#FF0000;stroke-width:35.71"/>
	<line x1="849.74" y1="798.05" x2="857.14" y2="803.88" style="stroke:#FF0000;stroke-width:35.71"/>
	<line x1="857.14" y1="803.88" x2="864.54" y2="809.86" style="stroke:#FF0000;stroke-width:35.71"/>
	<line x1="864.54" y1="809.86" x2="871.95" y2="815.69" style="stroke:#FF0000;stroke-width:35.71"/>
	<line x1="871.95" y1="815.69" x2="872.42" y2="816.16" style="stroke:#FF0000;stroke-width:35.71"/>
	<line x1="896.99" y1="835.69" x2="901.56" y2="839.32" style="stroke:#FF0000;stroke-width:35.71"/>
	<line x1="901.56" y1="839.32" x2="908.96" y2="845.15" style="stroke:#FF0000;stroke-width:35.71"/>
	<line x1="908.96" y1="845.15" x2="916.52" y2="850.97" style="stroke:#FF0000;stroke-width:35.71"/>
	<line x1="916.52" y1="850.97" x2="923.92" y2="856.96" style="stroke:#FF0000;stroke-width:35.71"/>
	<line x1="923.92" y1="856.96" x2="925.03" y2="857.74" style="stroke:#FF0000;stroke-width:35.71"/>
	<line x1="949.44" y1="877.12" x2="953.53" y2="880.43" style="stroke:#FF0000;stroke-width:35.71"/>
	<line x1="953.53" y1="880.43" x2="960.94" y2="886.41" style="stroke:#FF0000;stroke-width:35.71"/>
	<line x1="960.94" y1="886.41" x2="968.34" y2="892.24" style="stroke:#FF0000;stroke-width:35.71"/>
	<line x1="968.34" y1="892.24" x2="975.74" y2="898.06" style="stroke:#FF0000;stroke-width:35.71"/>
	<line x1="975.74" y1="898.06" x2="977.47" y2="899.32" style="stroke:#FF0000;stroke-width:35.71"/>
	<line x1="1001.89" y1="918.70" x2="1005.51" y2="921.69" style="stroke:#FF0000;stroke-width:35.71"/>
	<line x1="1005.51" y1="921.69" x2="1012.91" y2="927.52" style="stroke:#FF0000;stroke-width:35.71"/>
	<line x1="1012.91" y1="927.52" x2="1020.32" y2="933.50" style="stroke:#FF0000;stroke-width:35.71"/>
	<line x1="1020.32" y1="933.50" x2="1027.72" y2="939.33" style="stroke:#FF0000;stroke-width:35.71"/>
	<line x1="1027.72" y1="939.33" x2="1029.92" y2="941.06" style="stroke:#FF0000;stroke-width:35.71"/>
	<line x1="1054.34" y1="960.43" x2="1057.33" y2="962.80" style="stroke:#FF0000;stroke-width:35.71"/>
	<line x1="1057.33" y1="962.80" x2="1064.73" y2="968.78" style="stroke:#FF0000;stroke-width:35.71"/>
	<line x1="1064.73" y1="968.78" x2="1072.29" y2="974.61" style="stroke:#FF0000;stroke-width:35.71"/>
	<line x1="1072.29" y1="974.61" x2="1079.70" y2="980.59" style="stroke:#FF0000;stroke-width:35.71"/>
	<line x1="1079.70" y1="980.59" x2="1082.37" y2="982.80" style="stroke:#FF0000;stroke-width:35.71"/>
	<line x1="1106.94" y1="1002.17" x2="1109.31" y2="1004.06" style="stroke:#FF0000;stroke-width:35.71"/>
	<line x1="1109.31" y1="1004.06" x2="1116.71" y2="1009.89" style="stroke:#FF0000;stroke-width:35.71"/>
	<line x1="1116.71" y1="1009.89" x2="1124.11" y2="1015.88" style="stroke:#FF0000;stroke-width:35.71"/>
	<line x1="1124.11" y1="1015.88" x2="1131.51" y2="1021.70" style="stroke:#FF0000;stroke-width:35.71"/>
	<line x1="1131.51" y1="1021.70" x2="1134.82" y2="1024.38" style="stroke:#FF0000;stroke-width:35.71"/>
	<line x1="1159.24" y1="1043.75" x2="1161.28" y2="1045.33" style="stroke:#FF0000;stroke-width:35.71"/>
	<line x1="1161.28" y1="1045.33" x2="1168.69" y2="1051.16" style="stroke:#FF0000;stroke-width:35.71"/>
	<line x1="1168.69" y1="1051.16" x2="1176.09" y2="1057.14" style="stroke:#FF0000;stroke-width:35.71"/>
	<line x1="1176.09" y1="1057.14" x2="1183.49" y2="1062.97" style="stroke:#FF0000;stroke-width:35.71"/>
	<line x1="1183.49" y1="1062.97" x2="1187.27" y2="1065.96" style="stroke:#FF0000;stroke-width:35.71"/>
	<line x1="1211.84" y1="1085.49" x2="1213.10" y2="1086.43" style="stroke:#FF0000;stroke-width:35.71"/>
	<line x1="1213.10" y1="1086.43" x2="1220.50" y2="1092.42" style="stroke:#FF0000;stroke-width:35.71"/>
	<line x1="1220.50" y1="1092.42" x2="1228.06" y2="1098.25" style="stroke:#FF0000;stroke-width:35.71"/>
	<line x1="1228.06" y1="1098.25" x2="1235.47" y2="1104.23" style="stroke:#FF0000;stroke-width:35.71"/>
	<line x1="1235.47" y1="1104.23" x2="1239.88" y2="1107.70" style="stroke:#FF0000;stroke-width:35.71"/>
	<line x1="1264.45" y1="1127.23" x2="1265.08" y2="1127.70" style="stroke:#FF0000;stroke-width:35.71"/>
	<line x1="1265.08" y1="1127.70" x2="1272.48" y2="1133.53" style="stroke:#FF0000;stroke-width:35.71"/>
	<line x1="1272.48" y1="1133.53" x2="1279.88" y2="1139.51" style="stroke:#FF0000;stroke-width:35.71"/>
	<line x1="1279.88" y1="1139.51" x2="1287.29" y2="1145.34" style="stroke:#FF0000;stroke-width:35.71"/>
	<line x1="1287.29" y1="1145.34" x2="1292.33" y2="1149.43" style="stroke:#FF0000;stroke-width:35.71"/>
	<line x1="1316.90" y1="1168.97" x2="1317.05" y2="1168.97" style="stroke:#FF0000;stroke-width:35.71"/>
	<line x1="1317.05" y1="1168.97" x2="1324.46" y2="1174.79" style="stroke:#FF0000;stroke-width:35.71"/>
	<line x1="1324.46" y1="1174.79" x2="1331.86" y2="1180.62" style="stroke:#FF0000;stroke-width:35.71"/>
	<line x1="1331.86" y1="1180.62" x2="1339.26" y2="1186.61" style="stroke:#FF0000;stroke-width:35.71"/>
	<path d="" stroke-linejoin="round" style="fill:none;stroke:#FF0000;stroke-width:35.71"/>
	<circle cx="3773.97" cy="2788.70" r="54.18" style="fill:none;stroke:#6E8E84;stroke-width:13.39"/>
	<rect x="3193.09" y="2359.66" width="108.36" height="108.36" style="fill:none;stroke:#339933;stroke-width:13.39"/>
	<polygon points="2041.40,1609.49 2127.42,1523.48 2213.43,1609.49 2127.42,1695.51" style="fill:#000000"/>
	<polygon points="2050.87,1609.49 2127.42,1532.95 2203.96,1609.49 2127.42,1686.04" style="fill:none;stroke:#000000;stroke-width:13.39"/>
	<circle cx="2550.95" cy="2079.63" r="60.88" style="fill:#FF3333"/>
	<circle cx="2550.95" cy="2079.63" r="54.18" style="fill:none;stroke:#FF3333;stroke-width:13.39"/>
	<rect x="2608.51" y="2136.72" width="121.76" height="121.75" style="fill:#FF7F00"/>
	<rect x="2615.21" y="2143.42" width="108.36" height="108.36" style="fill:none;stroke:#FF7F00;stroke-width:13.39"/>
	<polygon points="2833.35,2467.55 2909.90,2391.01 2986.45,2467.55 2909.90,2544.10" style="fill:none;stroke:#808080;stroke-width:13.39"/>
	<path d="M2983.69 2526.30 L3046.30 2634.74 L3108.91 2526.30" style="fill:none;stroke:#CAC27E;stroke-width:13.39"/>
	<polygon points="2982.98,2507.40 2920.37,2615.84 3045.59,2615.84" style="fill:none;stroke:#993399;stroke-width:13.39"/>
	<line x1="3559.10" y1="3114.60" x2="3635.72" y2="3037.98" stroke-linecap="round" style="fill:none;stroke:#FF3399;stroke-width:13.39"/>
	<line x1="3635.72" y1="3114.60" x2="3559.10" y2="3037.98" stroke-linecap="round" style="fill:none;stroke:#FF3399;stroke-width:13.39"/>
	<polygon points="3122.22,2746.79 3048.01,2875.32 3196.42,2875.32" style="fill:#4D4DFF"/>
	<polygon points="3122.22,2760.19 3059.61,2868.63 3184.83,2868.63" style="fill:none;stroke:#4D4DFF;stroke-width:13.39"/>
	<text x="4000.46" y="2653.01" style="font-family:'Helvetica';font-size:100.02px;fill:#000000" text-anchor="middle">1960</text>
	<text x="4000.46" y="2947.85" style="font-family:'Helvetica';font-size:100.02px;fill:#000000" text-anchor="middle">1980</text>
	<text x="4000.46" y="3144.57" style="font-family:'Helvetica';font-size:100.02px;fill:#000000" text-anchor="middle">2000</text>
	<text x="4022.83" y="3240.80" style="font-family:'Helvetica';font-size:100.02px;fill:#000000" text-anchor="middle">2019</text>
	<line x1="567.80" y1="3272.06" x2="567.80" y2="89.46" style="stroke:#000000;stroke-width:13.39"/>
	<line x1="567.80" y1="3272.06" x2="536.78" y2="3272.06" style="stroke:#000000;stroke-width:8.93"/>
	<line x1="567.80" y1="3072.51" x2="536.78" y2="3072.51" style="stroke:#000000;stroke-width:8.93"/>
	<line x1="567.80" y1="2872.80" x2="536.78" y2="2872.80" style="stroke:#000000;stroke-width:8.93"/>
	<line x1="567.80" y1="2673.25" x2="536.78" y2="2673.25" style="stroke:#000000;stroke-width:8.93"/>
	<line x1="567.80" y1="2473.70" x2="536.78" y2="2473.70" style="stroke:#000000;stroke-width:8.93"/>
	<line x1="567.80" y1="2273.99" x2="536.78" y2="2273.99" style="stroke:#000000;stroke-width:8.93"/>
	<line x1="567.80" y1="2074.43" x2="536.78" y2="2074.43" style="stroke:#000000;stroke-width:8.93"/>
	<line x1="567.80" y1="1874.88" x2="536.78" y2="1874.88" style="stroke:#000000;stroke-width:8.93"/>
	<line x1="567.80" y1="1675.17" x2="536.78" y2="1675.17" style="stroke:#000000;stroke-width:8.93"/>
	<line x1="567.80" y1="1475.62" x2="536.78" y2="1475.62" style="stroke:#000000;stroke-width:8.93"/>
	<line x1="567.80" y1="1276.07" x2="536.78" y2="1276.07" style="stroke:#000000;stroke-width:8.93"/>
	<line x1="567.80" y1="1076.36" x2="536.78" y2="1076.36" style="stroke:#000000;stroke-width:8.93"/>
	<line x1="567.80" y1="876.80" x2="536.78" y2="876.80" style="stroke:#000000;stroke-width:8.93"/>
	<line x1="567.80" y1="677.25" x2="536.78" y2="677.25" style="stroke:#000000;stroke-width:8.93"/>
	<line x1="567.80" y1="477.54" x2="536.78" y2="477.54" style="stroke:#000000;stroke-width:8.93"/>
	<line x1="567.80" y1="277.99" x2="536.78" y2="277.99" style="stroke:#000000;stroke-width:8.93"/>
	<line x1="567.80" y1="3272.06" x2="505.75" y2="3272.06" style="stroke:#000000;stroke-width:8.93"/>
	<text x="474.72" y="3310.58" style="font-family:'Helvetica';font-size:109.94px;fill:#000000" text-anchor="end">10</text>
	<line x1="567.80" y1="2872.80" x2="505.75" y2="2872.80" style="stroke:#000000;stroke-width:8.93"/>
	<text x="474.72" y="2911.32" style="font-family:'Helvetica';font-size:109.94px;fill:#000000" text-anchor="end">20</text>
	<line x1="567.80" y1="2473.70" x2="505.75" y2="2473.70" style="stroke:#000000;stroke-width:8.93"/>
	<text x="474.72" y="2512.21" style="font-family:'Helvetica';font-size:109.94px;fill:#000000" text-anchor="end">30</text>
	<line x1="567.80" y1="2074.43" x2="505.75" y2="2074.43" style="stroke:#000000;stroke-width:8.93"/>
	<text x="474.72" y="2112.95" style="font-family:'Helvetica';font-size:109.94px;fill:#000000" text-anchor="end">40</text>
	<line x1="567.80" y1="1675.17" x2="505.75" y2="1675.17" style="stroke:#000000;stroke-width:8.93"/>
	<text x="474.72" y="1713.69" style="font-family:'Helvetica';font-size:109.94px;fill:#000000" text-anchor="end">50</text>
	<line x1="567.80" y1="1276.07" x2="505.75" y2="1276.07" style="stroke:#000000;stroke-width:8.93"/>
	<text x="474.72" y="1314.58" style="font-family:'Helvetica';font-size:109.94px;fill:#000000" text-anchor="end">60</text>
	<line x1="567.80" y1="876.80" x2="505.75" y2="876.80" style="stroke:#000000;stroke-width:8.93"/>
	<text x="474.72" y="915.32" style="font-family:'Helvetica';font-size:109.94px;fill:#000000" text-anchor="end">70</text>
	<line x1="567.80" y1="477.54" x2="505.75" y2="477.54" style="stroke:#000000;stroke-width:8.93"/>
	<text x="474.72" y="516.06" style="font-family:'Helvetica';font-size:109.94px;fill:#000000" text-anchor="end">80</text>
	<text x="197.21" y="1680.68" style="font-family:'Helvetica';font-size:109.94px;fill:#000000" transform="rotate(-90 197.21,1680.68)" text-anchor="middle">PPD, %</text>
	<line x1="567.80" y1="3272.06" x2="567.80" y2="3303.09" style="stroke:#000000;stroke-width:8.93"/>
	<line x1="837.61" y1="3272.06" x2="837.61" y2="3303.09" style="stroke:#000000;stroke-width:8.93"/>
	<line x1="1107.42" y1="3272.06" x2="1107.42" y2="3303.09" style="stroke:#000000;stroke-width:8.93"/>
	<line x1="1377.22" y1="3272.06" x2="1377.22" y2="3303.09" style="stroke:#000000;stroke-width:8.93"/>
	<line x1="1647.03" y1="3272.06" x2="1647.03" y2="3303.09" style="stroke:#000000;stroke-width:8.93"/>
	<line x1="1916.83" y1="3272.06" x2="1916.83" y2="3303.09" style="stroke:#000000;stroke-width:8.93"/>
	<line x1="2186.64" y1="3272.06" x2="2186.64" y2="3303.09" style="stroke:#000000;stroke-width:8.93"/>
	<line x1="2456.44" y1="3272.06" x2="2456.44" y2="3303.09" style="stroke:#000000;stroke-width:8.93"/>
	<line x1="2726.25" y1="3272.06" x2="2726.25" y2="3303.09" style="stroke:#000000;stroke-width:8.93"/>
	<line x1="2996.06" y1="3272.06" x2="2996.06" y2="3303.09" style="stroke:#000000;stroke-width:8.93"/>
	<line x1="3265.86" y1="3272.06" x2="3265.86" y2="3303.09" style="stroke:#000000;stroke-width:8.93"/>
	<line x1="3535.82" y1="3272.06" x2="3535.82" y2="3303.09" style="stroke:#000000;stroke-width:8.93"/>
	<line x1="3805.63" y1="3272.06" x2="3805.63" y2="3303.09" style="stroke:#000000;stroke-width:8.93"/>
	<line x1="567.80" y1="3272.06" x2="567.80" y2="3333.96" style="stroke:#000000;stroke-width:8.93"/>
	<text x="567.80" y="3441.86" style="font-family:'Helvetica';font-size:109.94px;fill:#000000" text-anchor="middle">5</text>
	<line x1="1107.42" y1="3272.06" x2="1107.42" y2="3333.96" style="stroke:#000000;stroke-width:8.93"/>
	<text x="1107.42" y="3441.86" style="font-family:'Helvetica';font-size:109.94px;fill:#000000" text-anchor="middle">6</text>
	<line x1="1647.03" y1="3272.06" x2="1647.03" y2="3333.96" style="stroke:#000000;stroke-width:8.93"/>
	<text x="1647.03" y="3441.86" style="font-family:'Helvetica';font-size:109.94px;fill:#000000" text-anchor="middle">7</text>
	<line x1="2186.64" y1="3272.06" x2="2186.64" y2="3333.96" style="stroke:#000000;stroke-width:8.93"/>
	<text x="2186.64" y="3441.86" style="font-family:'Helvetica';font-size:109.94px;fill:#000000" text-anchor="middle">8</text>
	<line x1="2726.25" y1="3272.06" x2="2726.25" y2="3333.96" style="stroke:#000000;stroke-width:8.93"/>
	<text x="2726.25" y="3441.86" style="font-family:'Helvetica';font-size:109.94px;fill:#000000" text-anchor="middle">9</text>
	<line x1="3265.86" y1="3272.06" x2="3265.86" y2="3333.96" style="stroke:#000000;stroke-width:8.93"/>
	<text x="3265.86" y="3441.86" style="font-family:'Helvetica';font-size:109.94px;fill:#000000" text-anchor="middle">10</text>
	<line x1="3805.63" y1="3272.06" x2="3805.63" y2="3333.96" style="stroke:#000000;stroke-width:8.93"/>
	<text x="3805.63" y="3441.86" style="font-family:'Helvetica';font-size:109.94px;fill:#000000" text-anchor="middle">11</text>
	<line x1="567.80" y1="3272.06" x2="3805.63" y2="3272.06" style="stroke:#000000;stroke-width:13.39"/>
	<text x="2225.70" y="3636.06" style="font-family:'Helvetica';font-size:109.94px;fill:#000000" text-anchor="middle">log Real per capita GDP</text>
	<rect x="282.72" y="3753.70" width="3407.62" height="1143.45" style="fill:#F0F0F0"/>
	<rect x="289.42" y="3760.39" width="3394.22" height="1130.06" style="fill:none;stroke:#FFFFFF;stroke-width:13.39"/>
	<circle cx="395.02" cy="4029.48" r="54.18" style="fill:none;stroke:#6E8E84;stroke-width:13.39"/>
	<rect x="1885.80" y="3975.30" width="108.36" height="108.36" style="fill:none;stroke:#339933;stroke-width:13.39"/>
	<polygon points="309.01,4218.32 395.02,4132.31 481.04,4218.32 395.02,4304.34" style="fill:#000000"/>
	<polygon points="318.47,4218.32 395.02,4141.78 471.57,4218.32 395.02,4294.87" style="fill:none;stroke:#000000;stroke-width:13.39"/>
	<circle cx="1939.99" cy="4218.32" r="60.88" style="fill:#FF3333"/>
	<circle cx="1939.99" cy="4218.32" r="54.18" style="fill:none;stroke:#FF3333;stroke-width:13.39"/>
	<rect x="334.14" y="4346.29" width="121.76" height="121.75" style="fill:#FF7F00"/>
	<rect x="340.84" y="4352.98" width="108.36" height="108.36" style="fill:none;stroke:#FF7F00;stroke-width:13.39"/>
	<polygon points="1863.44,4407.16 1939.99,4330.62 2016.53,4407.16 1939.99,4483.71" style="fill:none;stroke:#808080;stroke-width:13.39"/>
	<path d="M332.41 4523.71 L395.02 4632.15 L457.63 4523.71" style="fill:none;stroke:#CAC27E;stroke-width:13.39"/>
	<polygon points="1939.99,4523.71 1877.38,4632.15 2002.60,4632.15" style="fill:none;stroke:#993399;stroke-width:13.39"/>
	<line x1="356.71" y1="4823.16" x2="433.33" y2="4746.54" stroke-linecap="round" style="fill:none;stroke:#FF3399;stroke-width:13.39"/>
	<line x1="433.33" y1="4823.16" x2="356.71" y2="4746.54" stroke-linecap="round" style="fill:none;stroke:#FF3399;stroke-width:13.39"/>
	<polygon points="1939.99,4699.16 1865.78,4827.69 2014.19,4827.69" style="fill:#4D4DFF"/>
	<polygon points="1939.99,4712.56 1877.38,4821.00 2002.60,4821.00" style="fill:none;stroke:#4D4DFF;stroke-width:13.39"/>
	<text x="538.51" y="4064.52" style="font-family:'Helvetica';font-size:100.02px;fill:#000000">United States</text>
	<text x="2083.47" y="4064.52" style="font-family:'Helvetica';font-size:100.02px;fill:#000000">Central &amp; Eastern Europe</text>
	<text x="538.51" y="4253.37" style="font-family:'Helvetica';font-size:100.02px;fill:#000000">Sub-Saharan Africa</text>
	<text x="2083.47" y="4253.37" style="font-family:'Helvetica';font-size:100.02px;fill:#000000">Central Asia</text>
	<text x="538.51" y="4442.21" style="font-family:'Helvetica';font-size:100.02px;fill:#000000">India</text>
	<text x="2083.47" y="4442.21" style="font-family:'Helvetica';font-size:100.02px;fill:#000000">Western Pacific &amp; Southeast Asia</text>
	<text x="538.51" y="4631.05" style="font-family:'Helvetica';font-size:100.02px;fill:#000000">Middle East &amp; North Africa</text>
	<text x="2083.47" y="4631.05" style="font-family:'Helvetica';font-size:100.02px;fill:#000000">Latin America &amp; Caribbean</text>
	<text x="538.51" y="4819.89" style="font-family:'Helvetica';font-size:100.02px;fill:#000000">North Atlantic</text>
	<text x="2083.47" y="4819.89" style="font-family:'Helvetica';font-size:100.02px;fill:#000000">China</text>
	<text x="354.07" y="3902.08" style="font-family:'Helvetica';font-weight:bold;font-size:109.94px;fill:#000000">PPD and GDP for regions in 2019</text>
</svg>
